<svg width="18" height="16" viewBox="0 0 18 16" fill="none" xmlns="http://www.w3.org/2000/svg">
<path d="M1.15514 9.05254L14.058 9.05254L8.42101 14.1951C7.9705 14.6061 7.9705 15.2808 8.42101 15.6918C8.87151 16.1027 9.59915 16.1027 10.0497 15.6918L17.6621 8.74689C18.1126 8.33589 18.1126 7.67207 17.6621 7.26107L10.0612 0.305653C9.84174 0.105425 9.553 0 9.24111 0C8.94078 0 8.65205 0.105425 8.43257 0.305653C7.98207 0.716649 7.98207 1.38073 8.43257 1.79173L14.058 6.94487L1.15514 6.94487C0.519813 6.94487 0 7.41909 0 7.9987C0 8.57831 0.519813 9.05254 1.15514 9.05254Z" fill="#3D3D3D"/>
</svg>
