<svg width="68" height="22" viewBox="0 0 68 22" fill="none" xmlns="http://www.w3.org/2000/svg">
<path fill-rule="evenodd" clip-rule="evenodd" d="M49.0469 9.93945V22.0004H54.9089V14.8532H61.5526C64.3488 14.8294 66.724 12.7878 67.6197 9.93945H49.0469Z" fill="#37A72E"/>
<path fill-rule="evenodd" clip-rule="evenodd" d="M48.2637 0C48.6051 4.92984 52.6854 8.82233 57.6687 8.82233C57.685 8.82233 67.8616 8.82233 67.8616 8.82233C67.9368 8.37021 67.9762 7.90356 67.9762 7.4264C67.9762 3.34264 65.0937 0.0302108 61.5279 0.000205475L48.2637 0Z" fill="url(#paint0_linear_2817_13476)"/>
<path fill-rule="evenodd" clip-rule="evenodd" d="M39.5878 8.70502L39.5924 8.69377L39.593 8.69394C39.6531 8.57068 39.7682 8.48731 39.9004 8.48731C40.0914 8.48731 40.2468 8.66128 40.252 8.87814L40.2522 8.87817V21.8883H46.1142V0H40.2522C39.5088 0.0282819 38.6689 0.651802 38.3566 1.41719L33.6916 12.8524C33.68 12.8991 33.662 12.9428 33.6387 12.9819L33.6372 12.9857L33.6366 12.9855C33.566 13.1016 33.4484 13.1777 33.3154 13.1777C33.0995 13.1777 32.9246 12.9777 32.9246 12.731V0H27.0625V21.8883H32.9246V21.8858C33.6598 21.8419 34.48 21.2254 34.7877 20.4711L39.5757 8.73451C39.5794 8.72447 39.5834 8.71463 39.5878 8.70502Z" fill="#37A72E"/>
<path fill-rule="evenodd" clip-rule="evenodd" d="M17.6989 9.07918L14.2728 21.8883H10.0557L6.62752 9.0714C6.59446 8.86616 6.43711 8.71066 6.24799 8.71066C6.03485 8.71066 5.86207 8.90815 5.86207 9.15178C5.86207 9.15364 5.86208 9.1555 5.8621 9.15735L5.86207 21.8883H0V0H5.03161H6.53012C7.60876 0 8.7391 0.956812 9.0543 2.13526L11.9072 12.8014C12.0492 13.3321 12.2795 13.3315 12.4213 12.8014L15.2742 2.13526C15.5896 0.955988 16.7196 0 17.7984 0L19.2964 0H24.3276V21.8883H18.4655V9.15736C18.4655 9.1555 18.4655 9.15364 18.4655 9.15178C18.4655 8.90815 18.2927 8.71066 18.0796 8.71066C17.8881 8.71066 17.7292 8.8701 17.6989 9.07918Z" fill="#37A72E"/>
<defs>
<linearGradient id="paint0_linear_2817_13476" x1="48.2637" y1="4.41117" x2="67.9762" y2="4.41117" gradientUnits="userSpaceOnUse">
<stop stop-color="#00A0E5"/>
<stop offset="1" stop-color="#0077C3"/>
</linearGradient>
</defs>
</svg>
