<svg width="16" height="17" viewBox="0 0 16 17" fill="none" xmlns="http://www.w3.org/2000/svg">
<path d="M16 4.6917C16.0006 4.58642 15.9804 4.48206 15.9406 4.3846C15.9008 4.28714 15.8421 4.19849 15.768 4.12374L12.376 0.731996C12.3012 0.657856 12.2126 0.599201 12.1151 0.559392C12.0176 0.519583 11.9133 0.499405 11.808 0.500013C11.7027 0.499405 11.5983 0.519583 11.5009 0.559392C11.4034 0.599201 11.3147 0.657856 11.24 0.731996L8.976 2.99583L0.232013 11.7392C0.157868 11.8139 0.0992079 11.9026 0.0593963 12C0.0195847 12.0975 -0.000595342 12.2019 1.33714e-05 12.3071V15.6989C1.33714e-05 15.911 0.0842987 16.1145 0.234328 16.2645C0.384356 16.4145 0.587839 16.4988 0.800012 16.4988H4.19201C4.30395 16.5049 4.41592 16.4874 4.52066 16.4474C4.6254 16.4075 4.72057 16.3459 4.80001 16.2668L13.496 7.52349L15.768 5.29966C15.841 5.22213 15.9005 5.13289 15.944 5.03567C15.9517 4.97191 15.9517 4.90745 15.944 4.84369C15.9477 4.80645 15.9477 4.76893 15.944 4.7317L16 4.6917ZM3.86401 14.8989H1.60001V12.6351L9.544 4.6917L11.808 6.95553L3.86401 14.8989ZM12.936 5.82762L10.672 3.56378L11.808 2.43587L14.064 4.6917L12.936 5.82762Z" fill="#85CB33"/>
</svg>
