<svg width="55" height="55" viewBox="0 0 55 55" fill="none" xmlns="http://www.w3.org/2000/svg">
<path d="M43.5416 14.8946H40.6083L39.8749 12.6029C39.3995 11.2582 38.5177 10.0947 37.3516 9.27349C36.1855 8.45229 34.7928 8.01408 33.3666 8.01958H21.6333C20.193 8.02228 18.7901 8.47719 17.6223 9.32012C16.4545 10.163 15.581 11.3514 15.1249 12.7175L14.3916 15.0092H11.4583C9.63489 15.0092 7.88621 15.7335 6.59689 17.0228C5.30758 18.3121 4.58325 20.0608 4.58325 21.8842V40.2175C4.58325 42.0409 5.30758 43.7895 6.59689 45.0789C7.88621 46.3682 9.63489 47.0925 11.4583 47.0925H43.5416C45.365 47.0925 47.1136 46.3682 48.4029 45.0789C49.6923 43.7895 50.4166 42.0409 50.4166 40.2175V21.8842C50.4318 20.9717 50.2652 20.0654 49.9265 19.218C49.5878 18.3706 49.0838 17.5992 48.4439 16.9486C47.804 16.298 47.0409 15.7813 46.1993 15.4287C45.3576 15.076 44.4541 14.8945 43.5416 14.8946ZM45.8333 40.1029C45.8333 40.7107 45.5918 41.2936 45.162 41.7234C44.7323 42.1531 44.1494 42.3946 43.5416 42.3946H11.4583C10.8505 42.3946 10.2676 42.1531 9.8378 41.7234C9.40803 41.2936 9.16659 40.7107 9.16659 40.1029V21.7696C9.16659 21.1618 9.40803 20.5789 9.8378 20.1491C10.2676 19.7194 10.8505 19.4779 11.4583 19.4779H16.0416C16.5413 19.504 17.0359 19.3658 17.4497 19.0844C17.8635 18.803 18.1738 18.3939 18.3333 17.9196L19.5708 14.1612C19.7245 13.7061 20.0174 13.3107 20.4081 13.0311C20.7987 12.7515 21.2674 12.6017 21.7478 12.6029H33.4812C33.9616 12.6017 34.4303 12.7515 34.8209 13.0311C35.2116 13.3107 35.5045 13.7061 35.6583 14.1612L36.8958 17.9196C37.0428 18.3567 37.3183 18.7393 37.6863 19.0173C38.0543 19.2953 38.4976 19.4559 38.9583 19.4779H43.5416C44.1494 19.4779 44.7323 19.7194 45.162 20.1491C45.5918 20.5789 45.8333 21.1618 45.8333 21.7696V40.1029ZM27.4999 19.4779C25.6869 19.4779 23.9146 20.0155 22.4072 21.0228C20.8997 22.03 19.7248 23.4617 19.031 25.1367C18.3372 26.8116 18.1557 28.6548 18.5094 30.4329C18.8631 32.2111 19.7361 33.8444 21.0181 35.1264C22.3001 36.4084 23.9334 37.2814 25.7116 37.6351C27.4898 37.9888 29.3329 37.8073 31.0079 37.1135C32.6828 36.4197 34.1145 35.2448 35.1217 33.7373C36.129 32.2299 36.6666 30.4576 36.6666 28.6446C36.6666 26.2134 35.7008 23.8819 33.9817 22.1628C32.2626 20.4437 29.9311 19.4779 27.4999 19.4779V19.4779ZM27.4999 33.2279C26.5934 33.2279 25.7073 32.9591 24.9536 32.4555C24.1998 31.9519 23.6124 31.236 23.2655 30.3985C22.9186 29.5611 22.8278 28.6395 23.0047 27.7504C23.1815 26.8613 23.618 26.0447 24.259 25.4037C24.9 24.7627 25.7167 24.3262 26.6058 24.1493C27.4948 23.9725 28.4164 24.0632 29.2539 24.4101C30.0914 24.757 30.8072 25.3445 31.3108 26.0982C31.8144 26.8519 32.0833 27.7381 32.0833 28.6446C32.0833 29.8602 31.6004 31.0259 30.7408 31.8855C29.8813 32.745 28.7155 33.2279 27.4999 33.2279Z" fill="#A7A7A7"/>
</svg>
