<svg width="96" height="16" viewBox="0 0 96 16" fill="none" xmlns="http://www.w3.org/2000/svg">
<rect width="16.2196" height="16" transform="translate(20.6367)" fill="#F3F3F3" fill-opacity="0.5"/>
<path d="M35.5042 6.44579C35.4615 6.32385 35.3839 6.21674 35.2807 6.13745C35.1776 6.05817 35.0533 6.01012 34.923 5.99912L31.0776 5.44579L29.3543 1.99912C29.2989 1.88641 29.2125 1.79135 29.105 1.72484C28.9974 1.65832 28.873 1.62305 28.746 1.62305C28.6191 1.62305 28.4947 1.65832 28.3871 1.72484C28.2795 1.79135 28.1931 1.88641 28.1378 1.99912L26.4145 5.43912L22.5691 5.99912C22.444 6.01666 22.3264 6.06843 22.2297 6.14856C22.1329 6.22869 22.0608 6.33397 22.0217 6.45245C21.9858 6.56824 21.9826 6.69147 22.0124 6.80892C22.0421 6.92637 22.1038 7.0336 22.1906 7.11912L24.9817 9.78579L24.3059 13.5725C24.2818 13.6974 24.2944 13.8266 24.3423 13.9448C24.3902 14.0629 24.4714 14.165 24.5763 14.2391C24.6785 14.3112 24.799 14.3537 24.9243 14.362C25.0497 14.3702 25.1749 14.3438 25.2859 14.2858L28.746 12.5058L32.1927 14.2925C32.2876 14.3452 32.3947 14.3728 32.5036 14.3725C32.6467 14.373 32.7864 14.3286 32.9023 14.2458C33.0072 14.1717 33.0883 14.0696 33.1362 13.9514C33.1841 13.8333 33.1968 13.7041 33.1726 13.5791L32.4968 9.79245L35.2879 7.12579C35.3855 7.04424 35.4576 6.93706 35.4959 6.81669C35.5342 6.69632 35.5371 6.5677 35.5042 6.44579ZM31.3479 9.11245C31.2687 9.18808 31.2094 9.28168 31.1752 9.3851C31.1411 9.48852 31.1331 9.59862 31.1519 9.70579L31.6385 12.4991L29.0975 11.1658C28.9997 11.1144 28.8906 11.0876 28.7798 11.0876C28.6691 11.0876 28.56 11.1144 28.4622 11.1658L25.9211 12.4991L26.4077 9.70579C26.4266 9.59862 26.4186 9.48852 26.3844 9.3851C26.3503 9.28168 26.291 9.18808 26.2117 9.11245L24.1843 7.11245L27.0295 6.70579C27.1389 6.69076 27.243 6.64948 27.3326 6.58556C27.4221 6.52163 27.4944 6.43701 27.5431 6.33912L28.746 3.79912L30.0166 6.34579C30.0653 6.44368 30.1375 6.5283 30.2271 6.59222C30.3166 6.65615 30.4207 6.69743 30.5302 6.71245L33.3754 7.11912L31.3479 9.11245Z" fill="#76B42E"/>
<rect width="16.2196" height="16" transform="translate(40.3301)" fill="#F3F3F3" fill-opacity="0.5"/>
<path d="M55.1976 6.44579C55.1549 6.32385 55.0772 6.21674 54.9741 6.13745C54.8709 6.05817 54.7467 6.01012 54.6164 5.99912L50.771 5.44579L49.0476 1.99912C48.9923 1.88641 48.9059 1.79135 48.7983 1.72484C48.6907 1.65832 48.5664 1.62305 48.4394 1.62305C48.3124 1.62305 48.1881 1.65832 48.0805 1.72484C47.9729 1.79135 47.8865 1.88641 47.8312 1.99912L46.1078 5.43912L42.2624 5.99912C42.1374 6.01666 42.0198 6.06843 41.923 6.14856C41.8263 6.22869 41.7542 6.33397 41.715 6.45245C41.6792 6.56824 41.676 6.69147 41.7057 6.80892C41.7355 6.92637 41.7971 7.0336 41.884 7.11912L44.6751 9.78579L43.9993 13.5725C43.9752 13.6974 43.9878 13.8266 44.0357 13.9448C44.0836 14.0629 44.1648 14.165 44.2696 14.2391C44.3718 14.3112 44.4923 14.3537 44.6177 14.362C44.743 14.3702 44.8682 14.3438 44.9792 14.2858L48.4394 12.5058L51.8861 14.2925C51.9809 14.3452 52.088 14.3728 52.1969 14.3725C52.3401 14.373 52.4797 14.3286 52.5957 14.2458C52.7005 14.1717 52.7817 14.0696 52.8296 13.9514C52.8775 13.8333 52.8901 13.7041 52.866 13.5791L52.1902 9.79245L54.9813 7.12579C55.0789 7.04424 55.151 6.93706 55.1893 6.81669C55.2276 6.69632 55.2304 6.5677 55.1976 6.44579ZM51.0413 9.11245C50.962 9.18808 50.9027 9.28168 50.8686 9.3851C50.8344 9.48852 50.8264 9.59862 50.8453 9.70579L51.3319 12.4991L48.7908 11.1658C48.693 11.1144 48.584 11.0876 48.4732 11.0876C48.3624 11.0876 48.2533 11.1144 48.1556 11.1658L45.6145 12.4991L46.1011 9.70579C46.12 9.59862 46.112 9.48852 46.0778 9.3851C46.0436 9.28168 45.9843 9.18808 45.9051 9.11245L43.8776 7.11245L46.7228 6.70579C46.8323 6.69076 46.9364 6.64948 47.0259 6.58556C47.1155 6.52163 47.1878 6.43701 47.2364 6.33912L48.4394 3.79912L49.7099 6.34579C49.7586 6.44368 49.8309 6.5283 49.9205 6.59222C50.01 6.65615 50.1141 6.69743 50.2236 6.71245L53.0687 7.11912L51.0413 9.11245Z" fill="#76B42E"/>
<rect width="16.2196" height="16" transform="translate(60.0273)" fill="#F3F3F3" fill-opacity="0.5"/>
<path d="M74.8948 6.44579C74.8521 6.32385 74.7745 6.21674 74.6714 6.13745C74.5682 6.05817 74.4439 6.01012 74.3136 5.99912L70.4682 5.44579L68.7449 1.99912C68.6896 1.88641 68.6032 1.79135 68.4956 1.72484C68.388 1.65832 68.2636 1.62305 68.1367 1.62305C68.0097 1.62305 67.8853 1.65832 67.7777 1.72484C67.6702 1.79135 67.5838 1.88641 67.5284 1.99912L65.8051 5.43912L61.9597 5.99912C61.8346 6.01666 61.717 6.06843 61.6203 6.14856C61.5235 6.22869 61.4515 6.33397 61.4123 6.45245C61.3764 6.56824 61.3732 6.69147 61.403 6.80892C61.4328 6.92637 61.4944 7.0336 61.5813 7.11912L64.3724 9.78579L63.6966 13.5725C63.6724 13.6974 63.6851 13.8266 63.733 13.9448C63.7809 14.0629 63.862 14.165 63.9669 14.2391C64.0691 14.3112 64.1896 14.3537 64.315 14.362C64.4403 14.3702 64.5655 14.3438 64.6765 14.2858L68.1367 12.5058L71.5833 14.2925C71.6782 14.3452 71.7853 14.3728 71.8942 14.3725C72.0374 14.373 72.177 14.3286 72.2929 14.2458C72.3978 14.1717 72.479 14.0696 72.5269 13.9514C72.5748 13.8333 72.5874 13.7041 72.5633 13.5791L71.8874 9.79245L74.6786 7.12579C74.7761 7.04424 74.8483 6.93706 74.8865 6.81669C74.9248 6.69632 74.9277 6.5677 74.8948 6.44579ZM70.7386 9.11245C70.6593 9.18808 70.6 9.28168 70.5658 9.3851C70.5317 9.48852 70.5237 9.59862 70.5426 9.70579L71.0292 12.4991L68.4881 11.1658C68.3903 11.1144 68.2812 11.0876 68.1705 11.0876C68.0597 11.0876 67.9506 11.1144 67.8528 11.1658L65.3118 12.4991L65.7983 9.70579C65.8172 9.59862 65.8092 9.48852 65.7751 9.3851C65.7409 9.28168 65.6816 9.18808 65.6024 9.11245L63.5749 7.11245L66.4201 6.70579C66.5296 6.69076 66.6336 6.64948 66.7232 6.58556C66.8127 6.52163 66.885 6.43701 66.9337 6.33912L68.1367 3.79912L69.4072 6.34579C69.4559 6.44368 69.5282 6.5283 69.6177 6.59222C69.7073 6.65615 69.8113 6.69743 69.9208 6.71245L72.766 7.11912L70.7386 9.11245Z" fill="#76B42E"/>
<rect width="16.2196" height="16" transform="translate(79.7207)" fill="#F3F3F3" fill-opacity="0.5"/>
<path d="M94.5882 6.44579C94.5455 6.32385 94.4679 6.21674 94.3647 6.13745C94.2615 6.05817 94.1373 6.01012 94.007 5.99912L90.1616 5.44579L88.4383 1.99912C88.3829 1.88641 88.2965 1.79135 88.1889 1.72484C88.0814 1.65832 87.957 1.62305 87.83 1.62305C87.7031 1.62305 87.5787 1.65832 87.4711 1.72484C87.3635 1.79135 87.2771 1.88641 87.2218 1.99912L85.4985 5.43912L81.6531 5.99912C81.528 6.01666 81.4104 6.06843 81.3136 6.14856C81.2169 6.22869 81.1448 6.33397 81.1057 6.45245C81.0698 6.56824 81.0666 6.69147 81.0964 6.80892C81.1261 6.92637 81.1877 7.0336 81.2746 7.11912L84.0657 9.78579L83.3899 13.5725C83.3658 13.6974 83.3784 13.8266 83.4263 13.9448C83.4742 14.0629 83.5554 14.165 83.6602 14.2391C83.7624 14.3112 83.883 14.3537 84.0083 14.362C84.1337 14.3702 84.2589 14.3438 84.3698 14.2858L87.83 12.5058L91.2767 14.2925C91.3715 14.3452 91.4787 14.3728 91.5876 14.3725C91.7307 14.373 91.8703 14.3286 91.9863 14.2458C92.0911 14.1717 92.1723 14.0696 92.2202 13.9514C92.2681 13.8333 92.2807 13.7041 92.2566 13.5791L91.5808 9.79245L94.3719 7.12579C94.4695 7.04424 94.5416 6.93706 94.5799 6.81669C94.6182 6.69632 94.6211 6.5677 94.5882 6.44579ZM90.4319 9.11245C90.3527 9.18808 90.2934 9.28168 90.2592 9.3851C90.225 9.48852 90.2171 9.59862 90.2359 9.70579L90.7225 12.4991L88.1814 11.1658C88.0837 11.1144 87.9746 11.0876 87.8638 11.0876C87.753 11.0876 87.644 11.1144 87.5462 11.1658L85.0051 12.4991L85.4917 9.70579C85.5106 9.59862 85.5026 9.48852 85.4684 9.3851C85.4343 9.28168 85.375 9.18808 85.2957 9.11245L83.2683 7.11245L86.1135 6.70579C86.2229 6.69076 86.327 6.64948 86.4166 6.58556C86.5061 6.52163 86.5784 6.43701 86.6271 6.33912L87.83 3.79912L89.1006 6.34579C89.1492 6.44368 89.2215 6.5283 89.3111 6.59222C89.4006 6.65615 89.5047 6.69743 89.6142 6.71245L92.4594 7.11912L90.4319 9.11245Z" fill="#76B42E"/>
<path d="M15.3193 6.63329L15.3154 6.65221L15.2598 6.70571L12.489 9.37238L12.2967 9.55744L12.3434 9.82019L13.0187 13.6174C13.0354 13.7202 12.9785 13.8025 12.9053 13.8326H12.9053H12.9051H12.9049H12.9047H12.9045H12.9043H12.9041H12.9039H12.9037H12.9035H12.9033H12.9031H12.9029H12.9027H12.9025H12.9023H12.9021H12.9019H12.9017H12.9015H12.9013H12.9011H12.9009H12.9007H12.9005H12.9003H12.9001H12.8999H12.8997H12.8995H12.8993H12.8991H12.8989H12.8987H12.8985H12.8983H12.8981H12.8979H12.8977H12.8975H12.8973H12.8971H12.8969H12.8967H12.8965H12.8963H12.8961H12.8959H12.8957H12.8955H12.8953H12.8951H12.8949H12.8947H12.8945H12.8943H12.8941H12.8939H12.8937H12.8935H12.8933H12.893H12.8928H12.8926H12.8924H12.8922H12.892H12.8918H12.8916H12.8914H12.8912H12.891H12.8908H12.8906H12.8903H12.8901H12.8899H12.8897H12.8895H12.8893H12.8891H12.8889H12.8886H12.8884H12.8882H12.888H12.8878H12.8876H12.8874H12.8871H12.8869H12.8867H12.8865H12.8863H12.886H12.8858H12.8856H12.8854H12.8852H12.8849H12.8847H12.8845H12.8843H12.8841H12.8838H12.8836H12.8834H12.8832H12.8829H12.8827H12.8825H12.8822H12.882H12.8818H12.8816H12.8813H12.8811H12.8809H12.8806H12.8804H12.8802H12.8799H12.8797H12.8794H12.8792H12.879H12.8787H12.8785H12.8783H12.878H12.8778H12.8775H12.8773H12.877H12.8768H12.8766H12.8763H12.8761H12.8758H12.8756H12.8753H12.8751H12.8748H12.8746H12.8743H12.8741H12.8738H12.8736H12.8733H12.8731H12.8728H12.8725H12.8723H12.872H12.8718H12.8715H12.8712H12.871H12.8707H12.8704H12.8702H12.8699H12.8696H12.8694H12.8691H12.8688H12.8686H12.8683H12.868H12.8677H12.8675H12.8672H12.8669H12.8666H12.8664H12.8661H12.8658H12.8655H12.8652H12.865H12.8647H12.8644H12.8641H12.8638H12.8635H12.8632H12.8629H12.8626H12.8624H12.8621H12.8618H12.8615H12.8612H12.8609H12.8606H12.8603H12.86H12.8597H12.8594H12.8591H12.8588H12.8584H12.8581H12.8578H12.8575H12.8572H12.8569H12.8566H12.8563H12.8559H12.8556H12.8553H12.855H12.8547H12.8543H12.854H12.8537H12.8534H12.853H12.8527H12.8524H12.852H12.8517H12.8514H12.851H12.8507H12.8504H12.85H12.8497H12.8493H12.849H12.8486H12.8483H12.848H12.8476H12.8473H12.8469H12.8466H12.8462H12.8458H12.8455H12.8451H12.8448H12.8444H12.844H12.8437H12.8433H12.8429H12.8426H12.8422H12.8418H12.8415H12.8411H12.8407H12.8403H12.84H12.8396H12.8392H12.8388H12.8384H12.838H12.8377H12.8373H12.8369H12.8365H12.8361H12.8357C12.8004 13.8326 12.7747 13.8326 12.7513 13.8319C12.7496 13.8318 12.7479 13.8317 12.7463 13.8317L12.7292 13.8228L9.28259 12.0228L9.05113 11.9019L8.81967 12.0228L5.37301 13.8228L5.36123 13.8289L5.34979 13.8357C5.30445 13.8625 5.26281 13.8651 5.2226 13.8532C5.18351 13.8416 5.13752 13.813 5.09971 13.7608C5.0982 13.7552 5.09662 13.7475 5.09522 13.7365C5.09226 13.7131 5.0912 13.6867 5.09087 13.6427L5.75883 9.88686L5.80556 9.62411L5.61327 9.43905L2.84523 6.77507C2.80288 6.73257 2.79297 6.69327 2.79297 6.66597C2.79297 6.63834 2.80314 6.59838 2.84685 6.55526L2.90357 6.49931H2.93565L2.96977 6.49458L6.82192 5.96125L7.08601 5.92469L7.20282 5.68503L8.87982 2.24409C8.91843 2.18795 8.96652 2.15745 9.00716 2.14542C9.04737 2.13352 9.08902 2.13609 9.13436 2.16292L9.15076 2.17263L9.16786 2.18106C9.18354 2.1888 9.19284 2.1942 9.19778 2.19731C9.20081 2.20205 9.20599 2.21079 9.21338 2.22536L10.9705 5.69203L11.0888 5.92537L11.3479 5.96125L15.2001 6.49458L15.2342 6.49931H15.2534C15.2604 6.50431 15.2719 6.5145 15.2844 6.53194C15.2995 6.55298 15.3103 6.57694 15.3158 6.59884C15.3213 6.62073 15.3195 6.6323 15.3193 6.63329Z" fill="#76B42E" stroke="#76B42E"/>
</svg>
