<svg width="18" height="18" viewBox="0 0 18 18" fill="none" xmlns="http://www.w3.org/2000/svg">
<path d="M2.72852 18V0.499999H9.92852C12.2285 0.499999 14.0369 0.999999 15.3535 2C16.6868 2.98333 17.3535 4.44167 17.3535 6.375C17.3535 8.29167 16.6868 9.75 15.3535 10.75C14.0369 11.7333 12.2285 12.225 9.92852 12.225H4.52852L5.97852 10.725V18H2.72852ZM5.97852 11.075L4.52852 9.6H9.90352C11.2368 9.6 12.2618 9.325 12.9785 8.775C13.7118 8.20833 14.0785 7.41667 14.0785 6.4C14.0785 5.38333 13.7118 4.60833 12.9785 4.075C12.2618 3.525 11.2368 3.25 9.90352 3.25H4.52852L5.97852 1.65V11.075ZM0.228516 15.4V13.65H11.4785V15.4H0.228516Z" fill="#3D3D3D"/>
</svg>
