<svg width="244" height="204" viewBox="0 0 244 204" fill="none" xmlns="http://www.w3.org/2000/svg">
<path d="M241.859 78.0137C241.772 78.0138 241.687 77.9888 241.615 77.9423L123.228 1.15305C122.868 0.920451 122.44 0.796147 122.002 0.796844C121.563 0.79754 121.136 0.923201 120.776 1.15694L3.24237 77.9415C3.14941 78.0022 3.03435 78.0261 2.92251 78.0078C2.81067 77.9895 2.7112 77.9306 2.64599 77.844C2.58078 77.7574 2.55518 77.6503 2.57481 77.5461C2.59444 77.4419 2.65769 77.3493 2.75066 77.2886L120.285 0.504007C120.788 0.176821 121.387 0.000943151 122 3.78261e-06C122.614 -0.000935586 123.213 0.173107 123.718 0.49875L242.104 77.2878C242.179 77.3363 242.235 77.4058 242.265 77.4862C242.294 77.5665 242.295 77.6535 242.268 77.7345C242.241 77.8155 242.186 77.8863 242.113 77.9365C242.039 77.9867 241.95 78.0138 241.859 78.0137L241.859 78.0137Z" fill="#3F3D56"/>
<path d="M9.95862 80.7357L122.118 3.31671L235.129 86.2444L127.897 145.45L69.6795 133.091L9.95862 80.7357Z" fill="#E6E6E6"/>
<path d="M74.5936 182.019H19.1841C18.8438 182.019 18.5069 181.957 18.1924 181.836C17.8779 181.715 17.5922 181.538 17.3514 181.314C17.1107 181.09 16.9197 180.824 16.7894 180.531C16.6591 180.238 16.592 179.925 16.592 179.608C16.592 179.291 16.6591 178.977 16.7894 178.684C16.9197 178.392 17.1107 178.126 17.3514 177.902C17.5922 177.678 17.8779 177.5 18.1924 177.379C18.5069 177.258 18.8438 177.196 19.1841 177.197H74.5936C74.9338 177.196 75.2708 177.258 75.5853 177.379C75.8997 177.5 76.1855 177.678 76.4262 177.902C76.667 178.126 76.858 178.392 76.9883 178.684C77.1186 178.977 77.1856 179.291 77.1856 179.608C77.1856 179.925 77.1186 180.238 76.9883 180.531C76.858 180.824 76.667 181.09 76.4262 181.314C76.1855 181.538 75.8997 181.715 75.5853 181.836C75.2708 181.957 74.9338 182.019 74.5936 182.019V182.019Z" fill="#85CB33"/>
<path d="M39.0638 171.653H19.1841C18.8438 171.653 18.5069 171.591 18.1924 171.47C17.8779 171.349 17.5922 171.172 17.3514 170.948C17.1107 170.724 16.9197 170.458 16.7894 170.165C16.6591 169.872 16.592 169.559 16.592 169.242C16.592 168.925 16.6591 168.611 16.7894 168.318C16.9197 168.026 17.1107 167.76 17.3514 167.536C17.5922 167.312 17.8779 167.134 18.1924 167.013C18.5069 166.892 18.8438 166.83 19.1841 166.831H39.0638C39.404 166.83 39.741 166.892 40.0555 167.013C40.3699 167.134 40.6557 167.312 40.8964 167.536C41.1371 167.76 41.3281 168.026 41.4584 168.318C41.5887 168.611 41.6558 168.925 41.6558 169.242C41.6558 169.559 41.5887 169.872 41.4584 170.165C41.3281 170.458 41.1371 170.724 40.8964 170.948C40.6557 171.172 40.3699 171.349 40.0555 171.47C39.741 171.591 39.404 171.653 39.0638 171.653Z" fill="#85CB33"/>
<path d="M123.695 123.857C123.274 123.857 122.857 123.781 122.467 123.633L53.2948 96.9012V13.2264C53.2957 12.4865 53.6117 11.7771 54.1735 11.2539C54.7352 10.7308 55.4969 10.4364 56.2913 10.4356H188.993C189.787 10.4364 190.549 10.7308 191.111 11.2539C191.673 11.7771 191.989 12.4865 191.99 13.2264V96.9596L191.86 97.0114L124.961 123.62C124.56 123.777 124.13 123.857 123.695 123.857Z" fill="white"/>
<path d="M123.695 124.056C123.246 124.057 122.801 123.976 122.386 123.818L53.0808 97.0344V13.2264C53.0818 12.4336 53.4203 11.6736 54.0222 11.113C54.6241 10.5525 55.4401 10.2371 56.2913 10.2362H188.993C189.844 10.2371 190.66 10.5525 191.262 11.113C191.864 11.6736 192.203 12.4336 192.204 13.2264V97.0912L125.045 123.803C124.618 123.971 124.159 124.057 123.695 124.056V124.056ZM53.9369 96.5018L122.712 123.08C123.353 123.323 124.072 123.319 124.71 123.069L191.347 96.5648V13.2264C191.347 12.6451 191.098 12.0877 190.657 11.6766C190.216 11.2656 189.617 11.0343 188.993 11.0336H56.2914C55.6672 11.0343 55.0687 11.2656 54.6274 11.6766C54.186 12.0877 53.9377 12.6451 53.937 13.2264L53.9369 96.5018Z" fill="#3F3D56"/>
<path d="M241.004 77.2164H240.918L191.775 96.7602L124.539 123.5C124.276 123.603 123.994 123.657 123.709 123.658C123.424 123.66 123.141 123.609 122.877 123.508L53.5088 96.7044L3.15911 77.2483L3.08219 77.2164H2.99649C2.20204 77.2172 1.44038 77.5115 0.878623 78.0347C0.316863 78.5579 0.000881504 79.2673 0 80.0072V201.209C0.000882635 201.949 0.316863 202.658 0.878623 203.182C1.44038 203.705 2.20204 203.999 2.99649 204H241.004C241.798 203.999 242.56 203.705 243.121 203.182C243.683 202.658 243.999 201.949 244 201.209V80.0072C243.999 79.2673 243.683 78.5579 243.121 78.0347C242.56 77.5115 241.798 77.2172 241.004 77.2164V77.2164ZM243.144 201.209C243.144 201.738 242.918 202.245 242.517 202.619C242.115 202.992 241.571 203.202 241.004 203.203H2.99649C2.4289 203.202 1.88463 202.992 1.48329 202.619C1.08194 202.245 0.856367 201.738 0.85614 201.209V80.0072C0.856917 79.4917 1.07161 78.9964 1.45534 78.6249C1.83908 78.2534 2.36213 78.0344 2.91518 78.0138L53.5088 97.5655L122.548 124.246C123.295 124.529 124.133 124.525 124.877 124.234L191.775 97.6253L241.089 78.0138C241.641 78.036 242.163 78.2555 242.546 78.6268C242.928 78.9981 243.143 79.4925 243.144 80.0072V201.209Z" fill="#3F3D56"/>
<path d="M123.004 100.13C120.45 100.134 117.964 99.3653 115.921 97.9387L115.794 97.8502L89.1209 78.8296C87.8856 77.9481 86.8488 76.8486 86.0697 75.5938C85.2907 74.3391 84.7846 72.9538 84.5804 71.5169C84.3762 70.08 84.4778 68.6198 84.8795 67.2195C85.2813 65.8192 85.9752 64.5063 86.9217 63.3558C87.8681 62.2052 89.0487 61.2396 90.3959 60.514C91.743 59.7884 93.2305 59.3171 94.7732 59.1269C96.316 58.9367 97.8839 59.0313 99.3873 59.4055C100.891 59.7796 102.3 60.4259 103.536 61.3075L120.813 73.646L161.641 24.0542C162.588 22.904 163.769 21.9387 165.117 21.2136C166.464 20.4884 167.952 20.0175 169.494 19.8279C171.037 19.6382 172.605 19.7334 174.108 20.1081C175.612 20.4827 177.021 21.1295 178.256 22.0115L178.002 22.3325L178.263 22.0162C180.754 23.7994 182.384 26.43 182.795 29.3311C183.206 32.2321 182.365 35.1666 180.456 37.4908L132.432 95.8226C131.321 97.1668 129.893 98.2546 128.258 99.0016C126.623 99.7486 124.825 100.135 123.004 100.13V100.13Z" fill="#85CB33"/>
</svg>
