<svg width="235" height="235" viewBox="0 0 235 235" fill="none" xmlns="http://www.w3.org/2000/svg">
<rect x="0.5" y="0.5" width="234" height="234" rx="11.5" stroke="black" stroke-opacity="0.33"/>
<path d="M132.542 91.8946H129.608L128.875 89.6029C128.4 88.2582 127.518 87.0947 126.352 86.2735C125.185 85.4523 123.793 85.0141 122.367 85.0196H110.633C109.193 85.0223 107.79 85.4772 106.622 86.3201C105.455 87.163 104.581 88.3514 104.125 89.7175L103.392 92.0092H100.458C98.6349 92.0092 96.8862 92.7335 95.5969 94.0228C94.3076 95.3121 93.5833 97.0608 93.5833 98.8842V117.217C93.5833 119.041 94.3076 120.79 95.5969 122.079C96.8862 123.368 98.6349 124.092 100.458 124.092H132.542C134.365 124.092 136.114 123.368 137.403 122.079C138.692 120.79 139.417 119.041 139.417 117.217V98.8842C139.432 97.9717 139.265 97.0654 138.927 96.218C138.588 95.3706 138.084 94.5992 137.444 93.9486C136.804 93.298 136.041 92.7813 135.199 92.4287C134.358 92.076 133.454 91.8945 132.542 91.8946ZM134.833 117.103C134.833 117.711 134.592 118.294 134.162 118.723C133.732 119.153 133.149 119.395 132.542 119.395H100.458C99.8505 119.395 99.2676 119.153 98.8378 118.723C98.408 118.294 98.1666 117.711 98.1666 117.103V98.7696C98.1666 98.1618 98.408 97.5789 98.8378 97.1491C99.2676 96.7194 99.8505 96.4779 100.458 96.4779H105.042C105.541 96.504 106.036 96.3658 106.45 96.0844C106.863 95.803 107.174 95.3939 107.333 94.9196L108.571 91.1612C108.724 90.7061 109.017 90.3107 109.408 90.0311C109.799 89.7515 110.267 89.6017 110.748 89.6029H122.481C122.962 89.6017 123.43 89.7515 123.821 90.0311C124.212 90.3107 124.505 90.7061 124.658 91.1612L125.896 94.9196C126.043 95.3567 126.318 95.7393 126.686 96.0173C127.054 96.2953 127.498 96.4559 127.958 96.4779H132.542C133.149 96.4779 133.732 96.7194 134.162 97.1491C134.592 97.5789 134.833 98.1618 134.833 98.7696V117.103ZM116.5 96.4779C114.687 96.4779 112.915 97.0155 111.407 98.0228C109.9 99.03 108.725 100.462 108.031 102.137C107.337 103.812 107.156 105.655 107.509 107.433C107.863 109.211 108.736 110.844 110.018 112.126C111.3 113.408 112.933 114.281 114.712 114.635C116.49 114.989 118.333 114.807 120.008 114.113C121.683 113.42 123.114 112.245 124.122 110.737C125.129 109.23 125.667 107.458 125.667 105.645C125.667 103.213 124.701 100.882 122.982 99.1628C121.263 97.4437 118.931 96.4779 116.5 96.4779V96.4779ZM116.5 110.228C115.593 110.228 114.707 109.959 113.954 109.455C113.2 108.952 112.612 108.236 112.265 107.399C111.919 106.561 111.828 105.639 112.005 104.75C112.182 103.861 112.618 103.045 113.259 102.404C113.9 101.763 114.717 101.326 115.606 101.149C116.495 100.972 117.416 101.063 118.254 101.41C119.091 101.757 119.807 102.344 120.311 103.098C120.814 103.852 121.083 104.738 121.083 105.645C121.083 106.86 120.6 108.026 119.741 108.885C118.881 109.745 117.715 110.228 116.5 110.228Z" fill="#A7A7A7"/>
<path d="M41.015 151.48L41.715 150C42.3283 150.48 43.0017 150.84 43.735 151.08C44.4817 151.32 45.2217 151.447 45.955 151.46C46.6883 151.46 47.3617 151.36 47.975 151.16C48.6017 150.96 49.1017 150.66 49.475 150.26C49.8483 149.86 50.035 149.367 50.035 148.78C50.035 148.06 49.7417 147.513 49.155 147.14C48.5817 146.767 47.7817 146.58 46.755 146.58H43.635V144.96H46.615C47.5083 144.96 48.2017 144.78 48.695 144.42C49.2017 144.047 49.455 143.533 49.455 142.88C49.455 142.387 49.3017 141.973 48.995 141.64C48.7017 141.293 48.295 141.033 47.775 140.86C47.2683 140.687 46.6883 140.6 46.035 140.6C45.395 140.587 44.735 140.673 44.055 140.86C43.375 141.033 42.7217 141.313 42.095 141.7L41.455 140.06C42.3083 139.58 43.195 139.247 44.115 139.06C45.0483 138.86 45.9483 138.8 46.815 138.88C47.6817 138.947 48.4617 139.147 49.155 139.48C49.8617 139.8 50.4217 140.227 50.835 140.76C51.2617 141.28 51.475 141.907 51.475 142.64C51.475 143.307 51.3017 143.9 50.955 144.42C50.6083 144.927 50.1283 145.32 49.515 145.6C48.9017 145.867 48.1883 146 47.375 146L47.455 145.46C48.3883 145.46 49.195 145.613 49.875 145.92C50.5683 146.213 51.1017 146.633 51.475 147.18C51.8617 147.727 52.055 148.36 52.055 149.08C52.055 149.76 51.8817 150.367 51.535 150.9C51.1883 151.42 50.715 151.86 50.115 152.22C49.5283 152.567 48.855 152.82 48.095 152.98C47.3483 153.14 46.5617 153.193 45.735 153.14C44.9083 153.087 44.0883 152.927 43.275 152.66C42.475 152.393 41.7217 152 41.015 151.48ZM61.567 153V150.76L61.467 150.34V146.52C61.467 145.707 61.227 145.08 60.747 144.64C60.2804 144.187 59.5737 143.96 58.627 143.96C58.0004 143.96 57.387 144.067 56.787 144.28C56.187 144.48 55.6804 144.753 55.267 145.1L54.467 143.66C55.0137 143.22 55.667 142.887 56.427 142.66C57.2004 142.42 58.007 142.3 58.847 142.3C60.3004 142.3 61.4204 142.653 62.207 143.36C62.9937 144.067 63.387 145.147 63.387 146.6V153H61.567ZM58.087 153.12C57.3004 153.12 56.607 152.987 56.007 152.72C55.4204 152.453 54.967 152.087 54.647 151.62C54.327 151.14 54.167 150.6 54.167 150C54.167 149.427 54.3004 148.907 54.567 148.44C54.847 147.973 55.2937 147.6 55.907 147.32C56.5337 147.04 57.3737 146.9 58.427 146.9H61.787V148.28H58.507C57.547 148.28 56.9004 148.44 56.567 148.76C56.2337 149.08 56.067 149.467 56.067 149.92C56.067 150.44 56.2737 150.86 56.687 151.18C57.1004 151.487 57.6737 151.64 58.407 151.64C59.127 151.64 59.7537 151.48 60.287 151.16C60.8337 150.84 61.227 150.373 61.467 149.76L61.847 151.08C61.5937 151.707 61.147 152.207 60.507 152.58C59.867 152.94 59.0604 153.12 58.087 153.12ZM66.8444 153V142.4H74.6444V144.08H68.3044L68.7644 143.64V153H66.8444ZM82.23 153.12C81.35 153.12 80.5433 152.92 79.81 152.52C79.09 152.107 78.51 151.5 78.07 150.7C77.6433 149.9 77.43 148.9 77.43 147.7C77.43 146.5 77.6367 145.5 78.05 144.7C78.4767 143.9 79.05 143.3 79.77 142.9C80.5033 142.5 81.3233 142.3 82.23 142.3C83.27 142.3 84.19 142.527 84.99 142.98C85.79 143.433 86.4233 144.067 86.89 144.88C87.3567 145.68 87.59 146.62 87.59 147.7C87.59 148.78 87.3567 149.727 86.89 150.54C86.4233 151.353 85.79 151.987 84.99 152.44C84.19 152.893 83.27 153.12 82.23 153.12ZM76.61 156.88V142.4H78.45V145.26L78.33 147.72L78.53 150.18V156.88H76.61ZM82.07 151.44C82.75 151.44 83.3567 151.287 83.89 150.98C84.4367 150.673 84.8633 150.24 85.17 149.68C85.49 149.107 85.65 148.447 85.65 147.7C85.65 146.94 85.49 146.287 85.17 145.74C84.8633 145.18 84.4367 144.747 83.89 144.44C83.3567 144.133 82.75 143.98 82.07 143.98C81.4033 143.98 80.7967 144.133 80.25 144.44C79.7167 144.747 79.29 145.18 78.97 145.74C78.6633 146.287 78.51 146.94 78.51 147.7C78.51 148.447 78.6633 149.107 78.97 149.68C79.29 150.24 79.7167 150.673 80.25 150.98C80.7967 151.287 81.4033 151.44 82.07 151.44ZM90.6266 157C90.1199 157 89.6266 156.913 89.1466 156.74C88.6666 156.58 88.2532 156.34 87.9066 156.02L88.7266 154.58C88.9932 154.833 89.2866 155.027 89.6066 155.16C89.9266 155.293 90.2666 155.36 90.6266 155.36C91.0932 155.36 91.4799 155.24 91.7866 155C92.0932 154.76 92.3799 154.333 92.6466 153.72L93.3066 152.26L93.5066 152.02L97.6666 142.4H99.5466L94.4066 154.06C94.0999 154.807 93.7532 155.393 93.3666 155.82C92.9932 156.247 92.5799 156.547 92.1266 156.72C91.6732 156.907 91.1732 157 90.6266 157ZM93.1466 153.34L88.3066 142.4H90.3066L94.4266 151.84L93.1466 153.34ZM104.358 153.14C105.292 153.14 106.118 153.007 106.838 152.74C107.572 152.46 108.152 152.08 108.578 151.6C109.005 151.107 109.218 150.54 109.218 149.9C109.218 149.1 108.878 148.467 108.198 148C107.518 147.533 106.585 147.3 105.398 147.3L105.318 147.76C106.012 147.76 106.625 147.647 107.158 147.42C107.692 147.193 108.118 146.887 108.438 146.5C108.758 146.1 108.918 145.647 108.918 145.14C108.918 144.54 108.705 144.02 108.278 143.58C107.865 143.14 107.298 142.807 106.578 142.58C105.858 142.34 105.038 142.233 104.118 142.26C103.505 142.273 102.885 142.367 102.258 142.54C101.645 142.7 101.018 142.933 100.378 143.24L100.898 144.74C101.472 144.46 102.032 144.253 102.578 144.12C103.138 143.987 103.685 143.913 104.218 143.9C104.765 143.9 105.238 143.96 105.638 144.08C106.052 144.2 106.372 144.373 106.598 144.6C106.825 144.827 106.938 145.1 106.938 145.42C106.938 145.713 106.838 145.973 106.638 146.2C106.452 146.413 106.185 146.573 105.838 146.68C105.492 146.787 105.085 146.84 104.618 146.84H102.818V148.22H104.738C105.525 148.22 106.138 148.353 106.578 148.62C107.018 148.887 107.238 149.267 107.238 149.76C107.238 150.107 107.118 150.413 106.878 150.68C106.638 150.933 106.292 151.133 105.838 151.28C105.398 151.427 104.872 151.5 104.258 151.5C103.592 151.5 102.932 151.413 102.278 151.24C101.625 151.053 101.045 150.8 100.538 150.48L99.9584 151.94C100.558 152.327 101.238 152.627 101.998 152.84C102.772 153.04 103.558 153.14 104.358 153.14ZM112.137 153V142.4H114.057V150.12L120.557 142.4H122.297V153H120.377V145.28L113.897 153H112.137ZM128.124 153V143.58L128.604 144.08H124.244V142.4H133.924V144.08H129.584L130.044 143.58V153H128.124ZM140.787 146C142.134 146.013 143.161 146.32 143.867 146.92C144.574 147.52 144.927 148.367 144.927 149.46C144.927 150.607 144.541 151.493 143.767 152.12C142.994 152.733 141.901 153.033 140.487 153.02L135.887 153V142.4H137.807V145.98L140.787 146ZM140.327 151.56C141.194 151.573 141.847 151.4 142.287 151.04C142.741 150.68 142.967 150.147 142.967 149.44C142.967 148.747 142.747 148.24 142.307 147.92C141.867 147.6 141.207 147.433 140.327 147.42L137.807 147.38V151.54L140.327 151.56ZM159.082 153.16C159.069 153.16 159.022 153.16 158.942 153.16C158.876 153.16 158.809 153.16 158.742 153.16C158.676 153.16 158.636 153.16 158.622 153.16C156.449 153.133 154.762 152.653 153.562 151.72C152.362 150.773 151.762 149.427 151.762 147.68C151.762 145.947 152.362 144.62 153.562 143.7C154.776 142.767 156.482 142.293 158.682 142.28C158.709 142.28 158.749 142.28 158.802 142.28C158.869 142.28 158.929 142.28 158.982 142.28C159.049 142.28 159.089 142.28 159.102 142.28C161.329 142.28 163.056 142.747 164.282 143.68C165.522 144.613 166.142 145.947 166.142 147.68C166.142 149.44 165.522 150.793 164.282 151.74C163.042 152.687 161.309 153.16 159.082 153.16ZM159.042 151.48C160.202 151.48 161.162 151.333 161.922 151.04C162.696 150.747 163.276 150.32 163.662 149.76C164.049 149.2 164.242 148.507 164.242 147.68C164.242 146.867 164.049 146.187 163.662 145.64C163.276 145.093 162.696 144.68 161.922 144.4C161.162 144.12 160.202 143.98 159.042 143.98C159.016 143.98 158.962 143.98 158.882 143.98C158.802 143.98 158.756 143.98 158.742 143.98C157.609 143.98 156.662 144.127 155.902 144.42C155.156 144.7 154.596 145.113 154.222 145.66C153.849 146.207 153.662 146.88 153.662 147.68C153.662 148.493 153.849 149.18 154.222 149.74C154.609 150.3 155.176 150.727 155.922 151.02C156.682 151.313 157.622 151.467 158.742 151.48C158.769 151.48 158.816 151.48 158.882 151.48C158.962 151.48 159.016 151.48 159.042 151.48ZM158.002 156.88V138.16H159.882V156.88H158.002ZM173.396 153.12C172.329 153.12 171.383 152.887 170.556 152.42C169.729 151.953 169.076 151.313 168.596 150.5C168.116 149.673 167.876 148.74 167.876 147.7C167.876 146.647 168.116 145.713 168.596 144.9C169.076 144.087 169.729 143.453 170.556 143C171.383 142.533 172.329 142.3 173.396 142.3C174.449 142.3 175.389 142.533 176.216 143C177.056 143.453 177.709 144.087 178.176 144.9C178.656 145.7 178.896 146.633 178.896 147.7C178.896 148.753 178.656 149.687 178.176 150.5C177.709 151.313 177.056 151.953 176.216 152.42C175.389 152.887 174.449 153.12 173.396 153.12ZM173.396 151.44C174.076 151.44 174.683 151.287 175.216 150.98C175.763 150.673 176.189 150.24 176.496 149.68C176.803 149.107 176.956 148.447 176.956 147.7C176.956 146.94 176.803 146.287 176.496 145.74C176.189 145.18 175.763 144.747 175.216 144.44C174.683 144.133 174.076 143.98 173.396 143.98C172.716 143.98 172.109 144.133 171.576 144.44C171.043 144.747 170.616 145.18 170.296 145.74C169.976 146.287 169.816 146.94 169.816 147.7C169.816 148.447 169.976 149.107 170.296 149.68C170.616 150.24 171.043 150.673 171.576 150.98C172.109 151.287 172.716 151.44 173.396 151.44ZM183.378 153V143.58L183.858 144.08H179.498V142.4H189.178V144.08H184.838L185.298 143.58V153H183.378ZM195.213 153.12C194.146 153.12 193.199 152.887 192.373 152.42C191.546 151.953 190.893 151.313 190.413 150.5C189.933 149.673 189.693 148.74 189.693 147.7C189.693 146.647 189.933 145.713 190.413 144.9C190.893 144.087 191.546 143.453 192.373 143C193.199 142.533 194.146 142.3 195.213 142.3C196.266 142.3 197.206 142.533 198.033 143C198.873 143.453 199.526 144.087 199.993 144.9C200.473 145.7 200.713 146.633 200.713 147.7C200.713 148.753 200.473 149.687 199.993 150.5C199.526 151.313 198.873 151.953 198.033 152.42C197.206 152.887 196.266 153.12 195.213 153.12ZM195.213 151.44C195.893 151.44 196.499 151.287 197.033 150.98C197.579 150.673 198.006 150.24 198.313 149.68C198.619 149.107 198.773 148.447 198.773 147.7C198.773 146.94 198.619 146.287 198.313 145.74C198.006 145.18 197.579 144.747 197.033 144.44C196.499 144.133 195.893 143.98 195.213 143.98C194.533 143.98 193.926 144.133 193.393 144.44C192.859 144.747 192.433 145.18 192.113 145.74C191.793 146.287 191.633 146.94 191.633 147.7C191.633 148.447 191.793 149.107 192.113 149.68C192.433 150.24 192.859 150.673 193.393 150.98C193.926 151.287 194.533 151.44 195.213 151.44Z" fill="black" fill-opacity="0.33"/>
</svg>