<svg width="701" height="798" viewBox="0 0 701 798" fill="none" xmlns="http://www.w3.org/2000/svg">
<g clip-path="url(#clip0_259_471)">
<path d="M364.595 752.153L365.489 732.038C365.582 731.988 365.674 731.939 365.768 731.89C375.341 726.86 386.312 735.965 383.254 746.349C380.377 756.12 378.444 766.652 373.178 775.204C370.067 780.173 365.879 784.374 360.925 787.498C355.972 790.622 350.38 792.595 344.562 793.257L332.4 800.718C330.731 791.398 331.099 781.837 333.478 772.675C335.857 763.513 340.192 754.976 346.183 747.656C349.584 743.583 353.484 739.954 357.791 736.855C360.704 744.547 364.595 752.153 364.595 752.153Z" fill="#F2F2F2"/>
<path d="M473.486 548.018C496.902 523.836 530.834 509.968 566.582 509.968L567.962 509.972C591.508 509.981 614.635 503.727 634.976 491.85L637.093 490.615L635.388 488.856C626.158 479.294 618.452 468.367 612.537 456.46C616.738 460.381 621.748 463.33 627.212 465.098C632.676 466.865 638.462 467.409 644.159 466.689C650.174 465.971 655.948 463.898 661.049 460.627C666.15 457.356 670.445 452.97 673.612 447.798C686.106 427.498 701 398.694 701 376.75C700.98 358.203 697.102 339.862 689.612 322.898C682.122 305.934 671.185 290.719 657.498 278.223C648.832 270.399 641.911 260.834 637.185 250.151C632.458 239.469 630.034 227.91 630.068 216.226L630.075 214.563C630.077 199.181 628.2 183.856 624.485 168.93L624.108 167.423L622.559 167.477C612.573 167.817 602.581 166.979 592.79 164.98C601.974 163.852 610.958 161.459 619.488 157.869L621.154 157.195L620.589 155.485C581.614 131.321 493.638 143.834 442.575 26.8436C401.169 -68.0199 255.075 111.054 255.075 214.563C255.075 225.125 265.514 239.082 257.7 246.063C173.228 321.526 231.512 369.984 249.888 418.745C254.248 430.314 244.794 443.015 244.794 455.531C244.794 457.654 244.848 459.847 244.955 462.046L245.118 465.428L247.935 463.552C253.506 459.897 258.671 455.655 263.34 450.898C258.496 462.061 256.213 474.17 256.66 486.333C257.106 498.496 260.269 510.405 265.919 521.181C274.771 537.912 283.335 549.89 291.373 556.78C317.122 578.844 350.316 590.226 384.166 588.598C418.017 586.969 449.969 572.454 473.486 548.018Z" fill="#85CB33"/>
<path d="M332.063 799.724C331.487 799.724 330.931 799.513 330.497 799.137C330.062 798.76 329.778 798.241 329.697 797.669C329.595 796.954 319.639 725.047 328.581 629.482C336.839 541.225 363.359 414.105 442.801 309.703C442.992 309.452 443.23 309.241 443.502 309.083C443.773 308.924 444.073 308.821 444.385 308.779C444.697 308.736 445.014 308.755 445.317 308.836C445.621 308.916 445.907 309.056 446.156 309.247C446.406 309.438 446.617 309.676 446.775 309.948C446.933 310.22 447.036 310.521 447.078 310.833C447.12 311.145 447.1 311.462 447.019 311.767C446.938 312.071 446.799 312.357 446.607 312.607C367.851 416.107 341.545 542.295 333.345 629.928C324.455 724.938 334.334 796.283 334.435 796.991C334.483 797.33 334.457 797.676 334.36 798.007C334.263 798.339 334.096 798.64 333.871 798.903C333.646 799.159 333.369 799.37 333.057 799.513C332.744 799.649 332.406 799.724 332.063 799.724Z" fill="#3F3D56"/>
<path d="M396.893 456.967C396.388 456.967 395.895 456.807 395.487 456.51C395.077 456.213 394.773 455.794 394.616 455.312C394.459 454.831 394.459 454.313 394.615 453.831C394.772 453.35 395.076 452.93 395.485 452.633C395.773 452.423 424.835 431.454 468.284 415.523C508.448 400.799 569.523 387.45 632.4 407.489C632.7 407.584 632.978 407.737 633.219 407.94C633.459 408.143 633.658 408.391 633.802 408.671C633.947 408.95 634.035 409.256 634.062 409.57C634.088 409.884 634.053 410.199 633.958 410.5C633.863 410.799 633.709 411.078 633.506 411.319C633.303 411.559 633.055 411.758 632.775 411.902C632.496 412.046 632.191 412.134 631.878 412.16C631.564 412.187 631.248 412.151 630.949 412.055C569.361 392.428 509.392 405.556 469.929 420.024C427.101 435.726 398.581 456.303 398.298 456.509C397.89 456.806 397.398 456.967 396.893 456.967Z" fill="#3F3D56"/>
<path d="M287.39 183.862C287.353 183.356 287.476 182.854 287.743 182.424C288.009 181.993 288.405 181.659 288.874 181.468C289.341 181.277 289.858 181.239 290.349 181.361C290.84 181.482 291.279 181.756 291.605 182.143C291.834 182.415 314.814 209.932 333.81 252.179C351.368 291.233 369.063 351.273 353.632 415.515C353.483 416.132 353.095 416.666 352.555 416.997C352.013 417.329 351.363 417.432 350.746 417.283C350.129 417.135 349.596 416.747 349.265 416.205C348.934 415.663 348.831 415.012 348.98 414.394C364.094 351.469 346.699 292.519 329.446 254.147C310.721 212.502 288.172 185.5 287.947 185.232C287.621 184.846 287.426 184.366 287.39 183.862Z" fill="#3F3D56"/>
<path d="M290.628 307.399C288.61 323.708 277.323 337.155 260.912 337.155C253.032 337.155 245.474 334.02 239.9 328.439C234.328 322.859 231.197 315.29 231.197 307.399C231.197 290.965 244.571 279.162 260.912 277.643C278.251 276.03 293.22 286.46 290.628 307.399Z" fill="#2F2E41"/>
<path d="M247.149 786.617H235.833L230.45 742.911L247.151 742.913L247.149 786.617Z" fill="#FFB6B6"/>
<path d="M247.547 798.437H212.749V798C212.749 794.402 214.176 790.954 216.716 788.409C219.256 785.864 222.701 784.434 226.293 784.434H226.294L232.65 779.608L244.509 784.434H247.548L247.547 798.437Z" fill="#2F2E41"/>
<path d="M291.722 786.617H280.407L275.024 742.911L291.724 742.913L291.722 786.617Z" fill="#FFB6B6"/>
<path d="M292.12 798.437H257.322V798C257.323 794.402 258.749 790.954 261.289 788.409C263.83 785.864 267.274 784.434 270.867 784.434H270.867L277.224 779.608L289.083 784.434H292.12V798.437Z" fill="#2F2E41"/>
<path d="M208.208 512.875L200.208 540.342L209.633 656.67C209.633 656.67 204.78 663.944 208.208 663.944C211.637 663.944 216.034 665.556 213.263 669.9C210.494 674.243 219.961 689.837 219.961 689.837L233.352 772.667L250.415 772.411C250.415 772.411 259.089 767.578 254.221 762.685C249.353 757.791 245.924 757.791 250.496 753.214C255.067 748.633 255.067 750.012 255.067 746.461C255.067 742.911 259.648 699.521 248.786 682.877L252.059 615.015L259.767 681.579L275.64 770.379L292.076 770.243C292.076 770.243 299.668 762.918 299.654 757.49C299.64 752.067 294.964 751.616 298.445 748.408C301.926 745.2 301.926 695.916 291.64 668.521C291.64 668.521 285.821 653.215 291.654 647.97C297.485 642.726 291.66 636.724 291.66 636.724C291.66 636.724 282.424 633.381 291.669 623.748C300.913 614.114 291.719 545.983 291.719 545.983C291.719 545.983 301.825 518.48 291.59 507.666C281.354 496.852 208.208 512.875 208.208 512.875Z" fill="#2F2E41"/>
<path d="M350.699 560.197L336.424 525.655L325.179 531.911L331.97 567.05C331.29 569.276 331.243 571.648 331.836 573.899C332.427 576.151 333.635 578.192 335.322 579.793C337.01 581.395 339.11 582.493 341.386 582.965C343.663 583.437 346.026 583.264 348.209 582.465C350.393 581.667 352.311 580.273 353.747 578.443C355.183 576.612 356.081 574.417 356.34 572.103C356.599 569.79 356.208 567.449 355.211 565.346C354.214 563.243 352.652 561.46 350.699 560.197Z" fill="#FFB6B6"/>
<path d="M111.176 287.048L132.895 317.454L142.433 308.809L127.867 276.125C128.026 273.802 127.534 271.482 126.449 269.423C125.362 267.365 123.724 265.651 121.718 264.474C119.713 263.296 117.419 262.703 115.095 262.76C112.77 262.816 110.508 263.521 108.562 264.794C106.616 266.068 105.063 267.86 104.078 269.969C103.093 272.078 102.716 274.42 102.987 276.732C103.259 279.044 104.169 281.235 105.616 283.057C107.063 284.879 108.988 286.261 111.176 287.048Z" fill="#FFB6B6"/>
<path d="M206.053 515.691C191.966 537.57 262.776 565.338 289.947 554.19C294.705 552.238 311.07 545.791 299.883 536.852C288.697 527.913 301.181 526.655 301.476 520.837C301.673 516.947 298.665 508.413 301.803 508.778C304.942 509.144 308.615 503.765 301.78 501.449C294.945 499.134 301.707 497.023 301.647 494.825C300.993 470.843 282.618 432.696 282.618 432.696L315.728 517.451C315.728 517.451 315.484 532.114 319.706 527.633C323.929 523.152 323.622 537.655 323.622 537.655C323.622 537.655 329.901 542.043 326.29 544.484C322.68 546.927 330.177 554.435 330.177 554.435L347.671 553.183C347.671 553.183 347.397 540.17 344.41 537.292C341.423 534.414 342.89 529.885 342.89 529.885C342.89 529.885 335.113 522.992 340.327 517.395C347.033 510.196 322.584 388.609 314.147 389.812C312.955 384 310.179 378.63 306.13 374.297C302.08 369.965 296.911 366.838 291.198 365.263L272.303 360.053L268.948 346.723H242.343L237.709 355.482L217.482 364.622C213.672 359.239 210.825 353.567 195.224 351.727C195.224 351.727 153.185 313.426 155.237 310.436C157.29 307.445 150.773 300.443 150.773 300.443C150.773 300.443 145.208 298.619 148.348 297.646C151.488 296.671 145.553 294.42 145.553 294.42C145.553 294.42 140.055 292.974 142.648 291.069C145.241 289.164 133.995 287.913 133.995 287.913L119.403 299.834L122.353 304.842C122.353 304.842 120.554 311.66 122.901 309.171C125.248 306.682 125.69 313.906 125.69 313.906C125.69 313.906 126.888 321.816 133.995 324.199C141.101 326.583 146.49 349.225 146.49 349.225C163.251 371.047 183.03 388.07 206.47 399.276C197.335 409.776 206.053 515.691 206.053 515.691Z" fill="#5DA271"/>
<path d="M257.628 338.922C243.075 338.922 231.277 327.109 231.277 312.535C231.277 297.963 243.075 286.149 257.628 286.149C272.181 286.149 283.978 297.963 283.978 312.535C283.978 327.109 272.181 338.922 257.628 338.922Z" fill="#FFB6B6"/>
<path d="M284.913 315.41C284.079 321.144 279.199 329.143 280.342 329.143C281.484 329.143 289.611 305.507 281.484 303.966C275.59 302.848 274.273 303.828 268.764 301.436L269.541 302.169C265.895 304.824 260.821 303.187 256.661 301.459C252.489 299.742 247.426 298.106 243.769 300.75C241.471 302.409 240.5 305.293 239.072 307.742C237.643 310.203 235.003 312.526 232.282 311.771C230.099 311.164 228.843 308.715 228.854 306.449C228.865 304.183 231.812 302.027 230.82 299.995C227.879 293.97 230.523 289.863 236.934 287.028C239.266 286.673 241.597 286.31 243.929 285.94C242.707 284.246 241.226 282.755 239.54 281.522C240.252 279.694 241.484 278.114 243.083 276.979C244.946 275.869 247.255 275.949 249.415 276.064C254.238 276.315 259.057 276.567 263.872 276.819C267.438 277.002 271.129 277.219 274.318 278.856C278.295 280.904 280.901 284.899 282.799 288.962C287.051 298.094 286.376 305.442 284.913 315.41Z" fill="#2F2E41"/>
<path d="M488.258 682.628C487.78 679.34 491.219 676.117 495.939 675.429C500.659 674.741 504.873 676.849 505.351 680.138C505.829 683.425 502.39 686.648 497.669 687.336C492.949 688.024 488.736 685.916 488.258 682.628Z" fill="#E6E6E6"/>
<path d="M432.06 677.137C431.582 673.848 435.021 670.626 439.742 669.938C444.461 669.25 448.675 671.358 449.153 674.646C449.631 677.934 446.191 681.157 441.471 681.845C436.752 682.532 432.537 680.424 432.06 677.137Z" fill="#3F3D56"/>
<path d="M503.647 637.069C503.169 633.781 506.608 630.558 511.328 629.87C516.048 629.182 520.262 631.29 520.74 634.579C521.217 637.866 517.778 641.09 513.058 641.777C508.338 642.465 504.124 640.357 503.647 637.069Z" fill="#FF6584"/>
<path d="M528.066 618.407C528.044 615.389 529.725 612.929 531.822 612.913C533.919 612.897 535.637 615.331 535.66 618.35C535.683 621.369 534.002 623.828 531.905 623.844C529.808 623.86 528.089 621.426 528.066 618.407Z" fill="#E6E6E6"/>
<path d="M536.347 583.648C536.324 580.63 538.006 578.17 540.103 578.154C542.2 578.138 543.918 580.572 543.941 583.591C543.964 586.609 542.282 589.069 540.185 589.085C538.089 589.101 536.369 586.667 536.347 583.648Z" fill="#3F3D56"/>
<path d="M471.95 644.821C471.927 641.803 473.609 639.343 475.706 639.327C477.803 639.311 479.521 641.745 479.544 644.764C479.567 647.782 477.885 650.243 475.788 650.258C473.691 650.274 471.973 647.84 471.95 644.821Z" fill="#E6E6E6"/>
<path d="M499.108 658.399C499.085 655.381 500.766 652.921 502.864 652.905C504.961 652.89 506.679 655.323 506.702 658.342C506.724 661.36 505.043 663.821 502.946 663.836C500.849 663.852 499.131 661.418 499.108 658.399Z" fill="#FF6584"/>
<path d="M461.304 683.495C461.281 680.476 462.963 678.017 465.06 678C467.157 677.984 468.875 680.419 468.898 683.437C468.921 686.456 467.239 688.916 465.142 688.932C463.046 688.948 461.327 686.513 461.304 683.495Z" fill="#3F3D56"/>
<path d="M56.2421 506.381C55.7643 503.093 59.2034 499.87 63.9236 499.182C68.6437 498.495 72.8574 500.603 73.3351 503.89C73.8129 507.179 70.3737 510.402 65.6536 511.09C60.9335 511.777 56.7198 509.669 56.2421 506.381Z" fill="#E6E6E6"/>
<path d="M0.0443201 500.889C-0.433426 497.602 3.00573 494.379 7.72587 493.691C12.446 493.004 16.6596 495.112 17.1373 498.399C17.6151 501.688 14.1761 504.91 9.45594 505.598C4.7358 506.286 0.522066 504.178 0.0443201 500.889Z" fill="#3F3D56"/>
<path d="M71.6317 460.822C71.154 457.534 74.5931 454.311 79.3136 453.623C84.0331 452.936 88.2474 455.044 88.7247 458.332C89.2021 461.62 85.7634 464.843 81.0431 465.531C76.3228 466.218 72.1095 464.11 71.6317 460.822Z" fill="#FF6584"/>
<path d="M96.0505 442.161C96.0272 439.142 97.7093 436.682 99.8063 436.667C101.903 436.651 103.621 439.085 103.644 442.104C103.667 445.122 101.985 447.582 99.8883 447.598C97.7914 447.613 96.0731 445.18 96.0505 442.161Z" fill="#E6E6E6"/>
<path d="M104.331 407.401C104.309 404.383 105.99 401.923 108.087 401.907C110.184 401.891 111.903 404.325 111.926 407.344C111.948 410.362 110.267 412.823 108.17 412.838C106.073 412.854 104.355 410.42 104.331 407.401Z" fill="#3F3D56"/>
<path d="M39.9348 468.575C39.912 465.556 41.5934 463.097 43.6905 463.081C45.7874 463.065 47.5058 465.499 47.5286 468.518C47.5515 471.536 45.87 473.996 43.773 474.012C41.676 474.028 39.9576 471.594 39.9348 468.575Z" fill="#E6E6E6"/>
<path d="M67.092 482.153C67.0692 479.134 68.7507 476.675 70.8478 476.658C72.9447 476.642 74.6631 479.077 74.686 482.095C74.7088 485.114 73.0273 487.574 70.9303 487.589C68.8333 487.605 67.1148 485.171 67.092 482.153Z" fill="#FF6584"/>
<path d="M29.2883 507.248C29.2656 504.23 30.947 501.77 33.044 501.754C35.141 501.738 36.8594 504.172 36.8822 507.191C36.905 510.21 35.2235 512.669 33.1265 512.685C31.0295 512.701 29.3111 510.267 29.2883 507.248Z" fill="#3F3D56"/>
<path d="M265.393 180.209C264.914 176.922 268.354 173.699 273.074 173.011C277.794 172.323 282.007 174.431 282.485 177.719C282.963 181.007 279.524 184.23 274.804 184.918C270.084 185.606 265.87 183.498 265.393 180.209Z" fill="white"/>
<path d="M209.195 174.718C208.717 171.431 212.156 168.208 216.876 167.52C221.597 166.832 225.81 168.94 226.287 172.228C226.766 175.516 223.326 178.739 218.607 179.427C213.886 180.114 209.673 178.006 209.195 174.718Z" fill="#3F3D56"/>
<path d="M280.782 134.651C280.304 131.363 283.743 128.14 288.463 127.452C293.183 126.764 297.396 128.872 297.874 132.161C298.352 135.448 294.913 138.671 290.193 139.359C285.473 140.047 281.259 137.939 280.782 134.651Z" fill="#FF6584"/>
<path d="M305.2 115.989C305.178 112.971 306.859 110.511 308.956 110.495C311.053 110.479 312.771 112.913 312.795 115.932C312.817 118.95 311.136 121.41 309.039 121.426C306.942 121.442 305.224 119.008 305.2 115.989Z" fill="#E6E6E6"/>
<path d="M313.482 81.2303C313.459 78.2115 315.14 75.752 317.237 75.7362C319.334 75.7204 321.053 78.1543 321.076 81.1731C321.099 84.1912 319.417 86.6515 317.32 86.6673C315.223 86.6831 313.505 84.2492 313.482 81.2303Z" fill="#3F3D56"/>
<path d="M249.085 142.404C249.063 139.386 250.744 136.926 252.841 136.91C254.938 136.894 256.656 139.328 256.679 142.347C256.702 145.365 255.02 147.825 252.923 147.841C250.826 147.857 249.108 145.423 249.085 142.404Z" fill="#E6E6E6"/>
<path d="M276.242 155.982C276.219 152.963 277.901 150.504 279.998 150.488C282.095 150.472 283.813 152.906 283.836 155.924C283.859 158.943 282.177 161.403 280.081 161.419C277.984 161.435 276.265 159 276.242 155.982Z" fill="#FF6584"/>
<path d="M238.439 181.078C238.416 178.059 240.097 175.599 242.194 175.583C244.291 175.567 246.01 178.001 246.033 181.02C246.056 184.038 244.374 186.498 242.277 186.514C240.18 186.53 238.461 184.096 238.439 181.078Z" fill="#3F3D56"/>
</g>
<defs>
<clipPath id="clip0_259_471">
<rect width="701" height="798" fill="white"/>
</clipPath>
</defs>
</svg>
