<svg width="1920" height="1080" viewBox="0 0 1920 1080" fill="none" xmlns="http://www.w3.org/2000/svg">
<rect width="1920" height="1080" fill="#E3E3E3"/>
<path fill-rule="evenodd" clip-rule="evenodd" d="M760.98 -279.958C844.028 -276.299 898.805 -198.477 951.513 -134.194C997.373 -78.2652 1026.75 -15.2956 1036.73 56.3396C1048.83 143.271 1077.84 249.191 1013.17 308.53C948.778 367.612 848.369 309.226 760.98 309.348C673.347 309.469 562.95 377.567 508.087 309.232C452.173 239.587 549.215 145.234 557.853 56.3396C564.829 -15.4533 515.589 -90.0159 552.882 -151.758C596.671 -224.256 676.366 -283.686 760.98 -279.958Z" stroke="white"/>
<path fill-rule="evenodd" clip-rule="evenodd" d="M-64.0705 254.938C21.3346 267.175 134.849 229.103 180.342 302.412C226.052 376.068 134.108 459.349 115.295 543.97C98.6232 618.957 141.272 718.865 78.0516 762.503C14.8007 806.163 -66.3436 743.121 -139.615 719.924C-196.53 701.905 -250.885 685.279 -294.53 644.548C-351.979 590.933 -419.933 535.301 -421.621 456.739C-423.503 369.098 -379.71 276.192 -303.369 233.105C-230.855 192.178 -146.495 243.128 -64.0705 254.938Z" stroke="white"/>
<path fill-rule="evenodd" clip-rule="evenodd" d="M1816.56 -299.291C1890.28 -298.434 1958.29 -264.665 2011.14 -213.269C2064.83 -161.066 2109.31 -93.4486 2105.14 -18.6818C2101.11 53.4017 2046.92 110.198 1990.58 155.339C1941.04 195.029 1879.21 202.35 1816.56 212.532C1733.86 225.973 1631.07 285.13 1574.99 222.881C1518.44 160.103 1600.17 65.4267 1608.26 -18.6818C1614.87 -87.4514 1576.21 -162.371 1617.39 -217.845C1661.84 -277.715 1742 -300.158 1816.56 -299.291Z" stroke="white"/>
<path fill-rule="evenodd" clip-rule="evenodd" d="M1651.45 618.543C1725.79 603.502 1817.43 617.591 1861.79 679.119C1904.53 738.394 1856.59 817.053 1846.78 889.467C1839.16 945.775 1845.31 1003.88 1811.61 1049.63C1772.25 1103.04 1717.59 1149.31 1651.45 1154.56C1581.3 1160.13 1519.62 1119.92 1463.67 1077.24C1395.78 1025.43 1291.58 973.963 1304.02 889.467C1316.66 803.635 1443.47 803.259 1511.89 749.908C1564.26 709.067 1586.35 631.712 1651.45 618.543Z" stroke="white"/>
<path fill-rule="evenodd" clip-rule="evenodd" d="M430.604 1037.61C503.157 1029.2 567.042 953.331 635.84 977.86C704.768 1002.44 759.283 1080.99 757.45 1154.14C755.616 1227.32 671.241 1265.76 627.162 1324.21C600.925 1359 584.5 1398.33 551.674 1426.98C515.827 1458.27 477.489 1487.67 430.604 1495.78C377.652 1504.94 323.43 1497.6 274.726 1474.89C217.653 1448.28 159.617 1414.12 133.049 1357.02C104.995 1296.74 106.239 1224.81 129.34 1162.46C151.913 1101.53 197.236 1046.63 257.262 1021.76C312.208 998.988 371.523 1044.46 430.604 1037.61Z" stroke="white"/>
</svg>
