<svg width="460" height="246" viewBox="0 0 460 246" fill="none" xmlns="http://www.w3.org/2000/svg">
<rect x="147" y="32" width="313" height="198" rx="16" fill="#F7F7F7"/>
<rect x="300.042" y="69.1797" width="159.959" height="48.4192" fill="#D9D9D9"/>
<g filter="url(#filter0_d_2739_13489)">
<rect x="20" y="18" width="313" height="198" rx="16" fill="white"/>
</g>
<g clip-path="url(#clip0_2739_13489)">
<path d="M47 48.356H44.5698L46.0899 38.6758H48.5199L47 48.356Z" fill="#00579F"/>
<path d="M55.8095 38.9121C55.3302 38.7163 54.5699 38.5 53.6298 38.5C51.2299 38.5 49.5399 39.8181 49.5295 41.7026C49.5096 43.0929 50.7395 43.8652 51.6594 44.3288C52.5996 44.8025 52.9192 45.1117 52.9192 45.5339C52.9096 46.1825 52.1595 46.4814 51.4598 46.4814C50.4895 46.4814 49.9697 46.3273 49.1796 45.9665L48.8596 45.8118L48.5195 47.9848C49.0895 48.2523 50.1396 48.4896 51.2299 48.5C53.7798 48.5 55.4399 47.2023 55.4596 45.1941C55.4693 44.0921 54.8198 43.2477 53.4197 42.5578C52.5697 42.1148 52.0492 41.8162 52.0492 41.363C52.0591 40.951 52.4894 40.529 53.4489 40.529C54.239 40.5083 54.8194 40.7039 55.2592 40.8997L55.479 41.0025L55.8095 38.9121Z" fill="#00579F"/>
<path d="M59.0397 44.9267C59.2399 44.3706 60.01 42.2182 60.01 42.2182C59.9999 42.2389 60.2097 41.6518 60.3297 41.2914L60.4995 42.1256C60.4995 42.1256 60.9598 44.4427 61.0597 44.9267C60.6799 44.9267 59.5197 44.9267 59.0397 44.9267ZM62.0395 38.6758H60.1597C59.5801 38.6758 59.1397 38.8507 58.8896 39.479L55.2798 48.3559H57.8297C57.8297 48.3559 58.2495 47.1611 58.3398 46.9038C58.6195 46.9038 61.1001 46.9038 61.46 46.9038C61.5297 47.2437 61.7499 48.3559 61.7499 48.3559H64.0001L62.0395 38.6758Z" fill="#00579F"/>
<path d="M42.54 38.6758L40.16 45.2768L39.9 43.938C39.46 42.3933 38.08 40.7149 36.54 39.8804L38.72 48.3458H41.2899L45.1098 38.6758H42.54Z" fill="#00579F"/>
<path d="M37.95 38.6758H34.04L34 38.8714C37.05 39.6747 39.07 41.611 39.8999 43.9384L39.0499 39.4895C38.91 38.8712 38.4799 38.6962 37.95 38.6758Z" fill="#FAA61A"/>
</g>
<g clip-path="url(#clip1_2739_13489)">
<path d="M95.8798 37.6045H89.1201V49.3962H95.8798V37.6045Z" fill="#FF5F00"/>
<path d="M89.5494 43.5C89.5494 41.1042 90.7082 38.9792 92.4893 37.6042C91.1803 36.6042 89.5279 36 87.7253 36C83.4549 36 80 39.3542 80 43.5C80 47.6458 83.4549 51 87.7253 51C89.5279 51 91.1803 50.3958 92.4893 49.3958C90.7082 48.0417 89.5494 45.8958 89.5494 43.5Z" fill="#EB001B"/>
<path d="M105 43.5C105 47.6458 101.545 51 97.2747 51C95.4721 51 93.8198 50.3958 92.5107 49.3958C94.3133 48.0208 95.4507 45.8958 95.4507 43.5C95.4507 41.1042 94.2919 38.9792 92.5107 37.6042C93.8198 36.6042 95.4721 36 97.2747 36C101.545 36 105 39.375 105 43.5Z" fill="#F79E1B"/>
</g>
<path d="M136.88 49.3964H130.12V37.6035H136.88V49.3964Z" fill="#6C6BBD"/>
<path d="M130.549 43.5C130.549 41.1078 131.703 38.9768 133.5 37.6036C132.186 36.5994 130.527 36 128.725 36C124.459 36 121 39.3578 121 43.5C121 47.6422 124.459 51 128.725 51C130.527 51 132.186 50.4006 133.5 49.3964C131.703 48.0232 130.549 45.8922 130.549 43.5Z" fill="#D32011"/>
<path d="M146 43.5C146 47.6422 142.541 51 138.275 51C136.472 51 134.814 50.4006 133.5 49.3964C135.297 48.0232 136.451 45.8922 136.451 43.5C136.451 41.1078 135.297 38.9768 133.5 37.6036C134.814 36.5994 136.472 36 138.275 36C142.541 36 146 39.3578 146 43.5Z" fill="#0099DF"/>
<g clip-path="url(#clip2_2739_13489)">
<path fill-rule="evenodd" clip-rule="evenodd" d="M183.638 43.0176V48.4998H186.224V45.2511H189.155C190.389 45.2403 191.436 44.3123 191.832 43.0176H183.638Z" fill="#37A72E"/>
<path fill-rule="evenodd" clip-rule="evenodd" d="M183.293 38.5C183.444 40.7408 185.244 42.5102 187.442 42.5102C187.449 42.5102 191.939 42.5102 191.939 42.5102C191.972 42.3046 191.99 42.0925 191.99 41.8756C191.99 40.0194 190.718 38.5137 189.145 38.5001L183.293 38.5Z" fill="url(#paint0_linear_2739_13489)"/>
<path fill-rule="evenodd" clip-rule="evenodd" d="M179.465 42.4568L179.467 42.4517L179.468 42.4518C179.494 42.3958 179.545 42.3579 179.603 42.3579C179.687 42.3579 179.756 42.4369 179.758 42.5355L179.758 42.5355V48.4492H182.345V38.5H179.758C179.43 38.5129 179.06 38.7963 178.922 39.1442L176.864 44.342C176.859 44.3632 176.851 44.3831 176.841 44.4009L176.84 44.4026L176.84 44.4025C176.809 44.4553 176.757 44.4898 176.698 44.4898C176.603 44.4898 176.526 44.3989 176.526 44.2868V38.5H173.939V48.4492H176.526V48.4481C176.85 48.4282 177.212 48.1479 177.348 47.8051L179.46 42.4702C179.462 42.4657 179.463 42.4612 179.465 42.4568Z" fill="#37A72E"/>
<path fill-rule="evenodd" clip-rule="evenodd" d="M169.808 42.6269L168.297 48.4492H166.436L164.924 42.6234C164.909 42.5301 164.84 42.4594 164.756 42.4594C164.662 42.4594 164.586 42.5492 164.586 42.6599C164.586 42.6607 164.586 42.6616 164.586 42.6624L164.586 48.4492H162V38.5H164.22H164.881C165.357 38.5 165.855 38.9349 165.995 39.4706L167.253 44.3188C167.316 44.56 167.417 44.5598 167.48 44.3188L168.739 39.4706C168.878 38.9345 169.376 38.5 169.852 38.5H170.513H172.733V48.4492H170.147V42.6624C170.147 42.6616 170.147 42.6607 170.147 42.6599C170.147 42.5492 170.07 42.4594 169.976 42.4594C169.892 42.4594 169.822 42.5319 169.808 42.6269Z" fill="#37A72E"/>
</g>
<defs>
<filter id="filter0_d_2739_13489" x="-4" y="0" width="361" height="246" filterUnits="userSpaceOnUse" color-interpolation-filters="sRGB">
<feFlood flood-opacity="0" result="BackgroundImageFix"/>
<feColorMatrix in="SourceAlpha" type="matrix" values="0 0 0 0 0 0 0 0 0 0 0 0 0 0 0 0 0 0 127 0" result="hardAlpha"/>
<feMorphology radius="1" operator="dilate" in="SourceAlpha" result="effect1_dropShadow_2739_13489"/>
<feOffset dy="6"/>
<feGaussianBlur stdDeviation="11.5"/>
<feComposite in2="hardAlpha" operator="out"/>
<feColorMatrix type="matrix" values="0 0 0 0 0 0 0 0 0 0 0 0 0 0 0 0 0 0 0.12 0"/>
<feBlend mode="normal" in2="BackgroundImageFix" result="effect1_dropShadow_2739_13489"/>
<feBlend mode="normal" in="SourceGraphic" in2="effect1_dropShadow_2739_13489" result="shape"/>
</filter>
<linearGradient id="paint0_linear_2739_13489" x1="183.293" y1="40.5051" x2="191.99" y2="40.5051" gradientUnits="userSpaceOnUse">
<stop stop-color="#00A0E5"/>
<stop offset="1" stop-color="#0077C3"/>
</linearGradient>
<clipPath id="clip0_2739_13489">
<rect width="30" height="10" fill="white" transform="translate(34 38.5)"/>
</clipPath>
<clipPath id="clip1_2739_13489">
<rect width="25" height="15" fill="white" transform="translate(80 36)"/>
</clipPath>
<clipPath id="clip2_2739_13489">
<rect width="30" height="10" fill="white" transform="translate(162 38.5)"/>
</clipPath>
</defs>
</svg>