<svg width="172" height="17" viewBox="0 0 172 17" fill="none" xmlns="http://www.w3.org/2000/svg">
<g clip-path="url(#clip0_778_7500)">
<path d="M14.7332 13.8417H11.979L13.7017 3.19336H16.4558L14.7332 13.8417Z" fill="#00579F"/>
<path d="M24.7175 3.45334C24.1743 3.23789 23.3126 3 22.2472 3C19.5273 3 17.612 4.4499 17.6002 6.52283C17.5776 8.05223 18.9715 8.9017 20.0141 9.41165C21.0796 9.93274 21.4419 10.2729 21.4419 10.7373C21.431 11.4507 20.5808 11.7795 19.7879 11.7795C18.6882 11.7795 18.099 11.61 17.2037 11.2131L16.841 11.043L16.4556 13.4333C17.1015 13.7275 18.2917 13.9886 19.5273 14C22.4172 14 24.2987 12.5725 24.321 10.3635C24.332 9.15133 23.5959 8.22252 22.0091 7.46354C21.0458 6.97632 20.4558 6.6478 20.4558 6.14929C20.4671 5.6961 20.9548 5.23192 22.0422 5.23192C22.9376 5.20918 23.5955 5.42434 24.0938 5.63964L24.343 5.75271L24.7175 3.45334Z" fill="#00579F"/>
<path d="M28.3784 10.0693C28.6053 9.45761 29.4781 7.09003 29.4781 7.09003C29.4666 7.11277 29.7044 6.46701 29.8404 6.07058L30.0329 6.98811C30.0329 6.98811 30.5545 9.53696 30.6677 10.0693C30.2373 10.0693 28.9225 10.0693 28.3784 10.0693ZM31.7782 3.19336H29.6478C28.9908 3.19336 28.4917 3.38578 28.2083 4.07685L24.1172 13.8415H27.0071C27.0071 13.8415 27.4829 12.5273 27.5852 12.2442C27.9022 12.2442 30.7135 12.2442 31.1214 12.2442C31.2005 12.618 31.45 13.8415 31.45 13.8415H34.0002L31.7782 3.19336Z" fill="#00579F"/>
<path d="M9.67839 3.19336L6.98108 10.4545L6.68634 8.98184C6.18766 7.2826 4.62371 5.43642 2.87842 4.51845L5.34905 13.8304H8.26159L12.5908 3.19336H9.67839Z" fill="#00579F"/>
<path d="M4.47663 3.19336H0.045334L0 3.40851C3.45669 4.29216 5.74599 6.42214 6.68656 8.98229L5.72325 4.08845C5.56465 3.40836 5.07727 3.21579 4.47663 3.19336Z" fill="#FAA61A"/>
</g>
<g clip-path="url(#clip1_778_7500)">
<path d="M67.7857 1.81836H60.2148V15.1822H67.7857V1.81836Z" fill="#FF5F00"/>
<path d="M60.6953 8.5C60.6953 5.78472 61.9931 3.37639 63.988 1.81806C62.5219 0.684725 60.6712 0 58.6524 0C53.8695 0 50 3.80139 50 8.5C50 13.1986 53.8695 17 58.6524 17C60.6712 17 62.5219 16.3153 63.988 15.1819C61.9931 13.6472 60.6953 11.2153 60.6953 8.5Z" fill="#EB001B"/>
<path d="M78.0002 8.5C78.0002 13.1986 74.1307 17 69.3478 17C67.3289 17 65.4783 16.3153 64.0122 15.1819C66.0311 13.6236 67.3049 11.2153 67.3049 8.5C67.3049 5.78472 66.0071 3.37639 64.0122 1.81806C65.4783 0.684725 67.3289 0 69.3478 0C74.1307 0 78.0002 3.825 78.0002 8.5Z" fill="#F79E1B"/>
</g>
<path d="M111.786 15.1817H104.214V1.81641H111.786V15.1817Z" fill="#6C6BBD"/>
<path d="M104.695 8.5C104.695 5.7888 105.987 3.37374 108 1.81738C106.528 0.679287 104.671 0 102.652 0C97.8736 0 94 3.80552 94 8.5C94 13.1945 97.8736 17 102.652 17C104.671 17 106.528 16.3207 108 15.1826C105.987 13.6263 104.695 11.2112 104.695 8.5Z" fill="#D32011"/>
<path d="M122 8.5C122 13.1945 118.126 17 113.348 17C111.329 17 109.472 16.3207 108 15.1826C110.013 13.6263 111.305 11.2112 111.305 8.5C111.305 5.7888 110.013 3.37374 108 1.81738C109.472 0.679287 111.329 0 113.348 0C118.126 0 122 3.80552 122 8.5Z" fill="#0099DF"/>
<path fill-rule="evenodd" clip-rule="evenodd" d="M162.523 7.96875V13.9992H165.454V10.4256H168.776C170.174 10.4137 171.362 9.39293 171.809 7.96875H162.523Z" fill="#37A72E"/>
<path fill-rule="evenodd" clip-rule="evenodd" d="M162.132 3C162.303 5.46492 164.343 7.41117 166.835 7.41117C166.843 7.41117 171.931 7.41117 171.931 7.41117C171.969 7.1851 171.989 6.95178 171.989 6.7132C171.989 4.67132 170.547 3.01511 168.764 3.0001L162.132 3Z" fill="url(#paint0_linear_778_7500)"/>
<path fill-rule="evenodd" clip-rule="evenodd" d="M157.794 7.35251L157.797 7.34689L157.797 7.34697C157.827 7.28534 157.885 7.24365 157.951 7.24365C158.046 7.24365 158.124 7.33064 158.126 7.43907L158.127 7.43909V13.9442H161.058V3H158.127C157.755 3.01414 157.335 3.3259 157.179 3.70859L154.846 9.42619C154.841 9.44956 154.832 9.47138 154.82 9.49096L154.819 9.49287L154.819 9.49276C154.783 9.55082 154.725 9.58883 154.658 9.58883C154.55 9.58883 154.463 9.48884 154.463 9.36548V3H151.532V13.9442H154.463V13.9429C154.83 13.921 155.24 13.6127 155.394 13.2356L157.788 7.36726C157.79 7.36223 157.792 7.35732 157.794 7.35251Z" fill="#37A72E"/>
<path fill-rule="evenodd" clip-rule="evenodd" d="M146.849 7.53959L145.136 13.9442H143.028L141.314 7.5357C141.297 7.43308 141.219 7.35533 141.124 7.35533C141.017 7.35533 140.931 7.45408 140.931 7.57589C140.931 7.57682 140.931 7.57775 140.931 7.57868L140.931 13.9442H138V3H140.516H141.265C141.804 3 142.37 3.47841 142.527 4.06763L143.954 9.4007C144.025 9.66604 144.14 9.66576 144.211 9.4007L145.637 4.06763C145.795 3.47799 146.36 3 146.899 3L147.648 3H150.164V13.9442H147.233V7.57868C147.233 7.57775 147.233 7.57682 147.233 7.57589C147.233 7.45408 147.146 7.35533 147.04 7.35533C146.944 7.35533 146.865 7.43505 146.849 7.53959Z" fill="#37A72E"/>
<defs>
<linearGradient id="paint0_linear_778_7500" x1="162.132" y1="5.20558" x2="171.989" y2="5.20558" gradientUnits="userSpaceOnUse">
<stop stop-color="#00A0E5"/>
<stop offset="1" stop-color="#0077C3"/>
</linearGradient>
<clipPath id="clip0_778_7500">
<rect width="34" height="11" fill="white" transform="translate(0 3)"/>
</clipPath>
<clipPath id="clip1_778_7500">
<rect width="28" height="17" fill="white" transform="translate(50)"/>
</clipPath>
</defs>
</svg>