<svg width="563" height="277" viewBox="0 0 563 277" fill="none" xmlns="http://www.w3.org/2000/svg">
<rect x="201" y="34" width="362" height="229" rx="16" fill="#F7F7F7"/>
<g filter="url(#filter0_d_1774_9020)">
<rect x="24" y="18" width="354" height="229" rx="16" fill="white"/>
</g>
<g clip-path="url(#clip0_1774_9020)">
<path d="M46.7332 52.8417H43.979L45.7017 42.1934H48.4558L46.7332 52.8417Z" fill="#00579F"/>
<path d="M56.7175 42.4533C56.1743 42.2379 55.3126 42 54.2472 42C51.5273 42 49.612 43.4499 49.6002 45.5228C49.5776 47.0522 50.9715 47.9017 52.0141 48.4116C53.0796 48.9327 53.4419 49.2729 53.4419 49.7373C53.431 50.4507 52.5808 50.7795 51.7879 50.7795C50.6882 50.7795 50.099 50.61 49.2037 50.2131L48.841 50.043L48.4556 52.4333C49.1015 52.7275 50.2917 52.9886 51.5273 53C54.4172 53 56.2987 51.5725 56.321 49.3635C56.332 48.1513 55.5959 47.2225 54.0091 46.4635C53.0458 45.9763 52.4558 45.6478 52.4558 45.1493C52.4671 44.6961 52.9548 44.2319 54.0422 44.2319C54.9376 44.2092 55.5955 44.4243 56.0938 44.6396L56.343 44.7527L56.7175 42.4533Z" fill="#00579F"/>
<path d="M60.3784 49.0693C60.6053 48.4576 61.4781 46.09 61.4781 46.09C61.4666 46.1128 61.7044 45.467 61.8404 45.0706L62.0329 45.9881C62.0329 45.9881 62.5545 48.537 62.6677 49.0693C62.2373 49.0693 60.9225 49.0693 60.3784 49.0693ZM63.7782 42.1934H61.6478C60.9908 42.1934 60.4917 42.3858 60.2083 43.0769L56.1172 52.8415H59.0071C59.0071 52.8415 59.4829 51.5273 59.5852 51.2442C59.9022 51.2442 62.7135 51.2442 63.1214 51.2442C63.2005 51.618 63.45 52.8415 63.45 52.8415H66.0002L63.7782 42.1934Z" fill="#00579F"/>
<path d="M41.6784 42.1934L38.9811 49.4545L38.6863 47.9818C38.1877 46.2826 36.6237 44.4364 34.8784 43.5184L37.3491 52.8304H40.2616L44.5908 42.1934H41.6784Z" fill="#00579F"/>
<path d="M36.4766 42.1934H32.0453L32 42.4085C35.4567 43.2922 37.746 45.4221 38.6866 47.9823L37.7232 43.0884C37.5647 42.4084 37.0773 42.2158 36.4766 42.1934Z" fill="#FAA61A"/>
</g>
<g clip-path="url(#clip1_1774_9020)">
<path d="M99.7857 40.8184H92.2148V54.1822H99.7857V40.8184Z" fill="#FF5F00"/>
<path d="M92.6953 47.5C92.6953 44.7847 93.9931 42.3764 95.988 40.8181C94.5219 39.6847 92.6712 39 90.6524 39C85.8695 39 82 42.8014 82 47.5C82 52.1986 85.8695 56 90.6524 56C92.6712 56 94.5219 55.3153 95.988 54.1819C93.9931 52.6472 92.6953 50.2153 92.6953 47.5Z" fill="#EB001B"/>
<path d="M110 47.5C110 52.1986 106.131 56 101.348 56C99.3289 56 97.4783 55.3153 96.0122 54.1819C98.0311 52.6236 99.3049 50.2153 99.3049 47.5C99.3049 44.7847 98.0071 42.3764 96.0122 40.8181C97.4783 39.6847 99.3289 39 101.348 39C106.131 39 110 42.825 110 47.5Z" fill="#F79E1B"/>
</g>
<path d="M143.786 54.1817H136.214V40.8164H143.786V54.1817Z" fill="#6C6BBD"/>
<path d="M136.695 47.5C136.695 44.7888 137.987 42.3737 140 40.8174C138.528 39.6793 136.671 39 134.652 39C129.874 39 126 42.8055 126 47.5C126 52.1945 129.874 56 134.652 56C136.671 56 138.528 55.3207 140 54.1826C137.987 52.6263 136.695 50.2112 136.695 47.5Z" fill="#D32011"/>
<path d="M154 47.5C154 52.1945 150.126 56 145.348 56C143.329 56 141.472 55.3207 140 54.1826C142.013 52.6263 143.305 50.2112 143.305 47.5C143.305 44.7888 142.013 42.3737 140 40.8174C141.472 39.6793 143.329 39 145.348 39C150.126 39 154 42.8055 154 47.5Z" fill="#0099DF"/>
<path fill-rule="evenodd" clip-rule="evenodd" d="M194.523 46.9688V52.9992H197.454V49.4256H200.776C202.174 49.4137 203.362 48.3929 203.809 46.9688H194.523Z" fill="#37A72E"/>
<path fill-rule="evenodd" clip-rule="evenodd" d="M194.132 42C194.303 44.4649 196.343 46.4112 198.835 46.4112C198.843 46.4112 203.931 46.4112 203.931 46.4112C203.969 46.1851 203.989 45.9518 203.989 45.7132C203.989 43.6713 202.547 42.0151 200.764 42.0001L194.132 42Z" fill="url(#paint0_linear_1774_9020)"/>
<path fill-rule="evenodd" clip-rule="evenodd" d="M189.794 46.3525L189.797 46.3469L189.797 46.347C189.827 46.2853 189.885 46.2437 189.951 46.2437C190.046 46.2437 190.124 46.3306 190.126 46.4391L190.127 46.4391V52.9442H193.058V42H190.127C189.755 42.0141 189.335 42.3259 189.179 42.7086L186.846 48.4262C186.841 48.4496 186.832 48.4714 186.82 48.491L186.819 48.4929L186.819 48.4928C186.783 48.5508 186.725 48.5888 186.658 48.5888C186.55 48.5888 186.463 48.4888 186.463 48.3655V42H183.532V52.9442H186.463V52.9429C186.83 52.921 187.24 52.6127 187.394 52.2356L189.788 46.3673C189.79 46.3622 189.792 46.3573 189.794 46.3525Z" fill="#37A72E"/>
<path fill-rule="evenodd" clip-rule="evenodd" d="M178.849 46.5396L177.136 52.9442H175.028L173.314 46.5357C173.297 46.4331 173.219 46.3553 173.124 46.3553C173.017 46.3553 172.931 46.4541 172.931 46.5759C172.931 46.5768 172.931 46.5777 172.931 46.5787L172.931 52.9442H170V42H172.516H173.265C173.804 42 174.37 42.4784 174.527 43.0676L175.954 48.4007C176.025 48.666 176.14 48.6658 176.211 48.4007L177.637 43.0676C177.795 42.478 178.36 42 178.899 42H179.648H182.164V52.9442H179.233V46.5787C179.233 46.5777 179.233 46.5768 179.233 46.5759C179.233 46.4541 179.146 46.3553 179.04 46.3553C178.944 46.3553 178.865 46.435 178.849 46.5396Z" fill="#37A72E"/>
<rect x="378" y="77" width="185" height="56" fill="#D9D9D9"/>
<defs>
<filter id="filter0_d_1774_9020" x="0" y="0" width="402" height="277" filterUnits="userSpaceOnUse" color-interpolation-filters="sRGB">
<feFlood flood-opacity="0" result="BackgroundImageFix"/>
<feColorMatrix in="SourceAlpha" type="matrix" values="0 0 0 0 0 0 0 0 0 0 0 0 0 0 0 0 0 0 127 0" result="hardAlpha"/>
<feMorphology radius="1" operator="dilate" in="SourceAlpha" result="effect1_dropShadow_1774_9020"/>
<feOffset dy="6"/>
<feGaussianBlur stdDeviation="11.5"/>
<feComposite in2="hardAlpha" operator="out"/>
<feColorMatrix type="matrix" values="0 0 0 0 0 0 0 0 0 0 0 0 0 0 0 0 0 0 0.12 0"/>
<feBlend mode="normal" in2="BackgroundImageFix" result="effect1_dropShadow_1774_9020"/>
<feBlend mode="normal" in="SourceGraphic" in2="effect1_dropShadow_1774_9020" result="shape"/>
</filter>
<linearGradient id="paint0_linear_1774_9020" x1="194.132" y1="44.2056" x2="203.989" y2="44.2056" gradientUnits="userSpaceOnUse">
<stop stop-color="#00A0E5"/>
<stop offset="1" stop-color="#0077C3"/>
</linearGradient>
<clipPath id="clip0_1774_9020">
<rect width="34" height="11" fill="white" transform="translate(32 42)"/>
</clipPath>
<clipPath id="clip1_1774_9020">
<rect width="28" height="17" fill="white" transform="translate(82 39)"/>
</clipPath>
</defs>
</svg>
