<svg width="571" height="277" viewBox="0 0 571 277" fill="none" xmlns="http://www.w3.org/2000/svg">
<rect x="209" y="34" width="362" height="229" rx="16" fill="#F7F7F7"/>
<g filter="url(#filter0_d_2568_12878)">
<rect x="24" y="18" width="362" height="229" rx="16" fill="white"/>
</g>
<g clip-path="url(#clip0_2568_12878)">
<path d="M54.7332 52.8417H51.979L53.7017 42.1934H56.4558L54.7332 52.8417Z" fill="#00579F"/>
<path d="M64.7175 42.4533C64.1743 42.2379 63.3126 42 62.2472 42C59.5273 42 57.612 43.4499 57.6002 45.5228C57.5776 47.0522 58.9715 47.9017 60.0141 48.4116C61.0796 48.9327 61.4419 49.2729 61.4419 49.7373C61.431 50.4507 60.5808 50.7795 59.7879 50.7795C58.6882 50.7795 58.099 50.61 57.2037 50.2131L56.841 50.043L56.4556 52.4333C57.1015 52.7275 58.2917 52.9886 59.5273 53C62.4172 53 64.2987 51.5725 64.321 49.3635C64.332 48.1513 63.5959 47.2225 62.0091 46.4635C61.0458 45.9763 60.4558 45.6478 60.4558 45.1493C60.4671 44.6961 60.9548 44.2319 62.0422 44.2319C62.9376 44.2092 63.5955 44.4243 64.0938 44.6396L64.343 44.7527L64.7175 42.4533V42.4533Z" fill="#00579F"/>
<path d="M68.3784 49.0693C68.6053 48.4576 69.4781 46.09 69.4781 46.09C69.4666 46.1128 69.7044 45.467 69.8404 45.0706L70.0329 45.9881C70.0329 45.9881 70.5545 48.537 70.6677 49.0693C70.2373 49.0693 68.9225 49.0693 68.3784 49.0693ZM71.7782 42.1934H69.6478C68.9908 42.1934 68.4917 42.3858 68.2083 43.0769L64.1172 52.8415H67.0071C67.0071 52.8415 67.4829 51.5273 67.5852 51.2442C67.9022 51.2442 70.7135 51.2442 71.1214 51.2442C71.2005 51.618 71.45 52.8415 71.45 52.8415H74.0002L71.7782 42.1934V42.1934Z" fill="#00579F"/>
<path d="M49.6784 42.1934L46.9811 49.4545L46.6863 47.9818C46.1877 46.2826 44.6237 44.4364 42.8784 43.5184L45.3491 52.8304H48.2616L52.5908 42.1934H49.6784V42.1934Z" fill="#00579F"/>
<path d="M44.4766 42.1934H40.0453L40 42.4085C43.4567 43.2922 45.746 45.4221 46.6866 47.9823L45.7232 43.0884C45.5647 42.4084 45.0773 42.2158 44.4766 42.1934Z" fill="#FAA61A"/>
</g>
<g clip-path="url(#clip1_2568_12878)">
<path d="M107.786 40.8184H100.215V54.1822H107.786V40.8184Z" fill="#FF5F00"/>
<path d="M100.695 47.5C100.695 44.7847 101.993 42.3764 103.988 40.8181C102.522 39.6847 100.671 39 98.6524 39C93.8695 39 90 42.8014 90 47.5C90 52.1986 93.8695 56 98.6524 56C100.671 56 102.522 55.3153 103.988 54.1819C101.993 52.6472 100.695 50.2153 100.695 47.5Z" fill="#EB001B"/>
<path d="M118 47.5C118 52.1986 114.131 56 109.348 56C107.329 56 105.478 55.3153 104.012 54.1819C106.031 52.6236 107.305 50.2153 107.305 47.5C107.305 44.7847 106.007 42.3764 104.012 40.8181C105.478 39.6847 107.329 39 109.348 39C114.131 39 118 42.825 118 47.5Z" fill="#F79E1B"/>
</g>
<path d="M151.786 54.1817H144.214V40.8164H151.786V54.1817Z" fill="#6C6BBD"/>
<path d="M144.695 47.5C144.695 44.7888 145.987 42.3737 148 40.8174C146.528 39.6793 144.671 39 142.652 39C137.874 39 134 42.8055 134 47.5C134 52.1945 137.874 56 142.652 56C144.671 56 146.528 55.3207 148 54.1826C145.987 52.6263 144.695 50.2112 144.695 47.5Z" fill="#D32011"/>
<path d="M162 47.5C162 52.1945 158.126 56 153.348 56C151.329 56 149.472 55.3207 148 54.1826C150.013 52.6263 151.305 50.2112 151.305 47.5C151.305 44.7888 150.013 42.3737 148 40.8174C149.472 39.6793 151.329 39 153.348 39C158.126 39 162 42.8055 162 47.5Z" fill="#0099DF"/>
<path fill-rule="evenodd" clip-rule="evenodd" d="M202.523 46.9688V52.9992H205.454V49.4256H208.776C210.174 49.4137 211.362 48.3929 211.809 46.9688H202.523Z" fill="#37A72E"/>
<path fill-rule="evenodd" clip-rule="evenodd" d="M202.132 42C202.303 44.4649 204.343 46.4112 206.835 46.4112C206.843 46.4112 211.931 46.4112 211.931 46.4112C211.969 46.1851 211.989 45.9518 211.989 45.7132C211.989 43.6713 210.547 42.0151 208.764 42.0001L202.132 42Z" fill="url(#paint0_linear_2568_12878)"/>
<path fill-rule="evenodd" clip-rule="evenodd" d="M197.794 46.3525L197.797 46.3469L197.797 46.347C197.827 46.2853 197.885 46.2437 197.951 46.2437C198.046 46.2437 198.124 46.3306 198.126 46.4391L198.127 46.4391V52.9442H201.058V42H198.127C197.755 42.0141 197.335 42.3259 197.179 42.7086L194.846 48.4262C194.841 48.4496 194.832 48.4714 194.82 48.491L194.819 48.4929L194.819 48.4928C194.783 48.5508 194.725 48.5888 194.658 48.5888C194.55 48.5888 194.463 48.4888 194.463 48.3655V42H191.532V52.9442H194.463V52.9429C194.83 52.921 195.24 52.6127 195.394 52.2356L197.788 46.3673C197.79 46.3622 197.792 46.3573 197.794 46.3525Z" fill="#37A72E"/>
<path fill-rule="evenodd" clip-rule="evenodd" d="M186.849 46.5396L185.136 52.9442H183.028L181.314 46.5357C181.297 46.4331 181.219 46.3553 181.124 46.3553C181.017 46.3553 180.931 46.4541 180.931 46.5759C180.931 46.5768 180.931 46.5777 180.931 46.5787L180.931 52.9442H178V42H180.516H181.265C181.804 42 182.37 42.4784 182.527 43.0676L183.954 48.4007C184.025 48.666 184.14 48.6658 184.211 48.4007L185.637 43.0676C185.795 42.478 186.36 42 186.899 42H187.648H190.164V52.9442H187.233V46.5787C187.233 46.5777 187.233 46.5768 187.233 46.5759C187.233 46.4541 187.146 46.3553 187.04 46.3553C186.944 46.3553 186.865 46.435 186.849 46.5396Z" fill="#37A72E"/>
<rect x="386" y="77" width="185" height="56" fill="#D9D9D9"/>
<defs>
<filter id="filter0_d_2568_12878" x="0" y="0" width="410" height="277" filterUnits="userSpaceOnUse" color-interpolation-filters="sRGB">
<feFlood flood-opacity="0" result="BackgroundImageFix"/>
<feColorMatrix in="SourceAlpha" type="matrix" values="0 0 0 0 0 0 0 0 0 0 0 0 0 0 0 0 0 0 127 0" result="hardAlpha"/>
<feMorphology radius="1" operator="dilate" in="SourceAlpha" result="effect1_dropShadow_2568_12878"/>
<feOffset dy="6"/>
<feGaussianBlur stdDeviation="11.5"/>
<feComposite in2="hardAlpha" operator="out"/>
<feColorMatrix type="matrix" values="0 0 0 0 0 0 0 0 0 0 0 0 0 0 0 0 0 0 0.12 0"/>
<feBlend mode="normal" in2="BackgroundImageFix" result="effect1_dropShadow_2568_12878"/>
<feBlend mode="normal" in="SourceGraphic" in2="effect1_dropShadow_2568_12878" result="shape"/>
</filter>
<linearGradient id="paint0_linear_2568_12878" x1="202.132" y1="44.2056" x2="211.989" y2="44.2056" gradientUnits="userSpaceOnUse">
<stop stop-color="#00A0E5"/>
<stop offset="1" stop-color="#0077C3"/>
</linearGradient>
<clipPath id="clip0_2568_12878">
<rect width="34" height="11" fill="white" transform="translate(40 42)"/>
</clipPath>
<clipPath id="clip1_2568_12878">
<rect width="28" height="17" fill="white" transform="translate(90 39)"/>
</clipPath>
</defs>
</svg>
