<svg width="94" height="94" viewBox="0 0 94 94" fill="none" xmlns="http://www.w3.org/2000/svg">
<path d="M47 0C34.2454 0 32.6415 0.05875 27.6301 0.282C22.6188 0.517 19.2054 1.30425 16.215 2.4675C13.0783 3.64731 10.2371 5.49798 7.89013 7.89013C5.49945 10.2383 3.64901 13.0792 2.4675 16.215C1.30425 19.1995 0.511125 22.6187 0.282 27.6125C0.05875 32.6356 0 34.2336 0 47.0059C0 59.7664 0.05875 61.3644 0.282 66.3758C0.517 71.3813 1.30425 74.7946 2.4675 77.785C3.67187 80.8752 5.27575 83.4955 7.89013 86.1099C10.4986 88.7242 13.1189 90.334 16.2091 91.5325C19.2054 92.6957 22.6129 93.4889 27.6184 93.718C32.6356 93.9412 34.2336 94 47 94C59.7664 94 61.3585 93.9412 66.3758 93.718C71.3754 93.483 74.8005 92.6957 77.7909 91.5325C80.9256 90.3521 83.7647 88.5015 86.1099 86.1099C88.7242 83.4955 90.3281 80.8752 91.5325 77.785C92.6899 74.7946 93.483 71.3813 93.718 66.3758C93.9412 61.3644 94 59.7664 94 47C94 34.2336 93.9412 32.6356 93.718 27.6184C93.483 22.6188 92.6899 19.1995 91.5325 16.215C90.3512 13.0791 88.5007 10.2382 86.1099 7.89013C83.7636 5.49709 80.9222 3.64629 77.785 2.4675C74.7887 1.30425 71.3695 0.511125 66.3699 0.282C61.3526 0.05875 59.7605 0 46.9883 0H47.0059H47ZM42.7876 8.47175H47.0059C59.5549 8.47175 61.0412 8.51288 65.9939 8.742C70.5764 8.94763 73.0674 9.71725 74.7241 10.3576C76.9155 11.2095 78.4841 12.2317 80.1291 13.8767C81.7741 15.5217 82.7905 17.0845 83.6424 19.2818C84.2886 20.9326 85.0524 23.4236 85.258 28.0061C85.4871 32.9588 85.5341 34.4451 85.5341 46.9883C85.5341 59.5314 85.4871 61.0236 85.258 65.9762C85.0524 70.5587 84.2828 73.0439 83.6424 74.7006C82.8889 76.7414 81.6862 78.5866 80.1232 80.0997C78.4782 81.7447 76.9155 82.7611 74.7183 83.613C73.0733 84.2593 70.5822 85.023 65.9939 85.2345C61.0412 85.4578 59.5549 85.5106 47.0059 85.5106C34.4569 85.5106 32.9646 85.4578 28.012 85.2345C23.4295 85.023 20.9444 84.2593 19.2876 83.613C17.2461 82.8605 15.3991 81.66 13.8826 80.0997C12.3184 78.5842 11.1139 76.7372 10.3576 74.6947C9.71725 73.0439 8.94763 70.5529 8.742 65.9704C8.51875 61.0178 8.47175 59.5314 8.47175 46.9765C8.47175 34.4275 8.51875 32.947 8.742 27.9944C8.9535 23.4119 9.71725 20.9209 10.3635 19.2641C11.2154 17.0728 12.2376 15.5041 13.8826 13.8591C15.5276 12.2141 17.0904 11.1978 19.2876 10.3459C20.9444 9.69963 23.4295 8.93588 28.012 8.72438C32.3478 8.52463 34.028 8.46588 42.7876 8.46V8.47175V8.47175ZM72.0921 16.2737C71.3515 16.2737 70.6181 16.4196 69.9338 16.7031C69.2495 16.9865 68.6278 17.4019 68.104 17.9257C67.5803 18.4494 67.1649 19.0711 66.8814 19.7554C66.598 20.4397 66.4521 21.1731 66.4521 21.9138C66.4521 22.6544 66.598 23.3878 66.8814 24.0721C67.1649 24.7564 67.5803 25.3781 68.104 25.9018C68.6278 26.4256 69.2495 26.841 69.9338 27.1244C70.6181 27.4079 71.3515 27.5538 72.0921 27.5538C73.5879 27.5538 75.0225 26.9595 76.0802 25.9018C77.1379 24.8441 77.7321 23.4096 77.7321 21.9138C77.7321 20.4179 77.1379 18.9834 76.0802 17.9257C75.0225 16.868 73.5879 16.2737 72.0921 16.2737V16.2737ZM47.0059 22.8655C43.8044 22.8156 40.625 23.403 37.6527 24.5936C34.6805 25.7842 31.9748 27.5542 29.6931 29.8005C27.4115 32.0468 25.5995 34.7246 24.3627 37.6779C23.1259 40.6312 22.4889 43.8011 22.4889 47.0029C22.4889 50.2048 23.1259 53.3746 24.3627 56.328C25.5995 59.2813 27.4115 61.9591 29.6931 64.2054C31.9748 66.4517 34.6805 68.2217 37.6527 69.4123C40.625 70.6029 43.8044 71.1903 47.0059 71.1404C53.3423 71.0415 59.3858 68.455 63.8317 63.9391C68.2777 59.4232 70.7697 53.3401 70.7697 47.0029C70.7697 40.6657 68.2777 34.5827 63.8317 30.0668C59.3858 25.5509 53.3423 22.9644 47.0059 22.8655V22.8655ZM47.0059 31.3314C51.1615 31.3314 55.1468 32.9822 58.0853 35.9206C61.0237 38.859 62.6745 42.8444 62.6745 47C62.6745 51.1556 61.0237 55.141 58.0853 58.0794C55.1468 61.0178 51.1615 62.6686 47.0059 62.6686C42.8503 62.6686 38.8649 61.0178 35.9265 58.0794C32.988 55.141 31.3373 51.1556 31.3373 47C31.3373 42.8444 32.988 38.859 35.9265 35.9206C38.8649 32.9822 42.8503 31.3314 47.0059 31.3314V31.3314Z" fill="#5DA271"/>
</svg>
