<svg width="118" height="108" viewBox="0 0 118 108" fill="none" xmlns="http://www.w3.org/2000/svg">
<path d="M94.4502 53.8137C94.4502 73.7495 78.3073 89.9104 58.3929 89.9104C38.4803 89.9104 22.3374 73.7495 22.3374 53.8137C22.3374 33.8796 38.4803 17.7188 58.3929 17.7188C78.3073 17.7188 94.4502 33.8796 94.4502 53.8137Z" fill="#9EEBFF"/>
<path d="M87.1384 48.2612C84.2753 49.0585 81.6344 46.6613 78.9218 45.443C75.3295 43.8322 70.8629 44.3912 67.7759 46.8387C64.6458 49.3219 62.5603 53.8727 58.6617 54.7489C55.1106 55.548 51.8856 52.8354 48.8684 50.7982C45.423 48.4727 41.7107 46.5412 37.8282 45.056C34.209 43.6692 30.3103 42.6605 26.4744 43.2177C25.5337 43.3539 24.6146 43.594 23.7134 43.9039C22.8176 47.0537 22.3374 50.3772 22.3374 53.8136C22.3374 73.7495 38.4803 89.9103 58.3929 89.9103C78.3073 89.9103 94.4502 73.7495 94.4502 53.8136C94.4502 50.5635 94.0184 47.412 93.2122 44.4163C91.9777 45.271 90.7432 46.1274 89.5088 46.9838C88.767 47.498 88.0074 48.0212 87.1384 48.2612Z" fill="#85CB33"/>
<path d="M58.662 54.7489C99.6303 62.3366 35.8845 65.5992 32.1543 78.2824C32.312 78.7339 32.312 78.7339 32.312 78.7339C38.8766 85.6193 48.1342 89.9103 58.3933 89.9103C60.0971 89.9103 61.7723 89.7903 63.4117 89.5628C63.3526 89.475 63.4117 89.5628 63.2039 89.303C44.1728 77.2039 117.486 56.3184 58.662 54.7489Z" fill="#00C2CB"/>
<path d="M63.5798 18.0913C61.5767 20.4868 60.3691 23.5702 60.3691 26.9386C60.3691 34.5514 66.5343 40.7236 74.1399 40.7236C80.0148 40.7236 85.0278 37.0382 87.0058 31.8513C81.4105 24.5574 73.0971 19.4637 63.5798 18.0913Z" fill="#FFDE59"/>
<path d="M41.8755 61.6719L35.5688 58.3716L33.3687 49.1016L40.6876 52.0112L41.8755 61.6719Z" fill="#9EEBFF"/>
<path d="M50.2627 60.9695L41.7631 61.679L40.5537 52.0201L52.092 50.3933L50.2627 60.9695Z" fill="#9EEBFF"/>
<path d="M31.792 49.6928L38.3101 40.1343L45.7992 39.5179L54.7038 51.3895L38.9784 52.0775L31.792 49.6928Z" fill="#00C2CB"/>
<path d="M45.7994 39.5179L54.704 51.3895L38.9785 52.0775L45.7994 39.5179Z" fill="#00C2CB"/>
<path d="M58.3933 19.1198C59.2963 19.1198 60.1921 19.1556 61.0772 19.2237C59.7084 21.5475 58.9702 24.2135 58.9702 26.9386C58.9702 35.3129 65.7749 42.1248 74.1402 42.1248C77.2739 42.1248 80.2821 41.1752 82.8388 39.38C84.6484 38.1097 86.139 36.481 87.2355 34.6016C89.115 37.4181 90.5913 40.5248 91.5875 43.8376L88.7119 45.8318C88.074 46.2743 87.4147 46.7312 86.7643 46.9121C86.5045 46.9838 86.2447 47.0196 85.9688 47.0196C84.6734 47.0196 83.2741 46.2223 81.7942 45.3785C81.0525 44.9574 80.2856 44.5203 79.4955 44.1655C77.9851 43.4883 76.2813 43.1299 74.5649 43.1299C71.7484 43.1299 69.0304 44.058 66.9073 45.7404C65.6656 46.7258 64.6086 47.9674 63.5855 49.1696C61.939 51.101 60.3874 52.9268 58.3574 53.3818C58.0349 53.4553 57.7035 53.4911 57.3702 53.4911C56.4619 53.4911 55.5445 53.2188 54.6272 52.7942L54.7651 52.7888C55.0894 52.7745 55.3922 52.649 55.6287 52.4412C55.7703 52.3176 55.8867 52.1635 55.9691 51.9879C56.0802 51.7532 56.1214 51.497 56.0964 51.2462C56.0713 50.9971 55.9799 50.7553 55.824 50.5474L46.9194 38.6776C46.8836 38.6293 46.8442 38.5845 46.803 38.5415C46.7958 38.5343 46.7886 38.5289 46.7815 38.5235C46.7474 38.4877 46.7116 38.4537 46.6722 38.4232C46.6668 38.4178 46.6596 38.4143 46.6543 38.4107C46.6131 38.3784 46.5719 38.3498 46.5289 38.3229C46.5235 38.3193 46.5163 38.3157 46.5109 38.3121C46.4661 38.287 46.4214 38.262 46.3748 38.2405C46.3658 38.2369 46.3586 38.2351 46.3497 38.2315C46.3049 38.2118 46.2583 38.1939 46.2117 38.1795C46.1992 38.176 46.1866 38.1742 46.1741 38.1706C46.1311 38.158 46.0881 38.1473 46.0433 38.1383C46.0236 38.1348 46.0057 38.1348 45.986 38.133C45.9466 38.1276 45.9089 38.1204 45.8695 38.1186C45.8426 38.1186 45.8176 38.1204 45.7907 38.1204C45.7602 38.1204 45.7298 38.1186 45.6975 38.1204C45.6957 38.1204 45.6939 38.1222 45.6921 38.1222C45.6904 38.1222 45.6868 38.1222 45.685 38.1222L38.1958 38.7385C37.7748 38.7726 37.3914 38.9948 37.1531 39.3441L34.9296 42.6068C32.6631 41.9671 30.6278 41.6608 28.6892 41.6608C27.8669 41.6608 27.0552 41.7181 26.2741 41.831C26.1307 41.8525 25.9874 41.8758 25.8423 41.9008C30.7084 28.621 43.4633 19.1198 58.3933 19.1198ZM64.1714 19.6053C64.2377 19.6161 64.304 19.6268 64.3685 19.6376C64.4724 19.6555 64.5727 19.6734 64.6749 19.6931C64.8827 19.7308 65.0905 19.7702 65.2966 19.8114C65.3378 19.8203 65.379 19.8293 65.4202 19.8365C73.4307 21.4955 80.4361 25.9299 85.3901 32.0861C83.3942 36.4452 78.9688 39.3226 74.1402 39.3226C67.3176 39.3226 61.7688 33.7667 61.7688 26.9386C61.7688 24.2977 62.618 21.7231 64.1714 19.6053ZM40.0323 59.1259L36.784 57.4256L35.5979 52.4305L38.538 53.4069C38.5506 53.4105 38.5613 53.4123 38.5721 53.4159C38.6186 53.4302 38.667 53.441 38.7136 53.4499C38.7351 53.4535 38.7548 53.4589 38.7745 53.4625C38.8408 53.4714 38.9089 53.4786 38.9788 53.4786C38.9985 53.4786 39.02 53.4768 39.0397 53.4768L39.3228 53.4643L40.0323 59.1259ZM38.6742 49.7035L34.5874 48.0785L39.0899 41.4762L43.3325 41.1268L38.6742 49.7035ZM41.4387 50.4811L45.9896 42.1033L51.2374 49.0998L41.4387 50.4811ZM49.6105 53.0145C49.7897 53.1382 49.9706 53.2636 50.1534 53.389L49.0694 59.6634L43.0996 60.1615L42.2611 53.3353L49.6105 53.0145ZM31.7566 75.9819C31.624 75.8225 31.4932 75.663 31.3642 75.5018C31.3319 75.4605 31.2997 75.4211 31.2674 75.3817C31.1474 75.2312 31.0291 75.0789 30.9127 74.9266C30.8733 74.8747 30.8339 74.8227 30.7944 74.7725C30.6816 74.622 30.5687 74.4733 30.4594 74.3228C30.4182 74.2673 30.377 74.2118 30.3376 74.1562C30.2265 74.0039 30.119 73.8516 30.0115 73.6993C29.9739 73.6474 29.938 73.5936 29.9022 73.5417C29.7911 73.3822 29.6818 73.2228 29.5743 73.0615C29.5492 73.0257 29.5259 72.988 29.5026 72.9522C29.0099 72.2087 28.5441 71.4454 28.1087 70.6643C28.0747 70.6033 28.0406 70.5424 28.0066 70.4815C27.9224 70.3292 27.8418 70.1751 27.7594 70.021C27.7181 69.944 27.6769 69.867 27.6357 69.7881C27.5587 69.6394 27.4834 69.4907 27.4082 69.342C27.3652 69.2578 27.324 69.1718 27.281 69.0858C27.2093 68.9389 27.1376 68.792 27.0678 68.645C27.0248 68.5555 26.9836 68.4659 26.9424 68.3745C26.8743 68.2276 26.8062 68.0825 26.7399 67.9338C26.7005 67.8442 26.6611 67.7528 26.6199 67.6596C26.5554 67.5109 26.4909 67.3622 26.4264 67.2117C26.3923 67.1311 26.3601 67.0487 26.326 66.9663C26.1934 66.642 26.0644 66.3159 25.9408 65.988C25.9175 65.9235 25.8924 65.859 25.8674 65.7945C25.8172 65.6565 25.7688 65.5168 25.7186 65.3788C25.6792 65.266 25.638 65.1513 25.5986 65.0384C25.5538 64.9058 25.5108 64.7715 25.466 64.6389C25.4266 64.517 25.3872 64.3952 25.3478 64.2734C25.3066 64.1426 25.2671 64.0118 25.2259 63.8792C25.1883 63.752 25.1507 63.6266 25.1131 63.4976C25.0754 63.3686 25.0396 63.2396 25.002 63.1106C24.9661 62.978 24.9303 62.8454 24.8945 62.7128C24.8622 62.5874 24.8282 62.4602 24.7959 62.3348C24.7601 62.1933 24.7261 62.0499 24.692 61.9084C24.6634 61.7901 24.6347 61.6701 24.6078 61.55C24.5702 61.3888 24.5361 61.2258 24.5003 61.0645C24.4788 60.9624 24.4555 60.8585 24.4358 60.7563C24.3821 60.4965 24.3319 60.2368 24.2853 59.9734C24.2692 59.8928 24.2566 59.8103 24.2441 59.7279C24.2101 59.5398 24.1796 59.3517 24.1491 59.1635C24.133 59.056 24.1187 58.9485 24.1026 58.841C24.0793 58.6762 24.0542 58.5114 24.0327 58.3448C24.0184 58.2319 24.004 58.1172 23.9915 58.0025C23.9718 57.8413 23.9521 57.68 23.9359 57.517C23.9234 57.4023 23.9109 57.2859 23.9001 57.1694C23.884 57.0064 23.8696 56.8433 23.8571 56.6803C23.8481 56.5656 23.8374 56.451 23.8302 56.3363C23.8177 56.1661 23.8069 55.9977 23.798 55.8275C23.7908 55.7182 23.7836 55.6089 23.7783 55.4996C23.7693 55.3115 23.7639 55.1251 23.7586 54.937C23.755 54.8438 23.7514 54.7525 23.7478 54.6593C23.7424 54.378 23.7371 54.0967 23.7371 53.8136C23.7371 53.4732 23.7442 53.1328 23.7532 52.7924C23.7568 52.6849 23.7621 52.5774 23.7657 52.4699C23.7747 52.237 23.7854 52.0023 23.7998 51.7675C23.8069 51.6439 23.8141 51.5203 23.8231 51.3967C23.8392 51.1727 23.8571 50.9488 23.8768 50.7248C23.8876 50.6048 23.8965 50.4847 23.9091 50.3647C23.9359 50.0834 23.9682 49.8021 24.0022 49.5208C24.0237 49.3524 24.047 49.1822 24.0703 49.0138C24.0972 48.8256 24.1223 48.6375 24.1527 48.4494C24.1814 48.2648 24.2119 48.0821 24.2441 47.8975C24.2656 47.7721 24.2871 47.6449 24.3104 47.5195C24.3498 47.3081 24.3892 47.0985 24.4322 46.8888C24.4448 46.8243 24.4591 46.758 24.4734 46.6918C24.5917 46.1238 24.7243 45.563 24.8712 45.0058C25.4929 44.823 26.0877 44.6905 26.6754 44.6045C27.324 44.5113 28.0012 44.4629 28.6892 44.4629C30.1082 44.4629 31.6079 44.6618 33.2526 45.0649L30.6368 48.9027C30.3895 49.2646 30.3268 49.7233 30.4666 50.1407C30.6081 50.5564 30.936 50.8843 31.3516 51.0222L32.475 51.3949L34.2076 58.6959C34.3007 59.0901 34.5623 59.4251 34.9206 59.6133L40.7866 62.6824C41.041 62.9296 41.3868 63.0801 41.7612 63.0801C41.7989 63.0801 41.8401 63.0801 41.8795 63.0765L41.987 63.0676C42.0049 63.0658 42.021 63.064 42.0389 63.0622L50.3809 62.3653C51.0152 62.3115 51.5348 61.8367 51.6423 61.2078L52.7209 54.9728C54.1739 55.7433 55.7219 56.2933 57.3702 56.2933C57.8056 56.2933 58.241 56.2521 58.6674 56.175C68.0163 57.9237 70.2864 59.2083 70.831 59.6957C70.5211 59.9931 69.5912 60.6399 66.832 61.6378C64.2771 62.5605 60.8801 63.5316 57.2824 64.5618C46.9571 67.5145 35.4008 70.8219 31.7566 75.9837V75.9819ZM59.6134 88.4842C59.4934 88.4896 59.3733 88.4949 59.2551 88.4985C58.9684 88.5039 58.6817 88.5093 58.3933 88.5093C58.0941 88.5093 57.7949 88.5039 57.4956 88.4967C57.4007 88.4949 57.3057 88.4896 57.2108 88.486C57.0083 88.4788 56.8059 88.4734 56.6034 88.4627C56.4959 88.4573 56.3902 88.4501 56.2827 88.443C56.0946 88.4304 55.9046 88.4197 55.7165 88.4053C55.609 88.3982 55.5015 88.3874 55.394 88.3785C55.2077 88.3606 55.0214 88.3462 54.835 88.3265C54.7293 88.3158 54.6254 88.3032 54.5197 88.2907C54.3316 88.2692 54.1452 88.2495 53.9589 88.2262C53.8604 88.2136 53.76 88.1975 53.6615 88.1832C53.4716 88.1581 53.2799 88.1312 53.0899 88.1026C52.995 88.0882 52.9018 88.0703 52.8069 88.056C52.6134 88.0237 52.4199 87.9933 52.2281 87.9574C52.1386 87.9413 52.049 87.9234 51.9612 87.9073C51.7641 87.8696 51.567 87.8338 51.3717 87.7926C51.2875 87.7747 51.2069 87.7568 51.1227 87.7388C50.922 87.6958 50.7231 87.6528 50.5225 87.6063C50.4454 87.5866 50.3684 87.5668 50.2896 87.5489C50.0871 87.4988 49.8846 87.4504 49.6822 87.3984C49.6105 87.3787 49.5406 87.359 49.469 87.3411C49.2611 87.2856 49.0551 87.2282 48.8491 87.1691C48.7846 87.1512 48.7201 87.1315 48.6556 87.1118C48.4441 87.0508 48.2327 86.9881 48.0231 86.9218C47.964 86.9021 47.9066 86.8824 47.8475 86.8645C47.6325 86.7946 47.4193 86.7266 47.2061 86.6531C47.1541 86.6352 47.1004 86.6155 47.0466 86.5976C46.8299 86.5223 46.6131 86.4453 46.3981 86.3646C46.3515 86.3485 46.3067 86.3306 46.2601 86.3127C46.0379 86.2285 45.8176 86.1443 45.5972 86.0565C45.5578 86.0421 45.5184 86.0242 45.4789 86.0081C45.255 85.9185 45.031 85.8253 44.8089 85.7304C44.773 85.7161 44.739 85.6999 44.7049 85.6856C44.4774 85.5871 44.2516 85.4867 44.0295 85.3846C43.999 85.3703 43.9686 85.3559 43.9399 85.3434C43.7106 85.2377 43.483 85.1302 43.2573 85.0209C43.234 85.0083 43.2089 84.9958 43.1838 84.9833C42.9545 84.8704 42.7251 84.7557 42.4976 84.6375C42.4779 84.6267 42.4582 84.616 42.4367 84.6052C42.2056 84.4852 41.9762 84.3616 41.7487 84.2361C41.7326 84.229 41.7182 84.22 41.7021 84.2111C41.471 84.0821 41.2399 83.9513 41.0105 83.8187C40.998 83.8115 40.9872 83.8043 40.9747 83.7972C40.7436 83.661 40.5124 83.523 40.2831 83.3815C40.2741 83.3779 40.267 83.3726 40.258 83.3672C40.0269 83.2238 39.7958 83.0769 39.5664 82.93C39.5629 82.9264 39.5575 82.9228 39.5521 82.9193C39.321 82.7688 39.0916 82.6147 38.8641 82.4588C38.8623 82.4588 38.8605 82.457 38.8569 82.4552C38.6276 82.2976 38.3983 82.1363 38.1725 81.9733C38.1725 81.9733 38.1725 81.9733 38.1707 81.9715C36.5779 80.8212 35.0855 79.5384 33.7095 78.1391C34.6143 76.299 37.4021 74.3945 42.0103 72.4703C46.7582 70.4869 52.7585 68.7705 58.0511 67.2565C62.0411 66.1152 65.8108 65.0366 68.5449 63.9885C71.3022 62.935 73.841 61.6683 73.7407 59.572C73.6995 58.712 73.2731 57.9112 71.9992 57.1139C78.9043 58.0957 80.3054 59.5165 80.5419 60.2457C80.6834 60.6847 80.5974 61.7471 78.4241 63.9473C76.6163 65.7766 73.9933 67.7868 71.2162 69.9135C64.8845 74.7618 58.3395 79.7767 58.5599 84.8346C58.6172 86.1461 59.1189 87.3626 60.0613 88.4681C59.9341 88.4734 59.8051 88.4788 59.6779 88.4824C59.6564 88.4842 59.6349 88.4842 59.6134 88.4842ZM93.0387 54.6683C93.0369 54.7614 93.0334 54.8546 93.0298 54.9478C93.0244 55.1377 93.0172 55.3276 93.0083 55.5157C93.0029 55.6268 92.9957 55.7361 92.9886 55.8472C92.9796 56.0192 92.9689 56.1894 92.9563 56.3596C92.9474 56.4778 92.9384 56.5943 92.9294 56.7108C92.9151 56.8738 92.9008 57.0368 92.8846 57.1999C92.8739 57.3199 92.8614 57.4382 92.8488 57.5564C92.8309 57.7159 92.813 57.8771 92.7933 58.0348C92.7789 58.1548 92.7646 58.2731 92.7485 58.3913C92.727 58.5508 92.7055 58.7103 92.6822 58.8697C92.6643 58.9862 92.6481 59.1026 92.6284 59.2173C92.6034 59.3803 92.5765 59.5416 92.5478 59.7028C92.5299 59.8139 92.512 59.9268 92.4905 60.0379C92.46 60.2081 92.426 60.3801 92.3919 60.5503C92.374 60.6488 92.3543 60.7492 92.3346 60.8477C92.2898 61.0627 92.2432 61.2759 92.1949 61.4873C92.1823 61.5429 92.1716 61.5984 92.159 61.6522C92.0981 61.9155 92.0336 62.1789 91.9655 62.4405C91.9422 62.5319 91.9171 62.6233 91.8939 62.7128C91.8473 62.8866 91.8025 63.0586 91.7541 63.2288C91.7219 63.3381 91.6896 63.4474 91.6574 63.5567C91.6144 63.7072 91.5696 63.8595 91.523 64.01C91.4871 64.1247 91.4513 64.2393 91.4137 64.354C91.3671 64.4973 91.3223 64.6407 91.2739 64.784C91.2345 64.9005 91.1951 65.0187 91.1539 65.1352C91.1055 65.2731 91.0571 65.4111 91.0088 65.549C90.9658 65.6673 90.9228 65.7855 90.878 65.902C90.8278 66.0382 90.7776 66.1725 90.7257 66.3069C90.6791 66.4252 90.6343 66.5416 90.5877 66.6599C90.534 66.7943 90.4784 66.9268 90.4229 67.0594C90.3763 67.1759 90.3279 67.2905 90.2796 67.407C90.2222 67.5396 90.1631 67.6722 90.104 67.8048C90.0538 67.9176 90.0054 68.0323 89.9535 68.1452C89.8908 68.2831 89.8245 68.4211 89.76 68.5573C89.7116 68.663 89.6632 68.7687 89.6131 68.8726C89.5002 69.1037 89.3873 69.333 89.2709 69.5624C89.2117 69.6753 89.1508 69.7881 89.0917 69.9028C89.0272 70.0228 88.9645 70.1465 88.9 70.2665C88.8337 70.3865 88.7674 70.5066 88.7011 70.6266C88.6384 70.7377 88.5757 70.8506 88.513 70.9617C88.4431 71.0835 88.3714 71.2053 88.3016 71.3272C88.2389 71.4329 88.1761 71.5404 88.1116 71.6461C88.0382 71.7679 87.9629 71.8915 87.8877 72.0116C87.825 72.1155 87.7605 72.2176 87.696 72.3198C87.6189 72.4434 87.5401 72.5652 87.4613 72.6853C87.3968 72.7856 87.3323 72.8841 87.266 72.9827C87.1854 73.1045 87.1029 73.2281 87.0187 73.3482C86.956 73.4431 86.8897 73.5363 86.8252 73.6295C86.7392 73.7531 86.6514 73.8785 86.5636 74.0003C86.5027 74.0863 86.44 74.1723 86.3773 74.2565C86.2824 74.3855 86.1892 74.5145 86.0924 74.6435C86.0423 74.7098 85.9903 74.7779 85.9384 74.8442C85.5496 75.353 85.1464 75.8529 84.7326 76.3385C84.7039 76.3689 84.6788 76.4012 84.6501 76.4334C84.5301 76.5732 84.4083 76.7093 84.2864 76.8473C84.2345 76.9064 84.1825 76.9655 84.1306 77.0229C84.0141 77.1537 83.8941 77.2827 83.7758 77.4099C83.7167 77.4726 83.6594 77.5371 83.6002 77.5998C83.482 77.7252 83.3619 77.8506 83.2419 77.9743C83.181 78.037 83.1201 78.0997 83.0574 78.1624C82.9355 78.286 82.8137 78.4078 82.6901 78.5297C82.6291 78.5888 82.5682 78.6479 82.5073 78.707C82.3801 78.8307 82.2529 78.9543 82.1239 79.0761C82.0666 79.1299 82.0092 79.1818 81.9519 79.2356C81.8175 79.361 81.6814 79.4864 81.5452 79.61C81.4968 79.6513 81.4484 79.6943 81.4001 79.7373C81.2514 79.8698 81.1026 80.0006 80.9521 80.1314C80.9306 80.1493 80.9091 80.1673 80.8859 80.187C80.1531 80.814 79.3916 81.4125 78.6069 81.9786C78.5961 81.9876 78.5854 81.9966 78.5728 82.0037C78.3972 82.1309 78.2199 82.2563 78.0407 82.3782C78.0049 82.4033 77.969 82.4283 77.9332 82.4534C77.763 82.5699 77.591 82.6846 77.419 82.7992C77.3742 82.8279 77.3312 82.8566 77.2864 82.8852C77.1162 82.9963 76.9442 83.1074 76.7722 83.2167C76.7256 83.2436 76.6808 83.2722 76.6342 83.3009C76.4604 83.4102 76.2849 83.5177 76.1075 83.6234C76.0663 83.6485 76.0251 83.6718 75.9839 83.6968C75.7993 83.8043 75.6148 83.9136 75.4302 84.0176C75.4016 84.0337 75.3729 84.0498 75.3442 84.0659C74.0542 84.7933 72.7123 85.4419 71.3255 86.0009C71.3166 86.0045 71.3076 86.0099 71.2986 86.0117C71.0836 86.0995 70.8669 86.1837 70.6483 86.2661C70.6196 86.2768 70.5909 86.2876 70.5641 86.2983C70.3544 86.3772 70.143 86.4542 69.9316 86.5295C69.8958 86.542 69.8617 86.5546 69.8259 86.5671C69.6163 86.6406 69.4049 86.7122 69.1916 86.7821C69.1594 86.7928 69.1254 86.8036 69.0913 86.8143C68.8745 86.886 68.6559 86.9541 68.4356 87.0222C68.4159 87.0276 68.3944 87.0347 68.3729 87.0401C66.9144 87.4808 65.4148 87.8266 63.8829 88.0721H63.8811C62.2364 87.0096 61.4086 85.9096 61.3567 84.7109C61.199 81.1133 67.6956 76.1378 72.9165 72.1388C79.1157 67.3927 84.4692 63.2915 83.2043 59.3821C82.5593 57.3844 80.3645 56.0066 76.3028 55.0463C73.1871 54.3099 68.939 53.81 63.4028 53.527C64.2216 52.7386 64.9741 51.8589 65.7158 50.9882C66.6941 49.8379 67.6186 48.7522 68.647 47.937C70.2756 46.6452 72.3772 45.9321 74.5649 45.9321C75.8889 45.9321 77.1986 46.2062 78.3506 46.7222C79.0189 47.0232 79.6944 47.4066 80.4093 47.8151C82.1418 48.8023 83.9317 49.8218 85.9688 49.8218C86.4938 49.8218 87.0134 49.7519 87.5132 49.6122C88.6187 49.3058 89.5145 48.6841 90.3064 48.1358L92.3256 46.7365C92.3436 46.8261 92.3615 46.9175 92.3794 47.0089C92.4081 47.1576 92.4385 47.3063 92.4654 47.455C92.4851 47.5589 92.503 47.6646 92.5227 47.7685C92.555 47.9567 92.5872 48.1448 92.6177 48.3347C92.6284 48.401 92.6392 48.4673 92.6499 48.5336C92.6894 48.7952 92.7252 49.0568 92.7592 49.3201C92.7664 49.3721 92.7736 49.4258 92.7789 49.4778C92.8076 49.7 92.8327 49.9221 92.856 50.1443C92.8631 50.2088 92.8703 50.2715 92.8757 50.3342C92.9026 50.5994 92.9276 50.8628 92.9474 51.1279C92.9474 51.1315 92.9474 51.1369 92.9474 51.1405C92.9689 51.4146 92.9868 51.6869 93.0011 51.961C93.0047 52.0255 93.0065 52.0918 93.0101 52.1563C93.019 52.366 93.028 52.5756 93.0334 52.7852C93.0369 52.8605 93.0387 52.9339 93.0405 53.0074C93.0459 53.2761 93.0513 53.5449 93.0513 53.8136C93.0513 54.1003 93.0459 54.3834 93.0387 54.6683ZM95.8409 53.0522C95.8391 52.9662 95.8373 52.882 95.8355 52.7978C95.8301 52.6275 95.8248 52.4591 95.8176 52.2889C95.814 52.1886 95.8104 52.09 95.8051 51.9897C95.7961 51.7998 95.7854 51.6099 95.7728 51.42C95.7603 51.2229 95.7459 51.0258 95.7316 50.8287C95.728 50.7785 95.7226 50.7266 95.7191 50.6746C95.0526 42.5835 91.8204 35.019 86.4149 28.9345C86.3845 28.8987 86.354 28.8647 86.3254 28.8324C86.1981 28.6909 86.0709 28.5511 85.9419 28.4114C85.8291 28.2878 85.7162 28.1659 85.6015 28.0441C85.5478 27.9885 85.494 27.9312 85.4403 27.8757C82.8979 25.2115 80.0097 22.9593 76.8582 21.1713C76.8421 21.1623 76.8241 21.1515 76.808 21.1426C76.5894 21.019 76.3709 20.8989 76.1505 20.7807C76.0842 20.7448 76.0197 20.709 75.9534 20.675C75.785 20.5836 75.6166 20.4976 75.4464 20.4098C75.3263 20.3489 75.2081 20.288 75.0898 20.2288C74.9751 20.1715 74.8587 20.116 74.744 20.0604C74.5684 19.9744 74.3946 19.8902 74.2173 19.8078C74.1599 19.7809 74.1026 19.7558 74.0435 19.729C69.1988 17.4948 63.8865 16.3176 58.3933 16.3176C48.3886 16.3176 38.9841 20.2181 31.9089 27.3005C25.6452 33.5714 21.8755 41.6715 21.0926 50.3969C21.0836 50.508 21.0729 50.6209 21.0639 50.7338C21.0531 50.8717 21.0424 51.0097 21.0316 51.1476C21.0155 51.3895 20.9994 51.6332 20.9869 51.8768C20.9833 51.961 20.9815 52.0435 20.9761 52.1259C20.9671 52.3301 20.96 52.5326 20.9546 52.735C20.9528 52.8193 20.9492 52.9035 20.9474 52.9877C20.9421 53.2636 20.9385 53.5395 20.9385 53.8136C20.9385 54.4407 20.9528 55.0642 20.9833 55.6841C21.4384 64.999 25.2761 73.6886 31.9089 80.3285C32.1059 80.5274 32.3084 80.7227 32.5091 80.9162C32.5682 80.9717 32.6291 81.029 32.6882 81.0846C32.8405 81.2297 32.9928 81.3713 33.1469 81.5128C33.206 81.5666 33.2651 81.6203 33.3243 81.6741C33.5285 81.8586 33.7328 82.0413 33.9406 82.2205C33.9746 82.2492 34.0105 82.2796 34.0445 82.3083C34.2201 82.4588 34.3957 82.6075 34.5731 82.7544C34.6465 82.8136 34.7182 82.8727 34.7899 82.9318C34.9404 83.0554 35.0926 83.1773 35.2449 83.2973C35.3148 83.3511 35.3829 83.4066 35.4528 83.4603C35.6588 83.6216 35.8666 83.7793 36.0763 83.9369C36.1461 83.9889 36.2178 84.039 36.2877 84.091C36.4364 84.2003 36.5851 84.3096 36.7356 84.4153C36.827 84.4816 36.9184 84.5461 37.0115 84.6106C37.1495 84.7073 37.2874 84.8023 37.4272 84.8955C37.515 84.9564 37.6028 85.0173 37.6924 85.0764C37.8966 85.2126 38.1009 85.3452 38.3069 85.4778C38.4126 85.5458 38.5201 85.6103 38.6258 85.6766C38.7459 85.7519 38.8641 85.8253 38.9841 85.8988C39.1006 85.9705 39.2189 86.0403 39.3371 86.1102C39.4482 86.1765 39.5611 86.2428 39.6721 86.3073C39.8889 86.4309 40.1039 86.5546 40.3225 86.6746C40.4229 86.7301 40.525 86.7875 40.6253 86.843C40.7651 86.9183 40.9066 86.9917 41.0464 87.0652C41.1359 87.1118 41.2237 87.1583 41.3133 87.2031C41.4602 87.2784 41.6071 87.3536 41.7541 87.4271C41.8221 87.4611 41.8902 87.4934 41.9583 87.5256C42.2772 87.6833 42.5979 87.8338 42.9204 87.9807C42.9563 87.9968 42.9921 88.0148 43.0279 88.0291C43.1981 88.1061 43.3684 88.1814 43.5404 88.2548C43.5977 88.2799 43.6568 88.305 43.7141 88.3301C44.2982 88.5791 44.8877 88.8138 45.4843 89.0324C45.4897 89.0342 45.4969 89.0378 45.504 89.0396C45.7011 89.1113 45.8982 89.1811 46.0953 89.251C46.1239 89.26 46.1526 89.2689 46.1813 89.2797C47.0108 89.5646 47.8529 89.8208 48.7021 90.0483C48.7057 90.0483 48.7093 90.0501 48.7129 90.0519C49.383 90.2293 50.0584 90.3887 50.7411 90.5303C50.7446 90.5303 50.7482 90.5321 50.7518 90.5321C51.0224 90.5876 51.2947 90.6413 51.567 90.6915C51.6226 90.7023 51.6781 90.7112 51.7336 90.722C51.9845 90.7668 52.2371 90.808 52.4915 90.8492C52.5614 90.8599 52.6295 90.8707 52.6994 90.8814C52.8893 90.9101 53.0774 90.937 53.2673 90.9621C53.2673 90.9621 53.2673 90.9621 53.2691 90.9621C53.339 90.9728 53.4106 90.9818 53.4823 90.9907C54.0628 91.0678 54.6487 91.1287 55.2364 91.1771C55.3403 91.1878 55.4442 91.1968 55.5481 91.2057C56.4905 91.2756 57.4401 91.3114 58.3933 91.3114C58.8501 91.3114 59.3052 91.3007 59.7603 91.2846C59.8535 91.281 59.9466 91.2774 60.0398 91.2738C60.3014 91.2631 60.5648 91.2487 60.8246 91.2308C60.8962 91.2272 60.9679 91.2236 61.0396 91.2183C61.5538 91.1824 62.0662 91.1358 62.5768 91.0785C62.5894 91.0767 62.6019 91.0767 62.6144 91.0749C62.876 91.0463 63.1376 91.014 63.3992 90.9782C63.4064 90.9782 63.4153 90.9764 63.4225 90.9746C65.2876 90.7273 67.1187 90.3403 68.9068 89.819C68.939 89.81 68.9731 89.8011 69.0053 89.7903C69.2293 89.7258 69.4514 89.6559 69.6736 89.5878C69.7184 89.5735 69.765 89.5574 69.8116 89.5431C70.0266 89.475 70.2434 89.4033 70.4566 89.3316C70.5049 89.3155 70.5515 89.2994 70.5981 89.2833C70.8149 89.208 71.0299 89.1328 71.2467 89.0539C71.2807 89.0414 71.3148 89.0288 71.3488 89.0145C72.2966 88.6669 73.2301 88.2799 74.1456 87.8535C74.1868 87.8356 74.228 87.8159 74.2692 87.7962C74.4484 87.7138 74.6258 87.626 74.8031 87.54C74.8838 87.5006 74.9644 87.4611 75.045 87.4217C75.2063 87.3411 75.3675 87.2587 75.5288 87.1745C75.6237 87.1261 75.7187 87.0777 75.8119 87.0276C75.9641 86.9469 76.1164 86.8663 76.2669 86.7839C76.3691 86.7283 76.4712 86.6728 76.5733 86.6155C76.7184 86.5348 76.8618 86.4524 77.0069 86.37C77.1126 86.3091 77.2201 86.2464 77.3258 86.1837C77.4638 86.1031 77.6035 86.0206 77.7415 85.9382C77.8526 85.8701 77.9636 85.8003 78.0747 85.7304C78.2073 85.6498 78.3381 85.5691 78.4689 85.4849C78.5943 85.4043 78.7179 85.3237 78.8434 85.2413C79.0207 85.1248 79.1963 85.0083 79.3719 84.8883C79.5403 84.7754 79.7069 84.6608 79.8736 84.5443C79.9757 84.4726 80.076 84.3974 80.1781 84.3257C80.3125 84.229 80.4487 84.1322 80.5831 84.0319C80.687 83.9548 80.7891 83.876 80.893 83.799C81.022 83.7004 81.1528 83.6019 81.2818 83.5016C81.3839 83.4227 81.4861 83.3421 81.5882 83.2615C81.7172 83.1593 81.8462 83.0554 81.9734 82.9515C82.0719 82.8709 82.1723 82.7885 82.2708 82.7078C82.3998 82.6003 82.5288 82.4911 82.656 82.3818C82.751 82.3011 82.8459 82.2205 82.9409 82.1381C83.0735 82.0216 83.2061 81.9034 83.3386 81.7851C83.4246 81.7081 83.5124 81.631 83.5984 81.5522C83.7436 81.4196 83.8869 81.2835 84.032 81.1491C84.1019 81.0828 84.1736 81.0165 84.2452 80.9484C84.4584 80.7442 84.6699 80.5381 84.8795 80.3285C91.5122 73.6886 95.35 64.999 95.8033 55.6841C95.8337 55.0642 95.8499 54.4407 95.8499 53.8136C95.8499 53.5592 95.8463 53.3066 95.8409 53.0522Z" fill="#00622A"/>
<path d="M21.5514 28.1008L19.9963 27.1226C19.9748 27.2731 19.9282 27.463 19.8565 27.6941C19.7275 28.0919 19.4928 28.6993 19.0216 29.5664C18.4626 29.3048 17.8606 28.9823 17.3249 28.6455L16.3861 28.056C16.5867 27.7765 16.7641 27.5454 16.9164 27.3573C17.212 26.99 17.4163 26.7535 17.5865 26.5994L16.0026 25.605C15.9722 25.7161 15.9238 25.8559 15.8557 26.0171C15.7464 26.2966 15.5404 26.7123 15.2161 27.3215L13.2345 26.0763C13.48 25.7502 13.7147 25.4671 13.9279 25.2198C14.3525 24.7379 14.6786 24.3993 14.9939 24.143L13.4388 23.1648L9.90381 28.7924C10.2209 28.9358 10.5488 29.0845 10.8946 29.2457C11.4769 29.5216 12.2133 29.9033 12.8654 30.3135L15.3111 31.8508C15.6318 32.0515 15.9507 32.2683 16.266 32.4904C16.8985 32.9455 17.4342 33.3468 17.9824 33.7804L21.5514 28.1008Z" fill="#85CB33"/>
<path d="M26.7708 19.6323C26.7708 19.6323 26.7618 19.6717 26.7385 19.7451L26.649 20.0587C26.563 20.3185 26.434 20.6625 26.2566 21.0065C26.0792 21.3505 25.8499 21.7124 25.5632 21.9811C25.0311 22.49 24.4327 22.5276 23.7895 22.275C23.1516 22.0259 22.4618 21.4723 21.747 20.7879C20.9748 20.0515 20.3746 19.3456 20.1058 18.6701C19.8335 18.0001 19.8926 17.3604 20.448 16.7781C20.6576 16.5596 20.8762 16.3893 21.102 16.2621C21.5588 16.0131 21.9602 15.8733 22.383 15.8196L21.3223 14.3988C21.1414 14.5009 20.9389 14.6317 20.7186 14.7912C20.3405 15.0689 19.8191 15.4846 19.244 16.0866C18.5847 16.7781 18.0328 17.5629 17.696 18.4139C17.361 19.2632 17.2409 20.1751 17.4362 21.0853C17.6279 22.0008 18.135 22.9235 19.0648 23.8122C20.1398 24.8388 21.4101 25.2438 22.6948 25.0825C23.9812 24.9213 25.2783 24.2118 26.4393 22.997C26.7565 22.6638 27.0324 22.3466 27.2599 22.0582C27.7132 21.4848 27.9999 21.0548 28.1414 20.8076C28.2059 20.6893 28.2435 20.6302 28.2435 20.6302L26.7708 19.6323Z" fill="#85CB33"/>
<path d="M34.1468 16.902C34.9136 16.4147 35.6123 15.784 36.1427 15.0387C36.673 14.2952 37.0188 13.4405 37.0636 12.4981C37.1102 11.5557 36.8468 10.5255 36.1642 9.45049C35.3669 8.19632 34.2148 7.51011 32.8926 7.37932C31.565 7.25391 30.06 7.68032 28.555 8.63528C27.7881 9.12261 27.0858 9.74791 26.5608 10.4879C26.0377 11.2278 25.6901 12.0932 25.6435 13.0356C25.5987 13.9762 25.8621 15.0082 26.5447 16.0815C27.3402 17.3356 28.512 18.0111 29.845 18.1347C31.178 18.2583 32.6776 17.8355 34.1468 16.902ZM29.8718 13.7899C29.3003 12.8887 28.9223 12.0377 28.8237 11.3174C28.7252 10.5972 28.9115 10.0059 29.4866 9.64041C30.0044 9.31253 30.5831 9.41645 31.1565 9.81957C31.7298 10.2209 32.3085 10.9143 32.8353 11.7438C33.4068 12.645 33.7866 13.4961 33.8852 14.2163C33.9765 14.9402 33.7848 15.535 33.2043 15.9041C32.6865 16.232 32.1186 16.1191 31.5417 15.7124C30.9648 15.3039 30.4004 14.6195 29.8718 13.7899Z" fill="#85CB33"/>
<path d="M53.539 7.89779C53.539 7.89779 53.5103 7.92466 53.4476 7.97124L53.1914 8.17191C52.971 8.33316 52.6646 8.53741 52.3206 8.71299C51.9748 8.89037 51.5789 9.04804 51.1883 9.09999C50.4591 9.20212 49.952 8.8832 49.5776 8.3027C49.2031 7.72937 48.9666 6.87654 48.7857 5.90366C48.5886 4.85554 48.5133 3.93104 48.6907 3.22691C48.8591 2.52279 49.2802 2.03904 50.0703 1.89033C50.3677 1.83479 50.6472 1.82404 50.9034 1.8527C51.4194 1.9172 51.8279 2.03724 52.2006 2.2397L52.1701 0.467745C51.9623 0.444453 51.7222 0.433703 51.4499 0.435495C50.9822 0.439078 50.3157 0.473119 49.4987 0.625411C48.5581 0.800994 47.6515 1.11812 46.8829 1.61083C46.1143 2.10533 45.4836 2.7772 45.1109 3.63004C44.7329 4.48466 44.6057 5.53099 44.8422 6.79412C45.1163 8.25612 45.9118 9.32574 47.0495 9.94566C48.1872 10.5656 49.6564 10.7447 51.3065 10.4366C51.7598 10.3524 52.1683 10.2538 52.5195 10.1535C53.2236 9.95104 53.7074 9.77008 53.9654 9.65183C54.0872 9.59449 54.1535 9.56762 54.1535 9.56762L53.539 7.89779Z" fill="#85CB33"/>
<path d="M66.5466 9.589C66.4857 9.55317 66.4122 9.48687 66.328 9.39371C66.1435 9.21275 65.9088 8.92608 65.6669 8.49429C65.425 8.06967 65.1903 7.50171 65.0058 6.76892C64.8588 6.21171 64.5023 5.72617 64.0795 5.36067C63.6495 4.99696 63.1568 4.76762 62.7393 4.71387C63.266 4.62787 63.7785 4.42362 64.1583 4.10471C64.5328 3.78579 64.7872 3.34325 64.814 2.76454C64.8535 1.94037 64.6098 1.2685 64.1153 0.797292C63.6208 0.326083 62.8898 0.0645003 61.9528 0.048375C61.3131 0.0519586 60.8222 0.0698755 60.3886 0.0770417C59.9461 0.091375 59.5752 0.100333 59.1685 0.102125C58.7618 0.111083 58.3408 0.105708 57.7979 0.0788333L56.1083 0C56.1406 0.345792 56.171 0.705917 56.2015 1.08575C56.2463 1.72896 56.2839 2.55671 56.2481 3.32533L56.1065 6.32996C56.0886 6.69367 56.0582 7.06454 56.0205 7.43362C55.9363 8.18075 55.8503 8.82396 55.7446 9.48687L60.0249 9.68933C59.9873 9.33637 59.955 8.97625 59.9318 8.60358C59.887 7.96754 59.8547 7.15412 59.8905 6.39087L60.1253 1.41542C60.6251 1.48708 60.944 1.591 61.134 1.78629C61.3185 1.97979 61.374 2.27183 61.3525 2.71258C61.3436 2.91862 61.3149 3.08883 61.2665 3.225C61.1698 3.50271 61.0318 3.67471 60.876 3.75712C60.7201 3.83954 60.5821 3.87537 60.4782 3.87C60.4298 3.87358 60.3958 3.87179 60.3886 3.87179L60.2865 3.86821L60.4263 5.12775C60.4872 5.13671 60.5606 5.21017 60.6377 5.33021C60.7004 5.43592 60.7756 5.61329 60.867 5.85158C60.953 6.09525 61.0462 6.43746 61.1483 6.89075C61.306 7.51783 61.4798 8.04279 61.6876 8.46562C62.0961 9.31846 62.6157 9.81833 63.2463 10.0333C63.8698 10.2555 64.574 10.2125 64.995 10.1838C65.4178 10.157 65.7565 10.1175 66.0073 10.0674C66.2563 10.0244 66.4319 9.976 66.5717 9.92225L66.6254 9.65529L66.5466 9.589Z" fill="#85CB33"/>
<path d="M76.8283 12.2887C76.6885 11.6419 76.5308 10.7443 76.4556 9.64961L75.9503 2.86995L72.9081 2.20703L68.8105 7.32941C68.5561 7.64653 68.2856 7.96724 68.0007 8.28974C67.4238 8.92757 66.9132 9.46866 66.3506 10.0169L68.8768 10.7873C68.8965 10.7497 68.9073 10.7103 68.9216 10.6655C68.936 10.6189 68.9539 10.5598 68.9825 10.4899C69.0363 10.3394 69.1348 10.1334 69.3337 9.79116C69.529 9.45432 69.8264 8.99924 70.2833 8.35424C70.423 8.39007 70.5843 8.42411 70.7617 8.45636C70.939 8.49041 71.1254 8.53878 71.3225 8.5997L71.7435 8.7287C71.8815 8.76991 72.0069 8.80932 72.1036 8.84516C72.3061 8.91503 72.4602 8.97595 72.591 9.03686C72.659 9.0727 72.7289 9.10853 72.7988 9.1372L72.8275 9.53495C72.8579 9.90941 72.8561 10.2409 72.831 10.5347C72.7755 11.1224 72.6823 11.5398 72.5963 11.7512L72.53 11.9035L77.0827 13.2939C76.9931 13 76.9071 12.665 76.8283 12.2887ZM72.5856 7.57486C72.5426 7.56949 72.5032 7.55695 72.4709 7.54799C72.4297 7.54261 72.3903 7.53007 72.3437 7.51574L72.1663 7.46199L71.679 7.31328C71.5016 7.25953 71.3332 7.20041 71.1648 7.13411L72.5659 5.1167L72.7325 7.61249C72.6698 7.60174 72.625 7.58741 72.5856 7.57486Z" fill="#85CB33"/>
<path d="M79.8509 11.245C79.6664 11.5747 79.4657 11.9044 79.2597 12.2305C78.8368 12.8844 78.4624 13.4398 78.0557 14.0078L81.7931 16.1076C81.9167 15.7744 82.0493 15.4375 82.189 15.0918C82.4327 14.5023 82.7713 13.7605 83.1458 13.094L83.6098 12.2663C83.9001 12.4526 84.1384 12.6193 84.3354 12.7608C84.7153 13.0367 84.9625 13.2302 85.1238 13.3933L86.0393 11.761C85.9264 11.7378 85.7849 11.6965 85.6201 11.6356C85.3352 11.5389 84.9106 11.3561 84.2871 11.0605L85.509 8.88363C85.853 9.11475 86.1468 9.33513 86.3994 9.53221C86.9011 9.93175 87.2559 10.2417 87.5282 10.5445L88.4276 8.94275L82.6316 5.68909C82.5062 6.01338 82.3718 6.34842 82.2285 6.70138C81.9812 7.29621 81.6444 8.05409 81.2663 8.72596L79.8509 11.245Z" fill="#85CB33"/>
<path d="M89.2366 21.6106C89.4301 21.315 89.6325 21.0176 89.8511 20.7148C90.2184 20.1988 90.7021 19.5448 91.1913 18.959L94.2837 15.2556C94.4718 15.4598 94.6474 15.6587 94.8122 15.8594C95.1347 16.2553 95.3802 16.594 95.597 16.9451L96.7759 15.5351L90.7129 10.4736L89.5358 11.8837C89.7185 11.9535 89.912 12.0449 90.1163 12.1435C90.4728 12.3065 90.9189 12.5555 91.374 12.8368L88.287 16.5331C88.0451 16.8233 87.7871 17.11 87.5255 17.3931C86.9898 17.9592 86.5204 18.4358 86.0151 18.9196L89.2366 21.6106Z" fill="#85CB33"/>
<path d="M91.5698 23.6902C91.6666 23.9034 91.7777 24.1346 91.921 24.3818C92.1557 24.8046 92.5104 25.3601 92.9978 25.9459C93.8291 26.9475 94.6515 27.4617 95.447 27.571C96.2425 27.6785 97.0129 27.3882 97.7367 26.7862C98.0073 26.5605 98.2205 26.3222 98.3817 26.0534C98.6935 25.5249 98.8494 24.948 98.8906 24.3513C98.9264 23.7583 98.9103 23.1814 98.8834 22.6403C98.8673 22.3751 98.8727 22.1225 98.8888 21.8932C98.9157 21.4327 99.0034 21.0636 99.274 20.8397C99.4585 20.6856 99.6556 20.7196 99.824 20.8021C99.9924 20.8863 100.118 21.0153 100.166 21.0744C100.32 21.2589 100.433 21.4596 100.516 21.6782C100.671 22.1118 100.729 22.4934 100.734 22.7388V22.9091L102.243 22.0222C102.207 21.8735 102.144 21.7015 102.055 21.508C101.901 21.1801 101.632 20.7053 101.157 20.1338C99.7147 18.3994 98.1004 18.1468 96.5077 19.4708C96.2747 19.6643 96.083 19.8847 95.9433 20.1356C95.6477 20.6318 95.4936 21.198 95.4237 21.7928C95.3484 22.3931 95.3377 22.9825 95.3323 23.5236C95.3269 23.7977 95.3126 24.0503 95.2965 24.2779C95.2499 24.7383 95.1585 25.0913 94.9417 25.2705C94.7984 25.3905 94.6784 25.4622 94.5386 25.4532C94.3971 25.4461 94.2502 25.3547 94.0728 25.1415C93.9026 24.9354 93.7539 24.6828 93.632 24.4266C93.5048 24.1668 93.4027 23.8927 93.3257 23.6616C93.2307 23.3731 93.1537 23.0882 93.0981 22.8051L91.5698 23.6902Z" fill="#85CB33"/>
<path d="M43.0328 105.3C45.3817 106.015 47.0497 104.877 47.3722 103.817C47.6392 102.937 46.9709 102.347 46.3366 102.715C46.0195 102.894 45.5501 103.087 44.7976 102.858C43.5757 102.487 43.3338 100.868 43.8157 99.2819C43.9895 98.7122 44.2905 98.6656 44.5647 98.7498C44.8495 98.8358 45.0126 99.0347 45.0807 99.4289C45.258 100.443 45.7919 100.855 46.3402 101.022C47.2754 101.307 47.8613 100.774 48.0459 100.171C48.1587 99.7926 48.1229 99.3841 47.9455 98.9809C47.8649 98.7946 47.7664 98.6262 47.6338 98.4488C47.5012 98.2715 47.3417 98.0995 47.1536 97.9418C46.6824 97.5243 46.0535 97.1714 45.3243 96.9492C43.1564 96.2899 40.8111 97.2825 40.0747 99.7012C39.3312 102.141 40.614 104.564 43.0328 105.3Z" fill="#85CB33"/>
<path d="M52.0062 106.996L52.3735 107.039C52.7282 107.08 52.9289 107.116 53.2962 107.159C54.0415 107.247 54.3425 107.041 54.3999 106.545C54.4393 106.213 54.3497 106.057 54.1759 105.894C53.9824 105.703 53.9412 105.543 54.0774 104.382L54.3873 101.729C54.5235 100.568 54.5988 100.433 54.8209 100.279C55.018 100.147 55.1506 100.03 55.19 99.6988C55.2473 99.2007 55.0019 98.9445 54.2565 98.8567L53.332 98.7492C53.2138 98.7349 53.083 98.7187 52.9647 98.7062L52.042 98.5969C51.2949 98.5109 50.9975 98.7026 50.9384 99.2007C50.899 99.5321 50.9903 99.6862 51.1623 99.8511C51.3558 100.041 51.397 100.202 51.2609 101.363L50.9509 104.017C50.8147 105.176 50.727 105.323 50.5173 105.466C50.322 105.599 50.1877 105.715 50.15 106.047C50.0909 106.545 50.3364 106.813 51.0817 106.899C51.449 106.942 51.6515 106.955 52.0062 106.996Z" fill="#85CB33"/>
<path d="M61.1238 107.343L63.0624 107.201C63.8722 107.148 64.4258 107.038 64.3828 106.384C64.3595 106.039 64.2072 105.906 63.96 105.791C63.6035 105.623 63.5927 105.469 63.5049 104.148L63.272 100.674C63.2559 100.425 63.3938 100.356 63.5246 100.347L63.5497 100.345C63.8113 100.329 64.1248 100.725 64.3506 101.081C64.5387 101.379 64.7877 101.708 65.3826 101.669C65.9165 101.633 66.2605 101.228 65.8179 99.5959C65.5635 98.6696 65.2787 98.5083 64.9329 98.5316C64.4581 98.5639 64.2323 98.7592 63.0301 98.838L59.9485 99.044C59.0455 99.105 58.5689 98.958 58.1281 98.9867C57.7483 99.0118 57.5118 99.4113 57.4186 100.158C57.2054 101.809 57.5548 102.192 58.1245 102.154C58.7194 102.113 58.9236 101.753 59.0687 101.434C59.2461 101.04 59.5041 100.615 59.7657 100.597L59.8248 100.594C59.909 100.588 60.0667 100.639 60.0846 100.888L60.3265 104.528C60.4053 105.695 60.3444 105.852 60.0828 106.049C59.8553 106.22 59.7227 106.397 59.7424 106.694C59.7765 107.194 60.1366 107.409 61.1238 107.343Z" fill="#85CB33"/>
<path d="M73.1226 105.398L75.235 104.766C75.9552 104.549 76.1487 104.243 76.0054 103.763C75.9086 103.444 75.7617 103.325 75.5413 103.254C75.2941 103.179 75.1973 103.021 75.02 102.428L74.9375 102.154C74.8282 101.788 74.6939 100.969 74.8121 100.448L75.3442 98.0723C75.4428 97.6566 75.5521 97.4381 75.6829 97.2499C75.8638 96.983 76.1147 96.7841 76.0018 96.4061C75.8817 96.0065 75.4947 95.9617 74.8103 96.1678L73.816 96.4652C73.3358 96.6085 72.947 96.888 73.067 97.2876C73.1082 97.4237 73.1996 97.5223 73.3609 97.6853C73.4845 97.8089 73.6977 97.9809 73.678 98.2873L73.6135 99.1527C73.592 99.4949 73.3232 99.5504 73.0993 99.3068L72.8771 99.0613C72.56 98.7083 72.4095 98.5417 72.508 98.2013C72.5618 98.0114 72.7051 97.7444 72.6335 97.5043C72.5475 97.2195 72.354 96.9041 71.4169 97.1836L68.8477 97.9558C68.1059 98.178 67.5595 98.4288 67.7601 99.1025C67.8497 99.3999 68.2725 99.5218 68.7491 99.7027C68.948 99.7798 69.2293 99.9321 69.5339 100.238L71.0407 101.779C71.433 102.172 71.8344 102.723 71.9365 103.066L72.0153 103.329C72.1945 103.922 72.1999 104.107 72.035 104.306C71.8899 104.486 71.8326 104.666 71.9275 104.986C72.0709 105.465 72.4023 105.615 73.1226 105.398Z" fill="#85CB33"/>
<path d="M4 53.7921H21.8987" stroke="#00622A" stroke-width="7.9896" stroke-linecap="round"/>
<path d="M95.165 53.7921H113.064" stroke="#00622A" stroke-width="7.9896" stroke-linecap="round"/>
</svg>
