<svg width="139" height="139" viewBox="0 0 139 139" fill="none" xmlns="http://www.w3.org/2000/svg">
<path fill-rule="evenodd" clip-rule="evenodd" d="M69.51 35.2985C68.9864 35.042 68.3949 34.897 67.7405 34.8965C65.7622 34.8956 64.3563 36.2179 63.6559 37.9471C63.2814 38.8707 63.0673 39.9072 62.9149 40.89L62.8994 40.9931C62.7511 41.9468 62.7605 42.7187 62.927 43.5141C62.8023 43.7157 62.6834 43.9181 62.5714 44.1242C59.9029 45.8621 58.3248 48.8991 58.6608 52.1864L58.6933 52.5051C58.0604 53.5011 57.9156 54.7529 58.0675 55.995C58.1495 56.6628 58.3466 57.1557 58.4995 57.779C58.5431 57.9569 58.6975 58.5562 58.6819 58.742C58.6711 58.8667 58.6302 59.022 58.6019 59.1431C58.4999 59.5757 58.3884 60.0059 58.2872 60.439C58.2445 60.622 58.2115 60.8061 58.1884 60.9896C57.0206 61.1098 56.0482 61.1534 54.8721 61.7888C54.4956 61.9941 54.5474 61.9573 54.1898 62.2281C52.5714 63.4434 51.668 65.6662 51.0424 67.5314C50.3414 69.6289 49.8285 71.847 49.4098 74.0177C49.0428 75.9379 48.7416 77.8884 48.5395 79.8338C48.4218 80.9956 48.323 82.3013 48.3889 83.5722C47.7585 83.6663 47.1514 83.7794 46.5775 83.8971C42.6443 84.7207 37.8361 86.6083 36.9704 91.0518C36.2034 95.0245 36.9798 98.9925 40.6776 101.153C42.0515 101.953 43.8629 102.377 45.4154 102.673C47.4761 103.064 49.5934 103.304 51.6775 103.492C56.9897 103.968 62.4043 104.118 67.7368 104.118C68.3263 104.118 68.9167 104.118 69.5076 104.114C70.0995 104.118 70.6904 104.118 71.281 104.118C76.6133 104.118 82.028 103.968 87.3402 103.492C89.4263 103.304 91.5429 103.064 93.6019 102.673C95.1535 102.377 96.9661 101.953 98.3376 101.153C102.039 98.9925 102.816 95.0245 102.045 91.0518C101.182 86.6083 96.3719 84.7208 92.4416 83.8971C91.8671 83.7794 91.2579 83.6663 90.6293 83.5722C90.6928 82.3013 90.5958 80.9956 90.4769 79.8339C90.2769 77.8884 89.9748 75.9379 89.6056 74.0178C89.1883 71.847 88.6744 69.6289 87.9735 67.5314C87.3496 65.6662 86.4439 63.4434 84.8293 62.2281C84.4699 61.9573 84.524 61.9941 84.1446 61.7888C82.9695 61.1534 81.997 61.1098 80.8293 60.9896C80.8063 60.8061 80.7733 60.622 80.7304 60.439C80.6293 60.0059 80.5178 59.5757 80.4162 59.1431C80.3875 59.022 80.3466 58.8667 80.3357 58.742C80.3198 58.5562 80.474 57.9569 80.5183 57.779C80.6713 57.1557 80.8684 56.6628 80.9502 55.995C81.1022 54.7529 80.9572 53.5011 80.3245 52.5051L80.3574 52.1864C80.6933 48.8991 79.1147 45.8616 76.4462 44.1242C76.3338 43.9175 76.2144 43.7147 76.0897 43.5132C76.2562 42.7192 76.2656 41.9486 76.1188 40.9969L76.1033 40.8938C75.9518 39.9113 75.7391 38.875 75.3661 37.951C74.6669 36.2211 73.2621 34.8974 71.2842 34.8965C70.6283 34.8959 70.0356 35.0415 69.51 35.2985Z" fill="#5E239D"/>
<path fill-rule="evenodd" clip-rule="evenodd" d="M96.443 97.9056C98.1014 96.9358 98.9975 95.0859 98.3543 91.7722C97.5697 87.7336 88.1836 86.7685 84.9895 87.0228C85.7154 85.9072 87.3936 86.6133 86.7364 80.2193C86.1798 74.8037 84.4042 66.6163 82.5689 65.2348C81.3429 64.3126 79.2412 65.3877 75.4962 63.1058C74.5388 62.5221 74.3708 62.2566 74.3953 61.856C74.7853 61.4991 75.1009 61.0604 75.3474 60.5475C75.4012 60.6849 75.4618 60.8166 75.5295 60.9419C75.6157 61.101 75.7136 61.2492 75.8227 61.3844C76.288 61.9587 77.3526 62.5103 77.0685 61.2944C76.584 59.2163 76.3496 58.9799 76.8667 56.8801C76.9801 56.4193 77.1682 55.942 77.2176 55.5372C77.3211 54.6943 77.2397 53.903 76.2908 54.9884L76.6164 51.8046C76.8431 49.5848 75.5282 47.6511 73.5216 46.8174C73.2784 45.9767 72.6865 45.1625 72.3303 44.638C71.5691 43.5182 72.7119 43.5851 72.4024 41.57L72.3868 41.4668C71.8129 37.722 70.7485 37.722 70.1746 41.4668L70.1586 41.57C69.8495 43.5851 70.9917 43.5182 70.2305 44.638C69.8745 45.1625 69.2827 45.9767 69.0394 46.8174C67.0328 47.6511 65.7182 49.5848 65.9445 51.8046L66.2701 54.9884C65.3212 53.903 65.2397 54.6943 65.3432 55.5372C65.3926 55.942 65.5809 56.4193 65.6942 56.8801C66.2113 58.9799 65.9771 59.2163 65.4924 61.2944C65.2088 62.5103 66.273 61.9587 66.7383 61.3844C66.8474 61.2492 66.9452 61.101 67.0313 60.9419C67.099 60.8166 67.1598 60.6849 67.2134 60.5475C67.4599 61.0604 67.7756 61.4991 68.1656 61.856C68.1906 62.2566 68.0226 62.5221 67.0648 63.1058C63.3198 65.3877 61.2181 64.3126 59.9921 65.2348C58.1567 66.6163 56.3812 74.8037 55.825 80.2192C55.1682 86.6133 56.8454 85.9072 57.5714 87.0228C54.3778 86.7685 44.9919 87.7336 44.206 91.7722C43.5615 95.0859 44.4601 96.9358 46.1162 97.9056C51.7243 101.177 90.8362 101.177 96.4432 97.9056L96.443 97.9056ZM61.5642 82.3862C61.6634 81.1018 62.0858 79.0368 62.3231 77.3728C62.6099 75.3606 62.7643 75.2471 63.7532 77.2767C64.3174 78.4347 65.437 81.6055 65.0513 83.017C64.906 83.5489 64.5033 83.9538 63.5297 83.8738C63.5091 83.8738 61.7348 82.5135 61.5642 82.3862ZM80.9972 82.3862C80.8269 82.5135 79.0523 83.8738 79.0315 83.8738C78.0576 83.9538 77.6554 83.5489 77.5101 83.017C77.1242 81.6055 78.2444 78.4347 78.8081 77.2767C79.7971 75.2471 79.9513 75.3606 80.2383 77.3728C80.4754 79.0367 80.8984 81.1018 80.9972 82.3862Z" fill="#F61067"/>
<path fill-rule="evenodd" clip-rule="evenodd" d="M92.8993 97.9056C94.5579 96.9358 95.4541 95.0859 94.8105 91.7722C94.0261 87.7336 84.6402 86.7685 81.4461 87.0228C82.172 85.9072 83.8498 86.6133 83.1925 80.2193C82.6363 74.8037 80.8608 66.6163 79.0255 65.2348C77.7993 64.3126 75.6977 65.3877 71.9528 63.1058C70.9948 62.5221 70.8269 62.2566 70.8519 61.856C71.2419 61.4991 71.5575 61.0604 71.8041 60.5475C71.8576 60.6849 71.9184 60.8166 71.9861 60.9419C72.0723 61.101 72.1702 61.2492 72.2793 61.3844C72.7445 61.9587 73.8089 62.5103 73.5251 61.2944C73.0406 59.2163 72.8062 58.9799 73.3233 56.8801C73.4366 56.4193 73.6248 55.942 73.6742 55.5372C73.7777 54.6943 73.6963 53.903 72.7474 54.9884L73.073 51.8046C73.2992 49.5848 71.9847 47.6511 69.9782 46.8174C69.735 45.9767 69.1431 45.1625 68.787 44.638C68.0257 43.5182 69.1679 43.5851 68.8588 41.57L68.8429 41.4668C68.2693 37.722 67.2047 37.722 66.6306 41.4668L66.6147 41.57C66.3056 43.5851 67.4484 43.5182 66.6871 44.638C66.3309 45.1625 65.7387 45.9767 65.4958 46.8174C63.4894 47.6511 62.1743 49.5848 62.4011 51.8046L62.7267 54.9884C61.7778 53.903 61.6963 54.6943 61.7999 55.5372C61.8493 55.942 62.0375 56.4193 62.1508 56.8801C62.6679 58.9799 62.4335 59.2163 61.949 61.2944C61.6652 62.5103 62.7294 61.9587 63.1947 61.3844C63.3039 61.2492 63.4012 61.101 63.4879 60.9419C63.5556 60.8166 63.6159 60.6849 63.67 60.5475C63.9165 61.0604 64.2322 61.4991 64.6222 61.856C64.6472 62.2566 64.4787 62.5221 63.5212 63.1058C59.7764 65.3877 57.6747 64.3126 56.4485 65.2348C54.6133 66.6163 52.8396 74.8037 52.2796 80.2192C51.6257 86.6133 53.3006 85.9072 54.0298 87.0228C50.8353 86.7685 41.4492 87.7336 40.6635 91.7722C40.019 95.0859 40.9176 96.9358 42.5737 97.9056C48.1818 101.177 87.2926 101.177 92.9007 97.9056L92.8993 97.9056ZM58.0204 82.3862C58.1192 81.1018 58.5422 79.0368 58.779 77.3728C59.0658 75.3606 59.2207 75.2471 60.2097 77.2767C60.7736 78.4347 61.8931 81.6055 61.5077 83.017C61.3622 83.5489 60.9595 83.9538 59.9862 83.8738C59.9655 83.8738 58.1907 82.5135 58.0204 82.3862ZM77.4536 82.3862C77.2833 82.5135 75.5085 83.8738 75.4879 83.8738C74.514 83.9538 74.1118 83.5489 73.9663 83.017C73.5806 81.6055 74.7004 78.4347 75.2644 77.2767C76.2533 75.2471 76.4077 75.3606 76.6948 77.3728C76.9318 79.0367 77.3548 81.1018 77.4536 82.3862Z" fill="#00F0B5"/>
<path fill-rule="evenodd" clip-rule="evenodd" d="M69.5086 45.7539C69.3185 46.0891 69.1459 46.4511 69.0396 46.8178C67.033 47.6514 65.7185 49.5851 65.9447 51.8049L66.2703 54.9887C65.3214 53.9033 65.2399 54.6946 65.3435 55.5375C65.3929 55.9424 65.5811 56.4196 65.6944 56.8804C66.2115 58.9803 65.9773 59.2166 65.4926 61.2948C65.209 62.5106 66.2732 61.959 66.7385 61.3847C66.8477 61.2495 66.9454 61.1013 67.0315 60.9422C67.0992 60.8169 67.16 60.6852 67.2136 60.5478C67.4601 61.0607 67.7758 61.4995 68.1658 61.8564C68.1908 62.2569 68.0228 62.5224 67.065 63.1061C63.32 65.388 61.2183 64.3129 59.9923 65.2351C58.1569 66.6166 56.3814 74.804 55.8252 80.2196C55.1684 86.6136 56.8456 85.9075 57.5716 87.0232C54.378 86.7689 44.9921 87.7339 44.2062 91.7725C43.5617 95.0862 44.4603 96.9361 46.1164 97.9059C48.7746 99.4544 58.9426 100.269 69.5086 100.353C80.0751 100.269 90.244 99.4544 92.8993 97.9059C94.5579 96.9361 95.4541 95.0862 94.8105 91.7725C94.0261 87.7339 84.6402 86.7689 81.4461 87.0232C82.172 85.9075 83.8498 86.6136 83.1925 80.2196C82.6365 74.804 80.8608 66.6166 79.0255 65.2351C77.7993 64.3129 75.6977 65.388 71.9528 63.1061C70.9949 62.5224 70.8269 62.2569 70.8519 61.8564C71.2419 61.4995 71.5576 61.0607 71.8041 60.5478C71.8578 60.6852 71.9184 60.8169 71.9861 60.9422C72.0723 61.1013 72.1702 61.2495 72.2793 61.3847C72.7447 61.959 73.8089 62.5106 73.5251 61.2948C73.0406 59.2166 72.8062 58.9803 73.3233 56.8804C73.4366 56.4196 73.6248 55.9424 73.6742 55.5375C73.7778 54.6946 73.6963 53.9033 72.7474 54.9887L73.073 51.8049C73.2992 49.5851 71.9847 47.6514 69.9782 46.8178C69.8718 46.4511 69.6992 46.0891 69.5086 45.7539ZM58.0204 82.3866C58.1193 81.1021 58.5422 79.0372 58.779 77.3732C59.0658 75.3609 59.2208 75.2474 60.2097 77.277C60.6777 78.2383 61.5289 80.5866 61.5839 82.1654C61.7099 80.8719 62.099 78.944 62.3231 77.3732C62.61 75.3609 62.7644 75.2474 63.7533 77.277C64.3174 78.435 65.437 81.6058 65.0513 83.0173C64.906 83.5492 64.5033 83.9541 63.5298 83.8741C63.51 83.8741 61.8484 82.5985 61.5857 82.4054C61.581 82.6314 61.5566 82.8385 61.5077 83.0173C61.3622 83.5492 60.9595 83.9541 59.9862 83.8741C59.9655 83.8741 58.1907 82.5138 58.0204 82.3866ZM77.4319 82.4054C77.1699 82.5985 75.5076 83.8741 75.4879 83.8741C74.514 83.9541 74.1119 83.5492 73.9663 83.0173C73.5807 81.6058 74.7004 78.435 75.2644 77.277C76.2533 75.2474 76.4077 75.3609 76.6948 77.3732C76.9186 78.9443 77.3078 80.8724 77.4337 82.1654C77.4889 80.5872 78.34 78.2383 78.8082 77.277C79.7971 75.2474 79.9513 75.3609 80.2384 77.3732C80.4754 79.037 80.8984 81.1021 80.9972 82.3866C80.8269 82.5138 79.0523 83.8741 79.0315 83.8741C78.0576 83.9541 77.6554 83.5492 77.5101 83.0173C77.4611 82.8385 77.4366 82.6314 77.4319 82.4054Z" fill="#F4F4ED"/>
</svg>
