<svg width="711" height="541" viewBox="0 0 711 541" fill="none" xmlns="http://www.w3.org/2000/svg">
<g clip-path="url(#clip0_3514_16891)">
<path d="M431.127 163.026C432.012 163.066 432.887 162.834 433.636 162.361C434.384 161.888 434.968 161.196 435.31 160.379C435.652 159.563 435.734 158.661 435.545 157.796C435.357 156.931 434.907 156.145 434.257 155.545C434.148 155.112 434.07 154.801 433.961 154.369C434 154.275 434.039 154.18 434.079 154.087C438.055 144.611 451.53 144.676 455.473 154.166C458.972 162.588 463.427 171.025 464.523 179.931C465.007 183.867 464.803 187.857 463.921 191.724C472.139 173.807 476.407 154.334 476.434 134.624C476.436 129.678 476.161 124.736 475.611 119.821C475.156 115.791 474.525 111.79 473.718 107.818C469.313 86.2658 459.856 66.0652 446.122 48.8752C439.475 45.2506 434.1 39.6768 430.72 32.9049C429.496 30.4706 428.631 27.872 428.151 25.1899C428.901 25.2882 430.979 13.8754 430.413 13.1752C431.458 11.5905 433.328 10.8028 434.469 9.25638C440.145 1.56574 447.965 2.90858 452.047 13.3595C460.768 17.7583 460.852 25.0533 455.501 32.0694C452.097 36.5331 451.629 42.573 448.642 47.3517C448.95 47.7449 449.269 48.1258 449.576 48.5189C455.194 55.7381 460.09 63.4901 464.194 71.6639C463.033 62.5984 464.748 51.677 467.67 44.6369C470.997 36.6155 477.233 29.8598 482.725 22.9253C489.321 14.5959 502.847 18.231 504.009 28.7899C504.021 28.8921 504.032 28.9943 504.042 29.0965C503.227 29.5563 502.428 30.0445 501.647 30.5609C500.666 31.2162 499.905 32.1526 499.465 33.2472C499.025 34.3419 498.927 35.5438 499.182 36.6955C499.437 37.8472 500.035 38.895 500.896 39.7015C501.757 40.5081 502.842 41.0358 504.009 41.2155L504.128 41.2339C503.838 44.172 503.324 47.0837 502.592 49.944C509.637 77.1729 494.427 87.0903 472.71 87.5358C472.231 87.7815 471.763 88.0271 471.284 88.2606C475.408 99.9401 477.994 112.106 478.979 124.452C479.536 131.736 479.503 139.053 478.881 146.331L478.917 146.073C480.491 137.98 484.811 130.677 491.148 125.398C500.56 117.671 513.858 114.825 524.012 108.614C528.9 105.624 535.163 109.488 534.31 115.151C534.296 115.242 534.282 115.332 534.268 115.423C532.755 116.039 531.281 116.748 529.856 117.548C529.04 118.008 528.241 118.496 527.46 119.012C526.479 119.668 525.718 120.604 525.278 121.699C524.839 122.793 524.74 123.995 524.995 125.147C525.25 126.299 525.848 127.346 526.709 128.153C527.571 128.959 528.656 129.487 529.822 129.667L529.942 129.685C530.028 129.698 530.102 129.71 530.187 129.722C527.601 135.894 523.971 141.575 519.457 146.516C515.052 170.285 496.132 172.541 475.894 165.619H475.881C473.661 175.262 470.443 184.649 466.281 193.628H431.987C431.864 193.247 431.753 192.854 431.642 192.473C434.817 192.673 438.004 192.483 441.132 191.908C438.587 188.788 436.043 185.643 433.498 182.523C433.442 182.464 433.388 182.403 433.339 182.338C432.048 180.741 430.745 179.157 429.454 177.56L429.454 177.558C429.385 172.662 429.947 167.778 431.126 163.026L431.127 163.026Z" fill="#F2F2F2"/>
<path d="M541.236 75.3084C534.86 52.0729 586.291 32.1481 599.797 50.8596C601.675 48.1994 608.615 46.5836 611.8 47.3996C614.984 48.2157 617.662 50.2558 620.275 52.2306C623.868 54.9889 627.591 57.845 629.796 61.811C632.017 65.7606 632.36 71.1466 629.371 74.5739C627.003 77.2994 620.014 79.0621 616.454 79.7803C613.972 80.2862 611.881 80.6942 610.085 80.988C608.453 78.6386 607.702 75.7899 607.962 72.9418C606.753 73.7569 605.739 74.8294 604.994 76.0823C604.249 77.3351 603.79 78.7373 603.651 80.1883C603.602 80.7922 623.721 154.775 623.721 154.775C621.303 156.15 618.761 157.292 616.127 158.186C610.917 150.228 606.927 141.536 604.288 132.399C603.681 138.509 603.758 144.667 604.516 150.76C604.92 154.176 605.498 157.57 606.247 160.928C582.34 166.085 546.38 164.388 530.736 142.452C530.733 142.362 530.731 142.271 530.728 142.18C530.716 141.314 530.403 140.48 529.843 139.819C529.282 139.158 528.51 138.713 527.657 138.559C526.805 138.405 525.925 138.553 525.169 138.976C524.413 139.399 523.828 140.071 523.513 140.878C523.134 141.846 522.785 142.684 522.473 143.35C517.917 127.062 523.812 108.211 541.236 75.3084Z" fill="#2F2E41"/>
<path d="M500.553 464.859V465.62C500.523 465.368 500.523 465.112 500.553 464.859Z" fill="#2F2E41"/>
<path d="M523.966 333.36C524.574 333.195 525.193 333.075 525.818 333C525.1 333.117 524.483 333.237 523.966 333.36Z" fill="#2F2E41"/>
<path d="M523.424 333.501C523.589 333.455 523.771 333.409 523.966 333.363C523.785 333.41 523.611 333.445 523.424 333.501Z" fill="#2F2E41"/>
<path d="M696.399 540.999H608.766C607.515 540.001 606.647 538.605 606.305 537.043C605.963 535.481 606.17 533.849 606.889 532.422C609.283 526.934 604.592 521.92 604.592 521.92C603 520.056 601.892 517.827 601.369 515.432C600.845 513.037 600.92 510.55 601.589 508.191C603.911 500.086 594.812 477.211 594.812 477.211C594.812 477.211 589.907 506.749 583.896 540.999H500.553C499.157 538.622 498.421 535.916 498.421 533.16C498.421 530.404 499.157 527.698 500.553 525.321C505.41 517.09 500.553 515.512 500.553 515.512C500.553 515.512 495.696 506.301 500.553 499.614C505.41 492.927 500.553 465.621 500.553 465.621C500.736 466.828 502.12 464.633 504.25 460.031C507.493 453.029 512.45 440.436 517.457 425.817C521.037 415.384 524.647 403.904 527.663 392.68H527.67C528.461 389.731 529.21 386.809 529.918 383.914C531.302 378.236 532.488 372.719 533.388 367.539C535.343 356.381 535.987 346.796 534.486 340.562C533.242 335.374 530.518 332.514 525.818 333.004C528.337 332.587 532.026 332.192 536.573 331.818C537.393 331.753 538.242 331.687 539.12 331.614C573.032 329.053 645.788 327.582 645.788 327.582L668.073 367.466L696.296 417.988C696.296 417.988 695.527 485.764 696.399 540.999Z" fill="#2F2E41"/>
<path d="M602.863 155.193L551.52 144.309L541.325 164.817L506.995 184.68C506.995 184.68 529.124 275.108 528.998 287.826C528.677 320.115 476.983 392.498 516.03 386.93C555.076 381.361 563.007 358.037 575.542 361.725C586.847 365.051 600.651 379.848 609.892 369.265C619.134 358.683 622.389 370.903 628.232 371.325C631.009 371.526 629.337 357.962 636.324 371.747C643.311 385.531 680.362 366.976 667.804 354.425C646.89 333.523 642.64 179.44 642.64 179.44L619.358 172.28L602.863 155.193Z" fill="#E6E6E6"/>
<path d="M506.024 483.588C508.087 481.13 509.109 477.964 508.872 474.764C508.635 471.564 507.158 468.583 504.755 466.455C504.26 466.03 503.73 465.647 503.172 465.309L511.756 423.203L491.911 411.332L486.391 470.283C485.17 472.706 484.785 475.465 485.298 478.129C485.81 480.793 487.191 483.212 489.224 485.01C490.39 486.021 491.745 486.794 493.21 487.282C494.675 487.771 496.222 487.966 497.763 487.857C499.304 487.748 500.808 487.336 502.19 486.646C503.571 485.956 504.804 485.001 505.816 483.835C505.886 483.754 505.956 483.671 506.024 483.588Z" fill="#FFB6B6"/>
<path d="M567.643 261.642C567.519 260.288 565.791 259.674 563.397 258.825C560.992 258.085 558.707 257.003 556.61 255.613C551.31 251.786 553.396 247.784 556.281 242.252C556.845 241.177 557.43 240.057 557.979 238.894C559.612 235.448 557.013 221.231 550.241 196.632C548.154 189.059 548.162 183.711 546.72 180.162C545.285 176.613 542.407 174.865 534.567 174.499C525.089 174.021 515.809 177.317 508.76 183.667C508.57 183.835 508.372 184.018 508.182 184.194C507.823 184.53 507.471 184.874 507.127 185.225C500.609 191.779 496.878 200.599 496.717 209.839L496.68 211.412L495.062 286.57L490.516 352.524L484.249 443.377L488.891 443.604L507.413 444.526L509.66 444.635L514.99 422.29L521.403 395.401L523.761 385.523L531.074 354.88L534.486 340.561L536.573 331.817L537.422 328.247L541.565 310.891C541.661 310.526 551.193 272.939 562.182 266.654C566.281 264.313 567.76 262.952 567.643 261.642Z" fill="#E6E6E6"/>
<path d="M690.938 483.142C688.623 480.919 687.267 477.881 687.159 474.675C687.05 471.468 688.199 468.345 690.359 465.972C690.805 465.496 691.291 465.058 691.81 464.663L678.75 423.721L697.205 409.789L709.028 467.807C710.503 470.085 711.181 472.786 710.958 475.49C710.735 478.193 709.622 480.747 707.794 482.752C706.743 483.883 705.479 484.796 704.075 485.439C702.671 486.082 701.154 486.442 699.61 486.499C698.066 486.556 696.527 486.309 695.079 485.771C693.631 485.233 692.303 484.416 691.172 483.365C691.093 483.292 691.015 483.218 690.938 483.142Z" fill="#FFB6B6"/>
<path d="M699.966 394.3C699.966 394.3 685.573 343.687 689.962 338.208C694.352 332.729 681.388 331.659 686.975 321.455C692.561 311.25 684.85 309.544 684.85 309.544L680.666 286.082L673.185 228.454L672.958 226.74L670.783 209.974C670.175 205.185 668.607 200.568 666.173 196.399C663.739 192.229 660.489 188.593 656.617 185.708C656.419 185.557 656.217 185.411 656.015 185.266C655.094 184.603 654.153 183.989 653.192 183.424C646.011 179.19 637.579 177.59 629.345 178.897C613.831 181.312 618.659 187.094 616.143 202.585C612.054 227.772 610.993 242.182 612.987 245.438C613.658 246.534 614.364 247.583 615.037 248.59C618.501 253.787 621.006 257.536 616.144 261.918C614.207 263.519 612.052 264.837 609.743 265.832C607.458 266.938 605.804 267.731 605.826 269.091C605.852 270.407 607.467 271.597 611.792 273.482C617.033 275.774 622.662 284.441 627.272 293.293C630.93 300.429 634.193 307.761 637.045 315.255L676.672 426.639L683.135 444.804L685.364 444.451L703.674 441.55L708.265 440.824L699.966 394.3Z" fill="#E6E6E6"/>
<path d="M581.201 143.54C604.335 143.54 623.089 124.797 623.089 101.676C623.089 78.5556 604.335 59.8125 581.201 59.8125C558.067 59.8125 539.313 78.5556 539.313 101.676C539.313 124.797 558.067 143.54 581.201 143.54Z" fill="#FFB6B6"/>
<path d="M518.374 78.574C511.997 55.3386 563.429 35.4137 576.935 54.1253C578.813 51.465 585.753 49.8492 588.937 50.6652C592.122 51.4813 594.8 53.5214 597.413 55.4963C601.006 58.2545 604.729 61.1106 606.933 65.0766C609.154 69.0262 609.497 74.4122 606.509 77.8395C604.141 80.5651 597.151 82.3278 593.591 83.0459C591.109 83.5518 589.019 83.9598 587.223 84.2536C585.591 81.9042 584.839 79.0555 585.1 76.2074C583.891 77.0226 582.877 78.095 582.132 79.3479C581.386 80.6007 580.928 82.0029 580.789 83.4539C580.739 84.0578 600.858 158.04 600.858 158.04C598.441 159.415 595.899 160.557 593.265 161.451C588.055 153.493 584.064 144.802 581.425 135.664C580.819 141.774 580.896 147.932 581.654 154.025C582.057 157.442 582.635 160.836 583.385 164.193C559.477 169.351 523.518 167.653 507.874 145.718C507.871 145.627 507.868 145.536 507.866 145.446C507.854 144.58 507.541 143.745 506.98 143.085C506.42 142.424 505.647 141.979 504.795 141.825C503.942 141.671 503.063 141.818 502.307 142.241C501.551 142.665 500.965 143.337 500.651 144.144C500.272 145.112 499.922 145.949 499.611 146.616C495.054 130.327 500.95 111.477 518.374 78.574Z" fill="#2F2E41"/>
<path d="M310.635 223.229C309.75 223.27 308.875 223.037 308.126 222.564C307.378 222.091 306.794 221.399 306.452 220.582C306.11 219.766 306.028 218.864 306.217 217.999C306.405 217.134 306.855 216.348 307.505 215.748C307.614 215.315 307.692 215.004 307.801 214.572C307.762 214.478 307.723 214.384 307.683 214.29C303.707 204.814 290.232 204.879 286.289 214.369C282.79 222.791 278.335 231.228 277.239 240.134C276.755 244.07 276.959 248.06 277.841 251.927C269.623 234.01 265.355 214.537 265.328 194.827C265.326 189.881 265.601 184.939 266.151 180.024C266.606 175.994 267.237 171.993 268.044 168.021C272.449 146.469 281.906 126.268 295.64 109.078C302.287 105.454 307.662 99.8799 311.042 93.108C312.266 90.6737 313.131 88.0751 313.611 85.393C312.861 85.4913 310.783 74.0786 311.349 73.3783C310.304 71.7936 308.434 71.0059 307.293 69.4595C301.617 61.7689 293.797 63.1117 289.715 73.5627C280.994 77.9614 280.91 85.2564 286.261 92.2725C289.665 96.7362 290.133 102.776 293.12 107.555C292.812 107.948 292.493 108.329 292.186 108.722C286.568 115.941 281.672 123.693 277.568 131.867C278.729 122.802 277.015 111.88 274.092 104.84C270.765 96.8186 264.529 90.063 259.037 83.1284C252.441 74.799 238.915 78.4341 237.753 88.993C237.741 89.0952 237.73 89.1974 237.72 89.2996C238.535 89.7595 239.334 90.2476 240.115 90.764C241.096 91.4193 241.857 92.3557 242.297 93.4503C242.737 94.545 242.835 95.7469 242.58 96.8986C242.325 98.0503 241.727 99.0981 240.866 99.9047C240.005 100.711 238.92 101.239 237.753 101.419L237.634 101.437C237.924 104.375 238.438 107.287 239.17 110.147C232.125 137.376 247.335 147.293 269.052 147.739C269.531 147.985 269.999 148.23 270.478 148.464C266.354 160.143 263.768 172.309 262.783 184.655C262.226 191.939 262.259 199.256 262.882 206.534L262.845 206.276C261.271 198.183 256.951 190.88 250.614 185.601C241.202 177.874 227.904 175.028 217.75 168.817C212.863 165.827 206.599 169.691 207.452 175.354C207.466 175.445 207.48 175.535 207.494 175.626C209.007 176.242 210.481 176.952 211.906 177.751C212.722 178.211 213.521 178.699 214.302 179.215C215.283 179.871 216.044 180.807 216.484 181.902C216.923 182.996 217.022 184.198 216.767 185.35C216.512 186.502 215.914 187.549 215.053 188.356C214.191 189.163 213.106 189.69 211.94 189.87L211.82 189.888C211.734 189.901 211.661 189.913 211.575 189.925C214.161 196.097 217.791 201.778 222.306 206.719C226.711 230.489 245.63 232.744 265.868 225.822H265.881C268.101 235.465 271.319 244.852 275.481 253.831H309.775C309.898 253.45 310.009 253.057 310.12 252.676C306.945 252.876 303.758 252.686 300.63 252.111C303.175 248.991 305.719 245.846 308.264 242.726C308.32 242.667 308.374 242.606 308.423 242.541C309.714 240.945 311.017 239.36 312.308 237.763L312.308 237.761C312.377 232.865 311.815 227.982 310.636 223.23L310.635 223.229Z" fill="#F2F2F2"/>
<path d="M150.613 50.8594C149.835 52.6722 125.835 52.4779 124.736 54.0922C116.261 66.5547 146.811 119.58 138.336 132.058L137.156 133.465C139.92 132.191 142.576 130.694 145.097 128.987C145.323 123.879 145.55 118.755 145.792 113.647C148.331 116.893 150.379 120.493 151.873 124.332C153.847 122.942 155.465 120.365 163.923 115.296C167.346 111.537 171.294 108.29 175.643 105.654L150.613 50.8594Z" fill="#2F2E41"/>
<path d="M168.041 152.998C165.393 151.273 162.371 150.205 159.227 149.882C156.083 149.558 152.907 149.989 149.962 151.138C147.018 152.287 144.39 154.121 142.297 156.488C140.204 158.855 138.706 161.687 137.927 164.749L101.456 259.723L38.7658 224.153C38.4906 220.064 36.9268 216.168 34.2988 213.022C31.6709 209.877 28.1137 207.644 24.1375 206.644C20.1613 205.644 15.9703 205.928 12.1657 207.456C8.36115 208.984 5.13837 211.676 2.95961 215.148C0.780863 218.619 -0.24192 222.691 0.0379586 226.779C0.317837 230.867 1.886 234.762 4.51753 237.904C7.14906 241.047 10.7088 243.276 14.6861 244.271C18.6634 245.267 22.854 244.978 26.6569 243.446C39.8589 257.528 97.0942 315.265 120.789 292.706C140.706 273.743 169.448 200.253 176.367 174.876C177.476 170.818 177.267 166.513 175.77 162.581C174.274 158.65 171.568 155.294 168.041 152.998Z" fill="#FFB6B6"/>
<path d="M99.5576 296.688L111.067 348.677L195.226 356.285L202.961 311.016L99.5576 296.688Z" fill="#FFB6B6"/>
<path d="M228.113 430.006C228.074 430.751 228.028 431.489 227.974 432.234C227.167 443.006 226.245 455.431 225.245 469.046C223.669 490.652 221.909 515.255 220.133 540.995H43.6079L77.843 438.153C77.843 438.153 91.6664 430.547 84.6288 417.769C77.5911 404.991 91.4386 415.174 91.5675 396.925C91.6963 378.677 104.105 359.263 104.105 359.263L106.142 331.633L107.303 331.656L199.167 333.185L200.843 333.216L203.665 356.935C220.796 377.309 229.536 403.431 228.113 430.006Z" fill="#2F2E41"/>
<path d="M152.085 127.801L193.975 125.645L213.432 156.371C213.432 156.371 250.04 162.488 247.502 205.601C244.965 248.715 202.961 286.548 202.961 286.548L204.756 280.395L201.638 289.301L202.038 294.301L206.292 299.596L206.73 305.073L202.961 313.738C203.451 314.523 203.711 315.43 203.712 316.355C203.712 317.28 203.453 318.188 202.964 318.973C202.475 319.759 201.776 320.392 200.945 320.801C200.114 321.209 199.185 321.377 198.264 321.285L137.736 315.222C136.358 311.434 135.252 306.901 129.728 314.447L124.026 313.895L100.324 311.6L98.9286 306.521C98.1359 303.635 98.0123 300.606 98.5674 297.665C99.1224 294.724 100.341 291.948 102.132 289.549C100.073 283.106 100.612 276.114 103.634 270.062L103.748 269.835L106.265 267.738C106.265 267.738 78.7271 226.391 110.34 195.248L123.028 173.691L137.224 156.381L152.085 127.801Z" fill="#85CB33"/>
<path d="M162.51 109.662C184.449 109.662 202.233 91.888 202.233 69.9621C202.233 48.0362 184.449 30.2617 162.51 30.2617C140.571 30.2617 122.787 48.0362 122.787 69.9621C122.787 91.888 140.571 109.662 162.51 109.662Z" fill="#FFB6B6"/>
<path d="M192.68 127.156C189.445 124.455 187.194 120.762 186.276 116.65C185.541 121.642 185.733 126.727 186.842 131.65C184.691 133.266 182.604 134.802 180.631 136.192C179.137 132.353 177.088 128.753 174.55 125.508C174.307 130.615 174.081 135.739 173.854 140.847C171.334 142.554 168.678 144.051 165.913 145.325L167.094 143.918C175.569 131.44 153.638 108.471 162.112 96.0082C164.49 92.5167 153.751 64.9248 145.567 63.6801C138.289 62.581 138.596 64.6823 131.545 66.2179C130.812 63.1656 129.676 60.2247 128.164 57.4731C128.567 60.5392 128.474 63.6499 127.89 66.6866C125.383 66.7836 123.41 65.1872 120.741 64.7793C103.71 62.1769 105.441 43.7661 110.18 37.9308C114.935 32.1118 130.72 30.3661 137.998 28.4748C138.661 27.8283 140.165 28.2324 140.828 27.6181C154.776 14.8606 173.431 12.7479 190.218 18.4023C208.12 24.4323 219.282 36.1031 225.011 54.0949L226.654 68.4929C228.128 73.1224 226.274 94.6628 225.011 99.3542C220.102 117.59 209.648 108.487 192.68 127.156Z" fill="#2F2E41"/>
<path d="M250.601 315.245L249.037 193.519C248.955 188.362 246.848 183.444 243.17 179.826C239.493 176.207 234.539 174.18 229.378 174.18H229.378C226.709 174.18 224.067 174.723 221.614 175.777C219.161 176.83 216.949 178.372 215.112 180.308C213.275 182.244 211.852 184.534 210.929 187.038C210.006 189.541 209.603 192.207 209.745 194.871L215.248 321.266L215.353 398.208C212.109 399.583 209.368 401.922 207.501 404.908C205.634 407.894 204.732 411.382 204.918 414.898C205.104 418.414 206.368 421.788 208.539 424.561C210.71 427.334 213.682 429.372 217.052 430.398C220.423 431.424 224.027 431.388 227.376 430.295C230.725 429.202 233.656 427.105 235.771 424.289C237.887 421.474 239.083 418.075 239.199 414.556C239.314 411.037 238.343 407.568 236.417 404.62L250.601 315.245Z" fill="#FFB6B6"/>
<path d="M455.617 472.73C455.617 472.73 453.199 516.205 452.088 540.999H368.821C367.107 518.435 366.53 501.858 366.53 501.858L361.974 540.999H277.808L272.59 468.507L297.806 406.038C297.806 406.038 434.457 396.567 447.133 408.582C459.8 420.589 455.617 472.73 455.617 472.73Z" fill="#2F2E41"/>
<path d="M381.985 107.018C407.105 107.018 427.468 86.6667 427.468 61.5618C427.468 36.457 407.105 16.1055 381.985 16.1055C356.866 16.1055 336.502 36.457 336.502 61.5618C336.502 86.6667 356.866 107.018 381.985 107.018Z" fill="#FFB6B6"/>
<path d="M435 46.7893C430.328 48.9183 427.301 64.3373 423.629 60.7527C419.957 57.1681 420.202 52.5033 415.252 51.1804C411.254 50.1075 406.952 51.3337 403.305 53.2675C402.654 53.6087 402.023 53.9798 401.408 54.3487C401.002 54.0775 400.597 53.8224 400.164 53.587C396.902 51.8424 393.095 51.4145 389.527 52.3912C392.346 53.335 394.797 55.1407 396.534 57.5529C395.313 58.3703 394.077 59.1898 392.813 59.9159C382.25 66.0083 367.218 52.7606 356.099 47.7838C363.064 60.8458 359.635 66.2553 353.587 79.7641L353.379 80.5334C353.722 77.1477 343.239 74.6245 343.847 79.3906C344.279 82.7745 347.209 90.296 348.85 93.2837C337.16 79.7742 329.171 63.2424 330.857 46.1885C331.224 42.606 331.113 38.826 332.962 35.7166C334.813 32.6233 338.671 30.4525 342.085 31.6321C341.796 26.1934 342.987 20.778 345.531 15.9617C348.075 11.1454 351.878 7.1081 356.535 4.27912C361.191 1.45015 366.528 -0.064799 371.977 -0.104661C377.427 -0.144524 382.785 1.2922 387.483 4.05274C391.848 6.61261 395.492 10.2331 399.493 13.356C403.494 16.4789 408.105 19.2011 413.179 19.4589C416.397 19.614 419.899 18.8288 422.664 20.4946C425.867 22.4276 426.415 26.4747 426.896 30.369C424.039 30.6505 421.331 31.7768 419.118 33.604C422.074 33.3026 425.05 33.9405 427.622 35.4268C427.67 35.4489 427.717 35.4754 427.761 35.5059C429.454 41.9419 429.281 43.3687 435 46.7893Z" fill="#2F2E41"/>
<path d="M278.009 428.03C316.742 382.719 303.659 325.088 288.286 266.912L291.211 180.968C291.355 176.752 292.511 172.633 294.583 168.958C296.655 165.282 299.581 162.159 303.114 159.852L342.655 134.035L358.045 111.797L400.468 116.037L423.992 140.9L450.032 160.768C456.57 165.756 461.544 172.509 464.369 180.23C467.194 187.951 467.752 196.318 465.976 204.345L441.057 316.971C441.057 316.971 451.479 375.357 445.12 381.805C438.76 388.254 422.374 381.809 435.369 389.047C450.963 397.734 465.142 396.131 457.251 404.018C449.359 411.905 459.346 422.87 459.346 422.87L278.009 428.03Z" fill="#85CB33"/>
<path d="M294.57 493.883L301.027 447.906L275.262 440.555L270.165 489.407C268.033 491.361 266.488 493.871 265.705 496.654C264.922 499.437 264.931 502.384 265.731 505.162C266.531 507.94 268.091 510.441 270.235 512.382C272.38 514.323 275.023 515.627 277.868 516.149C280.714 516.671 283.648 516.389 286.342 515.336C289.036 514.282 291.383 512.498 293.118 510.185C294.853 507.871 295.908 505.12 296.165 502.24C296.421 499.36 295.869 496.466 294.57 493.883Z" fill="#FFB6B6"/>
<path d="M343.622 142.324C343.622 142.324 270.283 166.18 268.535 183.634C266.786 201.089 267.366 211.774 259.625 281.621L260.033 469.768C260.033 469.768 309.202 480.289 304.16 469.04C299.117 457.791 300.877 452.499 300.877 452.499C300.877 452.499 311.419 448.341 308.78 435.133C306.141 421.925 319.374 356.47 319.374 356.47L327.727 239.08L343.622 142.324Z" fill="#85CB33"/>
<path d="M434.05 491.449L430.613 445.148L456.804 439.496L458.694 488.577C460.694 490.666 462.072 493.271 462.671 496.1C463.271 498.928 463.069 501.868 462.089 504.588C461.109 507.308 459.388 509.701 457.122 511.498C454.855 513.295 452.132 514.424 449.259 514.759C446.385 515.093 443.475 514.621 440.856 513.393C438.237 512.166 436.012 510.232 434.432 507.811C432.852 505.389 431.979 502.574 431.911 499.684C431.844 496.793 432.584 493.941 434.05 491.449H434.05Z" fill="#FFB6B6"/>
<path d="M408.095 137.438C408.095 137.438 479.717 166.033 480.32 183.565C480.924 201.096 479.646 211.721 482.802 281.923L470.089 469.642C470.089 469.642 420.337 476.928 426.105 466.033C431.872 455.137 430.463 449.741 430.463 449.741C430.463 449.741 420.215 444.904 423.712 431.896C427.209 418.889 418.285 352.709 418.285 352.709L417.628 235.025L408.095 137.438Z" fill="#85CB33"/>
</g>
<defs>
<clipPath id="clip0_3514_16891">
<rect width="711" height="541" fill="white"/>
</clipPath>
</defs>
</svg>
