<svg width="114" height="94" viewBox="0 0 114 94" fill="none" xmlns="http://www.w3.org/2000/svg">
<path d="M35.8027 94C78.8144 94 102.343 57.8264 102.343 26.5116C102.343 25.4993 102.343 24.4726 102.301 23.4604C106.881 20.0945 110.835 15.9274 113.976 11.1543C109.697 13.0692 105.163 14.3313 100.52 14.8996C105.41 11.9325 109.073 7.26409 110.827 1.76199C106.233 4.5249 101.204 6.46444 95.9606 7.49569C92.4358 3.68545 87.7715 1.16128 82.6902 0.314165C77.6089 -0.532949 72.3941 0.344272 67.8537 2.80995C63.3133 5.27562 59.7007 9.19214 57.5753 13.9529C55.45 18.7136 54.9306 24.0528 56.0975 29.1435C46.7995 28.6702 37.7034 26.2185 29.399 21.9474C21.0946 17.6762 13.7675 11.681 7.89284 4.35047C4.91051 9.57864 4.00037 15.7629 5.34723 21.6475C6.69408 27.532 10.197 32.6757 15.1446 36.034C11.4371 35.9062 7.81106 34.8957 4.55904 33.084V33.4094C4.56543 38.8863 6.43471 44.1929 9.8509 48.4324C13.2671 52.6718 18.0207 55.5841 23.3081 56.6768C21.3011 57.2379 19.228 57.5177 17.1463 57.5083C15.6787 57.5128 14.2141 57.3748 12.7724 57.0961C14.2668 61.8107 17.1767 65.9328 21.0944 68.8851C25.0122 71.8373 29.7416 73.4719 34.6202 73.5597C26.3324 80.1668 16.0948 83.7502 5.55633 83.7328C3.69938 83.7408 1.84373 83.6321 0 83.4075C10.696 90.3289 23.1179 94.004 35.8027 94V94Z" fill="#5DA271"/>
</svg>
