<svg width="931" height="1060" viewBox="0 0 931 1060" fill="none" xmlns="http://www.w3.org/2000/svg">
<g clip-path="url(#clip0_46_25)">
<path d="M484.22 999.1L485.407 972.381C485.53 972.315 485.653 972.25 485.777 972.185C498.491 965.503 513.062 977.598 509.001 991.391C505.18 1004.37 502.613 1018.36 495.619 1029.72C491.487 1036.32 485.925 1041.9 479.346 1046.05C472.767 1050.2 465.34 1052.82 457.614 1053.7L441.461 1063.61C439.245 1051.23 439.733 1038.53 442.893 1026.36C446.053 1014.19 451.81 1002.85 459.766 993.127C464.283 987.716 469.463 982.896 475.183 978.78C479.052 988.997 484.22 999.1 484.22 999.1Z" fill="#F2F2F2"/>
<path d="M628.838 727.944C659.937 695.823 705.002 677.401 752.48 677.401L754.312 677.406C785.584 677.418 816.299 669.111 843.314 653.334L846.125 651.694L843.861 649.357C831.603 636.656 821.368 622.142 813.513 606.326C819.092 611.534 825.745 615.451 833.002 617.799C840.259 620.147 847.943 620.869 855.51 619.913C863.498 618.959 871.167 616.206 877.942 611.86C884.716 607.515 890.42 601.689 894.626 594.82C911.22 567.855 931 529.593 931 500.445C930.974 475.808 925.823 451.446 915.876 428.912C905.929 406.379 891.403 386.168 873.225 369.569C861.716 359.176 852.524 346.471 846.247 332.281C839.97 318.092 836.75 302.737 836.796 287.217L836.805 285.008C836.808 264.576 834.315 244.22 829.381 224.393L828.88 222.391L826.823 222.463C813.56 222.915 800.29 221.802 787.287 219.146C799.484 217.648 811.416 214.469 822.744 209.701L824.957 208.805L824.206 206.534C772.444 174.436 655.603 191.058 587.785 35.6569C532.794 -90.3522 338.766 147.515 338.766 285.008C338.766 299.038 352.63 317.578 342.252 326.85C230.065 427.09 307.472 491.458 331.877 556.228C337.668 571.595 325.112 588.466 325.112 605.091C325.112 607.912 325.184 610.824 325.326 613.746L325.542 618.238L329.283 615.746C336.683 610.891 343.542 605.256 349.743 598.937C343.31 613.765 340.278 629.85 340.871 646.006C341.463 662.163 345.665 677.981 353.168 692.296C364.925 714.52 376.299 730.431 386.974 739.582C421.171 768.891 465.256 784.01 510.213 781.847C555.17 779.683 597.605 760.402 628.838 727.944Z" fill="#E6E6E6"/>
<path d="M441.014 1062.29C440.249 1062.29 439.511 1062.01 438.934 1061.51C438.357 1061.01 437.98 1060.32 437.872 1059.56C437.737 1058.61 424.514 963.095 436.39 836.154C447.357 718.921 482.578 550.064 588.086 411.385C588.339 411.052 588.655 410.772 589.016 410.561C589.376 410.35 589.775 410.213 590.189 410.157C590.603 410.1 591.024 410.126 591.427 410.233C591.831 410.34 592.21 410.525 592.542 410.779C592.874 411.033 593.154 411.349 593.363 411.711C593.573 412.072 593.71 412.472 593.766 412.886C593.821 413.301 593.795 413.722 593.688 414.127C593.58 414.531 593.395 414.91 593.141 415.243C488.544 552.724 453.607 720.342 442.717 836.747C430.91 962.95 444.03 1057.72 444.164 1058.66C444.228 1059.11 444.194 1059.57 444.065 1060.01C443.936 1060.45 443.714 1060.85 443.416 1061.2C443.117 1061.54 442.748 1061.82 442.334 1062.01C441.919 1062.19 441.469 1062.29 441.014 1062.29Z" fill="#3F3D56"/>
<path d="M527.115 606.998C526.444 606.999 525.79 606.786 525.247 606.391C524.703 605.997 524.299 605.44 524.091 604.8C523.883 604.161 523.883 603.473 524.09 602.833C524.298 602.194 524.702 601.636 525.245 601.241C525.628 600.963 564.225 573.109 621.929 551.948C675.271 532.39 756.386 514.658 839.893 541.276C840.291 541.402 840.66 541.606 840.98 541.875C841.299 542.145 841.563 542.474 841.755 542.846C841.947 543.217 842.064 543.623 842.1 544.04C842.135 544.457 842.088 544.876 841.962 545.275C841.835 545.673 841.631 546.043 841.362 546.363C841.092 546.682 840.763 546.946 840.391 547.138C840.02 547.329 839.615 547.446 839.199 547.481C838.782 547.516 838.363 547.468 837.966 547.341C756.17 521.27 676.525 538.708 624.114 557.926C567.234 578.784 529.357 606.117 528.981 606.39C528.439 606.785 527.786 606.998 527.115 606.998Z" fill="#3F3D56"/>
<path d="M381.683 244.227C381.634 243.556 381.798 242.888 382.152 242.317C382.506 241.745 383.032 241.301 383.654 241.048C384.275 240.794 384.961 240.744 385.613 240.905C386.265 241.066 386.849 241.43 387.281 241.944C387.586 242.306 418.105 278.857 443.334 334.975C466.653 386.851 490.153 466.603 469.659 551.937C469.462 552.757 468.947 553.466 468.229 553.906C467.51 554.347 466.646 554.484 465.827 554.286C465.007 554.089 464.3 553.574 463.86 552.854C463.42 552.134 463.284 551.269 463.481 550.448C483.554 466.863 460.452 388.559 437.538 337.588C412.67 282.271 382.722 246.403 382.423 246.047C381.99 245.534 381.731 244.897 381.683 244.227Z" fill="#3F3D56"/>
<path d="M385.984 408.324C383.303 429.988 368.314 447.85 346.518 447.85C336.052 447.85 326.014 443.686 318.612 436.273C311.211 428.861 307.053 418.807 307.053 408.324C307.053 386.495 324.816 370.817 346.518 368.799C369.546 366.657 389.426 380.511 385.984 408.324Z" fill="#2F2E41"/>
<path d="M328.24 1044.88L313.211 1044.88L306.062 986.824L328.243 986.826L328.24 1044.88Z" fill="#FFB6B6"/>
<path d="M328.768 1060.58L282.553 1060.58V1060C282.553 1055.22 284.448 1050.64 287.822 1047.26C291.195 1043.88 295.77 1041.98 300.541 1041.98H300.542L308.984 1035.57L324.734 1041.98L328.769 1041.98L328.768 1060.58Z" fill="#2F2E41"/>
<path d="M387.437 1044.88L372.409 1044.88L365.26 986.824L387.44 986.826L387.437 1044.88Z" fill="#FFB6B6"/>
<path d="M387.966 1060.58L341.75 1060.58V1060C341.751 1055.22 343.646 1050.64 347.019 1047.26C350.393 1043.88 354.968 1041.98 359.739 1041.98H359.74L368.182 1035.57L383.932 1041.98L387.966 1041.98L387.966 1060.58Z" fill="#2F2E41"/>
<path d="M276.522 681.262L265.897 717.747L278.414 872.268C278.414 872.268 271.969 881.93 276.522 881.93C281.076 881.93 286.915 884.072 283.236 889.842C279.558 895.611 292.131 916.325 292.131 916.325L309.916 1026.35L332.577 1026.01C332.577 1026.01 344.097 1019.59 337.632 1013.09C331.166 1006.59 326.613 1006.59 332.684 1000.51C338.756 994.425 338.756 996.256 338.756 991.54C338.756 986.824 344.839 929.188 330.413 907.079L334.76 816.937L344.997 905.355L366.078 1023.31L387.907 1023.13C387.907 1023.13 397.99 1013.4 397.972 1006.19C397.953 998.986 391.742 998.387 396.366 994.126C400.989 989.864 400.989 924.4 387.328 888.01C387.328 888.01 379.6 867.679 387.346 860.712C395.091 853.746 387.355 845.774 387.355 845.774C387.355 845.774 375.088 841.333 387.366 828.537C399.644 815.74 387.433 725.24 387.433 725.24C387.433 725.24 400.855 688.708 387.261 674.343C373.667 659.979 276.522 681.262 276.522 681.262Z" fill="#2F2E41"/>
<path d="M465.764 744.122L446.806 698.239L431.871 706.549L440.891 753.224C439.987 756.181 439.925 759.332 440.712 762.322C441.498 765.313 443.102 768.024 445.343 770.151C447.584 772.279 450.373 773.738 453.396 774.365C456.42 774.992 459.558 774.762 462.458 773.701C465.358 772.64 467.905 770.789 469.813 768.358C471.72 765.926 472.913 763.01 473.256 759.937C473.6 756.864 473.081 753.755 471.757 750.961C470.433 748.168 468.358 745.799 465.764 744.122Z" fill="#FFB6B6"/>
<path d="M147.654 381.292L176.499 421.681L189.166 410.197L169.821 366.783C170.032 363.697 169.379 360.615 167.937 357.88C166.494 355.146 164.319 352.87 161.655 351.306C158.991 349.742 155.945 348.954 152.858 349.029C149.771 349.104 146.767 350.041 144.182 351.732C141.597 353.424 139.535 355.804 138.227 358.606C136.919 361.407 136.418 364.518 136.778 367.589C137.139 370.66 138.348 373.57 140.269 375.991C142.191 378.411 144.748 380.247 147.654 381.292Z" fill="#FFB6B6"/>
<path d="M273.66 685.003C254.951 714.066 348.994 750.95 385.079 736.142C391.398 733.549 413.133 724.985 398.276 713.112C383.42 701.238 399.999 699.567 400.391 691.838C400.653 686.671 396.658 675.335 400.826 675.821C404.994 676.307 409.872 669.161 400.795 666.085C391.718 663.01 400.698 660.206 400.618 657.287C399.75 625.43 375.346 574.759 375.346 574.759L419.32 687.341C419.32 687.341 418.995 706.818 424.603 700.866C430.211 694.914 429.803 714.178 429.803 714.178C429.803 714.178 438.142 720.007 433.347 723.25C428.552 726.494 438.509 736.467 438.509 736.467L461.743 734.805C461.743 734.805 461.379 717.519 457.412 713.696C453.445 709.873 455.393 703.858 455.393 703.858C455.393 703.858 445.065 694.701 451.989 687.266C460.895 677.704 428.425 516.197 417.22 517.796C415.636 510.075 411.95 502.942 406.572 497.187C401.193 491.432 394.329 487.278 386.741 485.186L361.647 478.266L357.191 460.559H321.856L315.702 472.194L288.838 484.335C283.778 477.185 279.997 469.65 259.277 467.207C259.277 467.207 203.445 416.331 206.171 412.358C208.897 408.386 200.242 399.085 200.242 399.085C200.242 399.085 192.851 396.662 197.022 395.369C201.192 394.075 193.309 391.084 193.309 391.084C193.309 391.084 186.007 389.163 189.451 386.633C192.895 384.103 177.959 382.441 177.959 382.441L158.58 398.276L162.497 404.928C162.497 404.928 160.108 413.985 163.225 410.679C166.342 407.372 166.929 416.968 166.929 416.968C166.929 416.968 168.52 427.475 177.959 430.641C187.397 433.807 194.554 463.883 194.554 463.883C216.814 492.869 243.083 515.481 274.213 530.367C262.081 544.314 273.66 685.003 273.66 685.003Z" fill="#258039"/>
<path d="M342.156 450.197C322.828 450.197 307.16 434.505 307.16 415.147C307.16 395.79 322.828 380.098 342.156 380.098C361.484 380.098 377.152 395.79 377.152 415.147C377.152 434.505 361.484 450.197 342.156 450.197Z" fill="#FFB6B6"/>
<path d="M378.394 418.966C377.286 426.582 370.805 437.208 372.323 437.208C373.84 437.208 384.633 405.811 373.84 403.764C366.012 402.279 364.263 403.581 356.946 400.404L357.979 401.377C353.136 404.904 346.397 402.73 340.872 400.434C335.332 398.154 328.607 395.98 323.75 399.492C320.699 401.696 319.409 405.527 317.512 408.78C315.614 412.049 312.108 415.135 308.495 414.132C305.596 413.326 303.927 410.073 303.942 407.063C303.957 404.053 307.87 401.189 306.553 398.489C302.647 390.486 306.159 385.031 314.673 381.265C317.77 380.793 320.866 380.312 323.963 379.82C322.34 377.57 320.373 375.589 318.134 373.952C319.08 371.523 320.716 369.425 322.84 367.917C325.314 366.443 328.38 366.549 331.249 366.701C337.654 367.035 344.054 367.37 350.45 367.704C355.186 367.948 360.088 368.236 364.323 370.41C369.605 373.131 373.066 378.437 375.586 383.834C381.233 395.965 380.337 405.725 378.394 418.966Z" fill="#2F2E41"/>
<path d="M648.457 906.749C647.822 902.381 652.389 898.1 658.658 897.186C664.927 896.273 670.523 899.073 671.158 903.441C671.792 907.808 667.225 912.089 660.956 913.003C654.687 913.916 649.091 911.116 648.457 906.749Z" fill="#E6E6E6"/>
<path d="M573.82 899.455C573.185 895.087 577.753 890.806 584.022 889.892C590.29 888.979 595.887 891.779 596.521 896.147C597.156 900.514 592.588 904.795 586.319 905.709C580.051 906.622 574.454 903.822 573.82 899.455Z" fill="#3F3D56"/>
<path d="M668.895 846.232C668.26 841.864 672.827 837.583 679.096 836.67C685.365 835.756 690.961 838.556 691.596 842.924C692.23 847.291 687.663 851.573 681.394 852.486C675.125 853.4 669.529 850.599 668.895 846.232Z" fill="#FF6584"/>
<path d="M701.326 821.443C701.296 817.434 703.529 814.166 706.314 814.145C709.099 814.124 711.381 817.357 711.411 821.367C711.442 825.377 709.209 828.644 706.424 828.665C703.639 828.686 701.356 825.453 701.326 821.443Z" fill="#E6E6E6"/>
<path d="M712.324 775.272C712.294 771.263 714.527 767.995 717.312 767.974C720.097 767.953 722.379 771.186 722.41 775.196C722.44 779.205 720.207 782.473 717.422 782.494C714.637 782.515 712.354 779.282 712.324 775.272Z" fill="#3F3D56"/>
<path d="M626.799 856.53C626.768 852.521 629.002 849.253 631.787 849.232C634.572 849.211 636.854 852.444 636.884 856.454C636.914 860.463 634.681 863.731 631.896 863.752C629.111 863.773 626.829 860.54 626.799 856.53Z" fill="#E6E6E6"/>
<path d="M662.867 874.566C662.836 870.556 665.069 867.289 667.855 867.268C670.64 867.247 672.922 870.48 672.952 874.49C672.982 878.499 670.749 881.767 667.964 881.788C665.179 881.809 662.897 878.576 662.867 874.566Z" fill="#FF6584"/>
<path d="M612.659 907.901C612.629 903.891 614.862 900.624 617.647 900.602C620.432 900.581 622.714 903.815 622.745 907.824C622.775 911.834 620.542 915.102 617.757 915.123C614.972 915.144 612.689 911.91 612.659 907.901Z" fill="#3F3D56"/>
<path d="M74.6957 672.636C74.0612 668.269 78.6287 663.988 84.8975 663.074C91.1663 662.161 96.7625 664.961 97.397 669.328C98.0315 673.696 93.464 677.977 87.1952 678.891C80.9264 679.804 75.3302 677.004 74.6957 672.636Z" fill="#E6E6E6"/>
<path d="M0.0590064 665.342C-0.575489 660.975 3.99207 656.694 10.2609 655.78C16.5297 654.867 22.1258 657.667 22.7603 662.034C23.3948 666.402 18.8274 670.683 12.5586 671.596C6.28977 672.51 0.693502 669.71 0.0590064 665.342Z" fill="#3F3D56"/>
<path d="M95.1347 612.12C94.5003 607.752 99.0677 603.471 105.337 602.557C111.605 601.644 117.202 604.444 117.836 608.812C118.47 613.179 113.903 617.46 107.634 618.374C101.365 619.287 95.7692 616.487 95.1347 612.12Z" fill="#FF6584"/>
<path d="M127.565 587.331C127.534 583.321 129.768 580.054 132.553 580.033C135.338 580.012 137.62 583.245 137.65 587.255C137.681 591.264 135.447 594.532 132.662 594.553C129.877 594.574 127.595 591.341 127.565 587.331Z" fill="#E6E6E6"/>
<path d="M138.563 541.16C138.533 537.15 140.766 533.883 143.551 533.862C146.336 533.841 148.619 537.074 148.649 541.083C148.679 545.093 146.446 548.361 143.661 548.382C140.876 548.403 138.594 545.169 138.563 541.16Z" fill="#3F3D56"/>
<path d="M53.0375 622.418C53.0072 618.408 55.2403 615.141 58.0254 615.12C60.8104 615.099 63.0926 618.332 63.1229 622.342C63.1532 626.351 60.92 629.619 58.135 629.64C55.35 629.661 53.0678 626.428 53.0375 622.418Z" fill="#E6E6E6"/>
<path d="M89.1053 640.454C89.075 636.444 91.3082 633.177 94.0933 633.155C96.8783 633.134 99.1605 636.368 99.1908 640.377C99.2211 644.387 96.9879 647.654 94.2029 647.675C91.4179 647.696 89.1356 644.463 89.1053 640.454Z" fill="#FF6584"/>
<path d="M38.8978 673.788C38.8676 669.779 41.1007 666.511 43.8857 666.49C46.6707 666.469 48.953 669.702 48.9833 673.712C49.0135 677.722 46.7803 680.989 43.9953 681.01C41.2103 681.031 38.9281 677.798 38.8978 673.788Z" fill="#3F3D56"/>
<path d="M352.469 239.376C351.834 235.009 356.402 230.728 362.671 229.814C368.939 228.901 374.535 231.701 375.17 236.068C375.804 240.436 371.237 244.717 364.968 245.631C358.7 246.544 353.103 243.744 352.469 239.376Z" fill="white"/>
<path d="M277.832 232.082C277.198 227.715 281.765 223.434 288.034 222.52C294.303 221.607 299.899 224.407 300.533 228.774C301.168 233.142 296.6 237.423 290.332 238.337C284.063 239.25 278.467 236.45 277.832 232.082Z" fill="#3F3D56"/>
<path d="M372.907 178.86C372.272 174.492 376.84 170.211 383.108 169.298C389.377 168.384 394.973 171.184 395.608 175.552C396.242 179.919 391.675 184.2 385.406 185.114C379.137 186.027 373.541 183.227 372.907 178.86Z" fill="#FF6584"/>
<path d="M405.338 154.071C405.308 150.062 407.541 146.794 410.326 146.773C413.111 146.752 415.393 149.985 415.424 153.995C415.454 158.004 413.221 161.272 410.436 161.293C407.651 161.314 405.369 158.081 405.338 154.071Z" fill="#E6E6E6"/>
<path d="M416.336 107.9C416.306 103.89 418.539 100.623 421.324 100.602C424.109 100.581 426.391 103.814 426.422 107.824C426.452 111.833 424.219 115.101 421.434 115.122C418.649 115.143 416.367 111.91 416.336 107.9Z" fill="#3F3D56"/>
<path d="M330.811 189.158C330.781 185.149 333.014 181.881 335.799 181.86C338.584 181.839 340.866 185.072 340.896 189.082C340.927 193.091 338.693 196.359 335.908 196.38C333.123 196.401 330.841 193.168 330.811 189.158Z" fill="#E6E6E6"/>
<path d="M366.878 207.194C366.848 203.184 369.081 199.917 371.866 199.896C374.651 199.875 376.933 203.108 376.964 207.117C376.994 211.127 374.761 214.395 371.976 214.416C369.191 214.437 366.909 211.203 366.878 207.194Z" fill="#FF6584"/>
<path d="M316.671 240.529C316.641 236.519 318.874 233.252 321.659 233.23C324.444 233.209 326.726 236.443 326.757 240.452C326.787 244.462 324.554 247.729 321.769 247.75C318.984 247.772 316.701 244.538 316.671 240.529Z" fill="#3F3D56"/>
</g>
<defs>
<clipPath id="clip0_46_25">
<rect width="931" height="1065" fill="white" transform="matrix(-1 0 0 1 931 0)"/>
</clipPath>
</defs>
</svg>
