<?xml version="1.0" standalone="no"?>
<!DOCTYPE svg PUBLIC "-//W3C//DTD SVG 20010904//EN"
 "http://www.w3.org/TR/2001/REC-SVG-20010904/DTD/svg10.dtd">
<svg version="1.0" xmlns="http://www.w3.org/2000/svg"
 width="500.000000pt" height="500.000000pt" viewBox="0 0 500.000000 500.000000"
 preserveAspectRatio="xMidYMid meet">
<metadata>
Created by potrace 1.14, written by Peter Selinger 2001-2017
</metadata>
<g transform="translate(0.000000,500.000000) scale(0.100000,-0.100000)"
fill="#000000" stroke="none">
<path d="M2613 3913 c3 -10 9 -38 12 -63 4 -25 9 -53 11 -64 4 -23 11 -84 21
-178 15 -146 7 -548 -12 -578 -2 -3 -6 -25 -10 -49 -3 -23 -18 -75 -31 -114
-51 -143 -82 -243 -88 -277 -3 -19 -9 -55 -13 -80 -4 -25 -7 -103 -7 -175 0
-103 5 -146 23 -210 79 -282 286 -446 621 -490 66 -9 242 -14 266 -9 18 5 25
24 50 127 15 67 29 129 31 137 24 138 24 485 0 615 -9 50 -19 101 -22 115 -23
125 -138 416 -211 537 -10 17 -32 53 -48 80 -89 146 -205 291 -363 453 -62 63
-113 117 -113 119 0 9 174 -153 256 -239 336 -349 551 -773 592 -1170 12 -123
5 -384 -13 -450 -2 -8 -6 -31 -9 -50 -4 -29 -35 -153 -62 -249 -4 -14 -3 -22
2 -19 5 4 26 9 48 12 63 10 186 64 250 110 141 101 225 241 263 441 5 22 8
119 8 215 -1 224 -22 319 -113 495 -162 316 -581 662 -1124 928 -201 99 -222
107 -215 80z"/>
<path d="M2017 3203 c-1 0 -38 -4 -82 -7 -44 -4 -87 -8 -95 -10 -8 -1 -33 -6
-55 -10 -457 -87 -996 -322 -1498 -654 l-98 -65 125 -53 c318 -134 609 -305
820 -482 113 -95 135 -118 271 -287 147 -183 274 -300 421 -389 359 -216 708
-205 1004 32 59 48 169 157 204 205 25 33 26 37 10 38 -139 5 -349 79 -439
154 -77 65 -92 80 -132 140 -51 77 -77 141 -98 240 -18 83 -24 252 -11 317 l7
36 -103 40 c-127 49 -209 75 -313 101 -70 17 -110 24 -240 46 -173 29 -486 34
-702 11 -34 -4 -70 -8 -80 -10 -10 -2 -43 -7 -73 -11 -30 -4 -109 -18 -175
-32 -66 -13 -129 -26 -140 -28 -11 -2 -36 -8 -55 -14 -50 -16 -61 -13 -20 5
61 27 330 92 470 114 74 12 146 23 160 26 99 18 431 24 590 11 194 -15 388
-56 565 -117 141 -50 131 -51 149 17 10 32 29 87 43 123 14 36 30 81 34 100
27 107 41 184 46 261 l5 86 -78 21 c-80 21 -95 24 -194 38 -47 6 -238 12 -243
7z"/>
</g>
</svg>
